<svg xmlns="http://www.w3.org/2000/svg" fill="none" viewBox="0 0 512 512"><path fill="#00dc82" d="M286.72 426.66687h189.44c6.04498 0 11.83155-2.12408 17.06626-5.12 5.23593-2.99592 10.63246-6.75743 13.65374-11.94747 3.02128-5.18883 5.12241-11.07683 5.12-17.06748-.002-5.99185-2.09389-11.87743-5.12-17.06385l-128-220.1612c-3.02128-5.18883-6.71275-8.95155-11.94626-11.94747-5.23472-2.99472-12.72996-5.12-18.77374-5.12-6.04377 0-11.83275 2.12528-17.06626 5.12-5.23472 2.99592-8.92619 6.75864-11.94747 11.94747l-32.42627 56.32-64.85373-109.2311c-3.0237-5.187615-6.71034-10.654175-11.94626-13.648895-5.23593-2.99593-11.02129-3.41374-17.06627-3.41374s-11.83154.41781-17.06747 3.41374c-5.23472 2.99472-10.62883 8.46128-13.65253 13.648895L3.4133858 375.46808C.38739333 380.65449.00266881 386.54007.0000122 392.53193c-.0026566 5.99064.39196981 11.87742 3.4133736 17.06747 3.0214037 5.18882 8.4180522 8.95155 13.6532522 11.94747 5.235321 2.99592 11.021283 5.12 17.066747 5.12H153.60001c47.33705 0 81.792-21.23472 105.81373-61.44L317.44 264.53314l30.72-52.90626 93.86626 160.42626H317.44Zm-134.82626-54.61373H68.266275l124.587465-215.04L256 264.53314l-41.82822 72.91652c-15.9517 26.08665-34.13977 34.60348-62.27804 34.60348"/></svg>
