<svg width="97" height="97" viewBox="0 0 97 97" fill="none" xmlns="http://www.w3.org/2000/svg">
<path d="M48.5899 3.2983C57.6542 3.2983 66.4774 5.99832 73.9506 11.0608C81.231 15.9787 86.9685 22.9215 90.3917 31.0215C96.3703 45.1482 94.7792 61.3 86.1971 73.9804C81.2792 81.2607 74.3364 86.9982 66.2364 90.4214C52.1096 96.4 35.9578 94.8089 23.2775 86.2268C15.9971 81.3089 10.2596 74.3661 6.83643 66.2661C0.857875 52.1393 2.44895 35.9875 11.0311 23.3072C15.9489 16.0269 22.8918 10.2894 30.9918 6.86617C36.5364 4.50367 42.5631 3.2983 48.5899 3.2983ZM48.5899 0.405441C21.9757 0.405441 0.375732 22.0055 0.375732 48.6196C0.375732 75.2339 21.9757 96.8339 48.5899 96.8339C75.2042 96.8339 96.8042 75.2339 96.8042 48.6196C96.8042 22.0055 75.2042 0.405441 48.5899 0.405441Z" fill="white"/>
<path d="M8.42896 48.6189C8.42896 63.9993 17.204 78.0779 31.0897 84.7796L11.9004 32.2744C9.5861 37.4332 8.42896 42.9779 8.42896 48.6189ZM75.7361 46.5939C75.7361 41.6279 73.9521 38.2047 72.4093 35.5048C70.8664 32.8048 68.4557 29.3816 68.4557 26.103C68.4557 22.8244 71.2521 18.9673 75.2057 18.9673H75.7361C59.3914 3.97265 33.9825 5.08158 18.9879 21.4744C17.5415 23.0655 16.1915 24.753 15.0343 26.5369H17.6379C21.8325 26.5369 28.3415 26.0066 28.3415 26.0066C30.5111 25.8619 30.7522 29.0441 28.5825 29.3334C28.5825 29.3334 26.4129 29.5744 24.0022 29.7191L38.6111 73.2564L47.3861 46.8832L41.1182 29.7191C38.9486 29.5744 36.9236 29.3334 36.9236 29.3334C34.754 29.1887 34.995 25.9101 37.1646 26.0066C37.1646 26.0066 43.8182 26.5369 47.7236 26.5369C51.6289 26.5369 58.4271 26.0066 58.4271 26.0066C60.5968 25.8619 60.8378 29.0441 58.6682 29.3334C58.6682 29.3334 56.4986 29.5744 54.0878 29.7191L68.6003 72.9189L72.7468 59.8047C74.5789 54.0672 75.6879 50.0171 75.6879 46.5457L75.7361 46.5939ZM49.2664 52.0904L37.2128 87.1421C45.3128 89.5046 53.9432 89.3118 61.8986 86.5154L61.6093 85.985L49.2664 52.0904ZM83.8361 29.3334C84.0289 30.6834 84.1253 32.0816 84.1253 33.4798C84.1253 37.5779 83.3539 42.1582 81.0878 47.8475L68.7932 83.3332C87.5968 72.3886 94.2986 48.4261 83.8361 29.3334Z" fill="white"/>
</svg>
