<svg width="160" height="160" fill="none" xmlns="http://www.w3.org/2000/svg">
  <rect width="160" height="160" rx="20" fill="#0085FF"/>
  <g clip-path="url(#a)">
    <path d="M46.578 35.01C60.106 45.19 74.658 65.832 80 76.907v29.257c0-.623-.24.081-.756 1.597-2.788 8.208-13.677 40.244-38.577 14.633-13.11-13.484-7.041-26.968 16.825-31.04-13.653 2.33-29.003-1.519-33.214-16.606C23.065 70.41 21 43.677 21 40.066c0-18.086 15.818-12.401 25.578-5.056Zm66.844 0C99.894 45.19 85.342 65.832 80 76.907v29.257c0-.623.24.081.756 1.597 2.788 8.208 13.677 40.244 38.577 14.633 13.111-13.484 7.041-26.968-16.824-31.04 13.652 2.33 29.002-1.519 33.213-16.606C136.935 70.41 139 43.677 139 40.066c0-18.086-15.816-12.401-25.578-5.056Z" fill="#fff"/>
  </g>
  <defs>
    <clipPath id="a">
      <path fill="#fff" transform="translate(21 28)" d="M0 0h118v105H0z"/>
    </clipPath>
  </defs>
</svg>
