<svg width="507" height="261" viewBox="0 0 507 261" fill="none" xmlns="http://www.w3.org/2000/svg">
<path d="M1 7.41176C1 3.87064 3.87065 1 7.41176 1H499.588C503.129 1 506 3.87065 506 7.41176V253.588C506 257.129 503.129 260 499.588 260H7.41177C3.87065 260 1 257.129 1 253.588V7.41176Z" fill="white"/>
<path d="M499.588 0.5H7.41176C3.5945 0.5 0.5 3.5945 0.5 7.41176V253.588C0.5 257.405 3.5945 260.5 7.41177 260.5H499.588C503.406 260.5 506.5 257.405 506.5 253.588V7.41176C506.5 3.5945 503.406 0.5 499.588 0.5Z" stroke="black" stroke-opacity="0.1"/>
<path d="M25.81 25.13C24.5533 25.13 23.5913 24.805 22.924 24.155C22.2653 23.4963 21.936 22.5257 21.936 21.243V15.835H23.6V21.23C23.6 22.0533 23.7863 22.673 24.159 23.089C24.5403 23.4963 25.0907 23.7 25.81 23.7C27.2747 23.7 28.007 22.8767 28.007 21.23V15.835H29.658V21.243C29.658 22.5257 29.333 23.4963 28.683 24.155C28.033 24.805 27.0753 25.13 25.81 25.13ZM33.7697 25.13C33.2323 25.13 32.7297 25.065 32.2617 24.935C31.7937 24.805 31.4037 24.6187 31.0917 24.376L31.5077 23.31C31.8283 23.5267 32.188 23.6957 32.5867 23.817C32.9853 23.9297 33.384 23.986 33.7827 23.986C34.1987 23.986 34.5063 23.9167 34.7057 23.778C34.9137 23.6307 35.0177 23.44 35.0177 23.206C35.0177 22.842 34.749 22.608 34.2117 22.504L32.9117 22.257C31.811 22.049 31.2607 21.477 31.2607 20.541C31.2607 20.125 31.3733 19.7653 31.5987 19.462C31.8327 19.1587 32.1533 18.9247 32.5607 18.76C32.968 18.5953 33.436 18.513 33.9647 18.513C34.4153 18.513 34.8487 18.578 35.2647 18.708C35.6807 18.8293 36.036 19.0157 36.3307 19.267L35.8887 20.333C35.6373 20.125 35.334 19.9603 34.9787 19.839C34.632 19.7177 34.2983 19.657 33.9777 19.657C33.553 19.657 33.2367 19.7307 33.0287 19.878C32.8293 20.0253 32.7297 20.2203 32.7297 20.463C32.7297 20.8443 32.9767 21.0783 33.4707 21.165L34.7707 21.412C35.334 21.516 35.7587 21.7067 36.0447 21.984C36.3393 22.2613 36.4867 22.634 36.4867 23.102C36.4867 23.7347 36.2397 24.233 35.7457 24.597C35.2517 24.9523 34.593 25.13 33.7697 25.13ZM39.8833 25.13C39.424 25.13 39.0123 25.0433 38.6483 24.87C38.293 24.688 38.0113 24.4453 37.8033 24.142C37.604 23.8387 37.5043 23.4963 37.5043 23.115C37.5043 22.647 37.6256 22.2787 37.8683 22.01C38.111 21.7327 38.5053 21.5333 39.0513 21.412C39.5973 21.2907 40.3296 21.23 41.2483 21.23H41.7033V20.957C41.7033 20.5237 41.608 20.2117 41.4173 20.021C41.2266 19.8303 40.906 19.735 40.4553 19.735C40.1 19.735 39.736 19.7913 39.3633 19.904C38.9906 20.008 38.6136 20.1727 38.2323 20.398L37.7643 19.293C37.9896 19.137 38.254 19.0027 38.5573 18.89C38.8693 18.7687 39.1943 18.6777 39.5323 18.617C39.879 18.5477 40.204 18.513 40.5073 18.513C41.4346 18.513 42.1236 18.7297 42.5743 19.163C43.025 19.5877 43.2503 20.2507 43.2503 21.152V25H41.7293V23.986C41.582 24.3413 41.348 24.623 41.0273 24.831C40.7066 25.0303 40.3253 25.13 39.8833 25.13ZM40.2213 24.012C40.646 24.012 40.997 23.8647 41.2743 23.57C41.5603 23.2753 41.7033 22.9027 41.7033 22.452V22.166H41.2613C40.4466 22.166 39.879 22.231 39.5583 22.361C39.2463 22.4823 39.0903 22.7077 39.0903 23.037C39.0903 23.323 39.19 23.557 39.3893 23.739C39.5886 23.921 39.866 24.012 40.2213 24.012ZM47.8637 27.47C47.2744 27.47 46.7197 27.4007 46.1997 27.262C45.6884 27.132 45.2377 26.9283 44.8477 26.651L45.3157 25.52C45.6797 25.7627 46.0697 25.9403 46.4857 26.053C46.9017 26.1743 47.3177 26.235 47.7337 26.235C48.895 26.235 49.4757 25.676 49.4757 24.558V23.687C49.2937 24.0423 49.012 24.324 48.6307 24.532C48.258 24.74 47.842 24.844 47.3827 24.844C46.8107 24.844 46.3124 24.714 45.8877 24.454C45.463 24.1853 45.1337 23.8127 44.8997 23.336C44.6657 22.8593 44.5487 22.3047 44.5487 21.672C44.5487 21.0393 44.6657 20.489 44.8997 20.021C45.1337 19.5443 45.463 19.176 45.8877 18.916C46.3124 18.6473 46.8107 18.513 47.3827 18.513C47.8594 18.513 48.284 18.6213 48.6567 18.838C49.0294 19.046 49.3024 19.3277 49.4757 19.683V18.643H51.0617V24.363C51.0617 25.3943 50.7887 26.17 50.2427 26.69C49.6967 27.21 48.9037 27.47 47.8637 27.47ZM47.8247 23.609C48.3274 23.609 48.726 23.4357 49.0207 23.089C49.3154 22.7423 49.4627 22.27 49.4627 21.672C49.4627 21.074 49.3154 20.606 49.0207 20.268C48.726 19.9213 48.3274 19.748 47.8247 19.748C47.322 19.748 46.9234 19.9213 46.6287 20.268C46.334 20.606 46.1867 21.074 46.1867 21.672C46.1867 22.27 46.334 22.7423 46.6287 23.089C46.9234 23.4357 47.322 23.609 47.8247 23.609ZM55.8784 25.13C55.1591 25.13 54.5394 24.9957 54.0194 24.727C53.4994 24.4583 53.0964 24.077 52.8104 23.583C52.5331 23.089 52.3944 22.504 52.3944 21.828C52.3944 21.1693 52.5287 20.593 52.7974 20.099C53.0747 19.605 53.4517 19.2193 53.9284 18.942C54.4137 18.656 54.9641 18.513 55.5794 18.513C56.4807 18.513 57.1914 18.799 57.7114 19.371C58.2401 19.943 58.5044 20.723 58.5044 21.711V22.192H53.9544C54.0757 23.3273 54.7257 23.895 55.9044 23.895C56.2597 23.895 56.6151 23.843 56.9704 23.739C57.3257 23.6263 57.6507 23.453 57.9454 23.219L58.4004 24.311C58.0971 24.5623 57.7157 24.7617 57.2564 24.909C56.7971 25.0563 56.3377 25.13 55.8784 25.13ZM55.6444 19.618C55.1677 19.618 54.7821 19.7653 54.4874 20.06C54.1927 20.3547 54.0151 20.7533 53.9544 21.256H57.1524C57.1177 20.7273 56.9704 20.3243 56.7104 20.047C56.4591 19.761 56.1037 19.618 55.6444 19.618ZM63.7242 25V19.865H62.5022V18.643H63.7242V18.63C63.7242 17.7287 63.9582 17.0483 64.4262 16.589C64.9029 16.1297 65.6395 15.8697 66.6362 15.809L67.2732 15.77L67.3772 16.966L66.7792 17.005C66.2592 17.0397 65.8909 17.1697 65.6742 17.395C65.4575 17.6117 65.3492 17.9367 65.3492 18.37V18.643H67.0782V19.865H65.3492V25H63.7242ZM68.0305 25V18.643H69.6165V19.761C69.9285 19.007 70.5959 18.591 71.6185 18.513L72.1125 18.474L72.2165 19.852L71.2805 19.943C70.2145 20.047 69.6815 20.593 69.6815 21.581V25H68.0305ZM76.1528 25.13C75.4335 25.13 74.8138 24.9957 74.2938 24.727C73.7738 24.4583 73.3708 24.077 73.0848 23.583C72.8075 23.089 72.6688 22.504 72.6688 21.828C72.6688 21.1693 72.8031 20.593 73.0718 20.099C73.3491 19.605 73.7261 19.2193 74.2028 18.942C74.6881 18.656 75.2385 18.513 75.8538 18.513C76.7551 18.513 77.4658 18.799 77.9858 19.371C78.5145 19.943 78.7788 20.723 78.7788 21.711V22.192H74.2288C74.3501 23.3273 75.0001 23.895 76.1788 23.895C76.5341 23.895 76.8895 23.843 77.2448 23.739C77.6001 23.6263 77.9251 23.453 78.2198 23.219L78.6748 24.311C78.3715 24.5623 77.9901 24.7617 77.5308 24.909C77.0715 25.0563 76.6121 25.13 76.1528 25.13ZM75.9188 19.618C75.4421 19.618 75.0565 19.7653 74.7618 20.06C74.4671 20.3547 74.2895 20.7533 74.2288 21.256H77.4268C77.3921 20.7273 77.2448 20.3243 76.9848 20.047C76.7335 19.761 76.3781 19.618 75.9188 19.618ZM84.5507 27.34V24.038C84.3687 24.3673 84.0957 24.6317 83.7317 24.831C83.3677 25.0303 82.9604 25.13 82.5097 25.13C81.955 25.13 81.4654 24.9957 81.0407 24.727C80.6247 24.4583 80.2997 24.077 80.0657 23.583C79.8317 23.0803 79.7147 22.491 79.7147 21.815C79.7147 21.1303 79.8317 20.5453 80.0657 20.06C80.2997 19.566 80.6247 19.1847 81.0407 18.916C81.4654 18.6473 81.955 18.513 82.5097 18.513C82.9777 18.513 83.398 18.6213 83.7707 18.838C84.1434 19.046 84.4164 19.3277 84.5897 19.683V18.643H86.1757V27.34H84.5507ZM82.9647 23.895C83.45 23.895 83.84 23.7217 84.1347 23.375C84.4294 23.0197 84.5767 22.4997 84.5767 21.815C84.5767 21.1217 84.4294 20.606 84.1347 20.268C83.84 19.9213 83.45 19.748 82.9647 19.748C82.4794 19.748 82.0894 19.9213 81.7947 20.268C81.5 20.606 81.3527 21.1217 81.3527 21.815C81.3527 22.4997 81.5 23.0197 81.7947 23.375C82.0894 23.7217 82.4794 23.895 82.9647 23.895ZM90.1616 25.13C88.6016 25.13 87.8216 24.2547 87.8216 22.504V18.643H89.4466V22.53C89.4466 22.9807 89.5376 23.3143 89.7196 23.531C89.9016 23.7477 90.192 23.856 90.5906 23.856C91.024 23.856 91.3793 23.7087 91.6566 23.414C91.934 23.1107 92.0726 22.712 92.0726 22.218V18.643H93.6976V25H92.1116V24.051C91.687 24.7703 91.037 25.13 90.1616 25.13ZM98.5219 25.13C97.8026 25.13 97.1829 24.9957 96.6629 24.727C96.1429 24.4583 95.7399 24.077 95.4539 23.583C95.1766 23.089 95.0379 22.504 95.0379 21.828C95.0379 21.1693 95.1723 20.593 95.4409 20.099C95.7183 19.605 96.0953 19.2193 96.5719 18.942C97.0573 18.656 97.6076 18.513 98.2229 18.513C99.1243 18.513 99.8349 18.799 100.355 19.371C100.884 19.943 101.148 20.723 101.148 21.711V22.192H96.5979C96.7193 23.3273 97.3693 23.895 98.5479 23.895C98.9033 23.895 99.2586 23.843 99.6139 23.739C99.9693 23.6263 100.294 23.453 100.589 23.219L101.044 24.311C100.741 24.5623 100.359 24.7617 99.8999 24.909C99.4406 25.0563 98.9813 25.13 98.5219 25.13ZM98.2879 19.618C97.8113 19.618 97.4256 19.7653 97.1309 20.06C96.8363 20.3547 96.6586 20.7533 96.5979 21.256H99.7959C99.7613 20.7273 99.6139 20.3243 99.3539 20.047C99.1026 19.761 98.7473 19.618 98.2879 19.618ZM102.435 25V18.643H104.021V19.631C104.238 19.267 104.528 18.9897 104.892 18.799C105.265 18.6083 105.681 18.513 106.14 18.513C107.639 18.513 108.389 19.384 108.389 21.126V25H106.764V21.204C106.764 20.71 106.669 20.3503 106.478 20.125C106.296 19.8997 106.01 19.787 105.62 19.787C105.143 19.787 104.762 19.9387 104.476 20.242C104.199 20.5367 104.06 20.931 104.06 21.425V25H102.435ZM112.977 25.13C112.31 25.13 111.729 24.9957 111.235 24.727C110.741 24.4497 110.36 24.0597 110.091 23.557C109.823 23.0543 109.688 22.465 109.688 21.789C109.688 21.113 109.823 20.5323 110.091 20.047C110.36 19.553 110.741 19.176 111.235 18.916C111.729 18.6473 112.31 18.513 112.977 18.513C113.385 18.513 113.788 18.578 114.186 18.708C114.585 18.838 114.914 19.02 115.174 19.254L114.693 20.385C114.468 20.1857 114.212 20.034 113.926 19.93C113.649 19.826 113.38 19.774 113.12 19.774C112.557 19.774 112.119 19.9517 111.807 20.307C111.504 20.6537 111.352 21.152 111.352 21.802C111.352 22.4433 111.504 22.9503 111.807 23.323C112.119 23.687 112.557 23.869 113.12 23.869C113.372 23.869 113.64 23.817 113.926 23.713C114.212 23.609 114.468 23.453 114.693 23.245L115.174 24.389C114.914 24.6143 114.581 24.7963 114.173 24.935C113.775 25.065 113.376 25.13 112.977 25.13ZM116.845 27.34L118.015 24.74L115.376 18.643H117.105L118.886 23.089L120.706 18.643H122.344L118.522 27.34H116.845Z" fill="#2E3438"/>
<rect width="505" height="180" transform="translate(1 42)" fill="url(#paint0_linear_244_16902)"/>
<rect x="169" y="42" width="1" height="180" fill="black" fill-opacity="0.1"/>
<rect x="337" y="42" width="1" height="180" fill="black" fill-opacity="0.1"/>
<rect x="43" y="42" width="1" height="180" fill="black" fill-opacity="0.1"/>
<rect x="211" y="42" width="1" height="180" fill="black" fill-opacity="0.1"/>
<rect x="379" y="42" width="1" height="180" fill="black" fill-opacity="0.1"/>
<rect x="85" y="42" width="1" height="180" fill="black" fill-opacity="0.1"/>
<rect x="253" y="42" width="1" height="180" fill="black" fill-opacity="0.1"/>
<rect x="421" y="42" width="1" height="180" fill="black" fill-opacity="0.1"/>
<rect x="127" y="42" width="1" height="180" fill="black" fill-opacity="0.1"/>
<rect x="295" y="42" width="1" height="180" fill="black" fill-opacity="0.1"/>
<rect x="463" y="42" width="1" height="180" fill="black" fill-opacity="0.1"/>
<rect x="22" y="42" width="1" height="180" fill="black" fill-opacity="0.1"/>
<rect x="190" y="42" width="1" height="180" fill="black" fill-opacity="0.1"/>
<rect x="358" y="42" width="1" height="180" fill="black" fill-opacity="0.1"/>
<rect x="64" y="42" width="1" height="180" fill="black" fill-opacity="0.1"/>
<rect x="232" y="42" width="1" height="180" fill="black" fill-opacity="0.1"/>
<rect x="400" y="42" width="1" height="180" fill="black" fill-opacity="0.1"/>
<rect x="106" y="42" width="1" height="180" fill="black" fill-opacity="0.1"/>
<rect x="274" y="42" width="1" height="180" fill="black" fill-opacity="0.1"/>
<rect x="442" y="42" width="1" height="180" fill="black" fill-opacity="0.1"/>
<rect x="148" y="42" width="1" height="180" fill="black" fill-opacity="0.1"/>
<rect x="316" y="42" width="1" height="180" fill="black" fill-opacity="0.1"/>
<rect x="484" y="42" width="1" height="180" fill="black" fill-opacity="0.1"/>
<circle cx="22.6033" cy="191.162" r="3.11302" fill="#CBDFDC"/>
<circle cx="273.98" cy="169.37" r="3.11302" fill="#CBDFDC"/>
<circle cx="211.718" cy="147.579" r="3.11302" fill="#CBDFDC"/>
<circle cx="168.915" cy="125.788" r="3.11302" fill="#CBDFDC"/>
<circle cx="211.718" cy="82.2049" r="3.11302" fill="#CBDFDC"/>
<circle cx="85.6423" cy="82.2049" r="3.11302" fill="#CBDFDC"/>
<circle cx="232.732" cy="60.4149" r="3.11302" fill="#CBDFDC"/>
<circle cx="43.616" cy="191.162" r="3.11302" fill="#CBDFDC"/>
<circle cx="294.992" cy="169.37" r="3.11302" fill="#CBDFDC"/>
<circle cx="379.045" cy="169.37" r="3.11302" fill="#CBDFDC"/>
<circle cx="232.732" cy="147.579" r="3.11302" fill="#CBDFDC"/>
<circle cx="379.045" cy="125.788" r="3.11302" fill="#CBDFDC"/>
<circle cx="400.836" cy="103.996" r="3.11302" fill="#CBDFDC"/>
<circle cx="421.849" cy="82.2049" r="3.11302" fill="#CBDFDC"/>
<circle cx="442.861" cy="60.4149" r="3.11302" fill="#CBDFDC"/>
<circle cx="189.928" cy="125.788" r="3.11302" fill="#CBDFDC"/>
<circle cx="232.732" cy="82.2049" r="3.11302" fill="#CBDFDC"/>
<circle cx="252.968" cy="60.4149" r="3.11302" fill="#CBDFDC"/>
<circle cx="189.928" cy="103.996" r="3.11302" fill="#CBDFDC"/>
<circle cx="43.616" cy="125.788" r="3.11302" fill="#CBDFDC"/>
<circle cx="64.6296" cy="103.996" r="3.11302" fill="#CBDFDC"/>
<circle cx="65.4079" cy="191.162" r="3.11302" fill="#CBDFDC"/>
<circle cx="316.784" cy="169.37" r="3.11302" fill="#37D5D3"/>
<circle cx="316.784" cy="191.162" r="3.11302" fill="#37D5D3"/>
<circle cx="400.836" cy="169.37" r="3.11302" fill="#CBDFDC"/>
<circle cx="252.968" cy="147.579" r="3.11302" fill="#CBDFDC"/>
<circle cx="400.836" cy="125.788" r="3.11302" fill="#CBDFDC"/>
<circle cx="421.849" cy="103.996" r="3.11302" fill="#CBDFDC"/>
<circle cx="442.861" cy="82.2049" r="3.11302" fill="#CBDFDC"/>
<circle cx="463.875" cy="60.4149" r="3.11302" fill="#CBDFDC"/>
<circle cx="211.718" cy="125.788" r="3.11302" fill="#CBDFDC"/>
<circle cx="252.968" cy="82.2049" r="3.11302" fill="#CBDFDC"/>
<circle cx="273.98" cy="60.4149" r="3.11302" fill="#CBDFDC"/>
<circle cx="211.718" cy="103.996" r="3.11302" fill="#CBDFDC"/>
<circle cx="358.81" cy="191.162" r="3.11302" fill="#CBDFDC"/>
<circle cx="379.045" cy="191.162" r="3.11302" fill="#CBDFDC"/>
<circle cx="484.887" cy="191.162" r="3.11302" fill="#CBDFDC"/>
<circle cx="421.849" cy="191.162" r="5.44779" fill="#CBDFDC"/>
<circle cx="379.044" cy="147.579" r="5.44779" fill="#CBDFDC"/>
<circle cx="358.81" cy="125.788" r="4.66953" fill="#CBDFDC"/>
<circle cx="358.81" cy="103.997" r="4.66953" fill="#CBDFDC"/>
<circle cx="400.836" cy="60.4148" r="4.66953" fill="#CBDFDC"/>
<circle cx="379.045" cy="103.997" r="4.66953" fill="#CBDFDC"/>
<circle cx="379.045" cy="82.2057" r="4.66953" fill="#CBDFDC"/>
<circle cx="400.836" cy="82.2058" r="4.66953" fill="#CBDFDC"/>
<circle cx="421.848" cy="60.4148" r="4.66953" fill="#CBDFDC"/>
<circle cx="358.81" cy="147.579" r="5.44779" fill="#CBDFDC"/>
<circle cx="337.796" cy="147.579" r="5.44779" fill="#37D5D3"/>
<circle cx="337.797" cy="191.161" r="3.89128" fill="#37D5D3"/>
<circle cx="316.783" cy="147.579" r="8.56081" fill="#37D5D3"/>
<circle cx="294.993" cy="147.579" r="7.78256" fill="#CBDFDC"/>
<circle cx="273.98" cy="125.788" r="7.78256" fill="#CBDFDC"/>
<circle cx="294.993" cy="103.997" r="7.78256" fill="#CBDFDC"/>
<circle cx="316.783" cy="103.997" r="8.56081" fill="#37D5D3"/>
<circle cx="358.81" cy="60.4145" r="7.78256" fill="#CBDFDC"/>
<circle cx="294.993" cy="125.788" r="7.78256" fill="#CBDFDC"/>
<circle cx="273.98" cy="147.579" r="6.22605" fill="#CBDFDC"/>
<circle cx="252.967" cy="125.789" r="7.0043" fill="#CBDFDC"/>
<circle cx="337.797" cy="169.37" r="7.0043" fill="#37D5D3"/>
<circle cx="273.98" cy="103.997" r="7.0043" fill="#CBDFDC"/>
<circle cx="316.786" cy="60.4146" r="7.0043" fill="#37D5D3"/>
<circle cx="294.994" cy="82.2054" r="7.0043" fill="#CBDFDC"/>
<circle cx="316.784" cy="82.2055" r="7.78256" fill="#37D5D3"/>
<circle cx="337.797" cy="82.2055" r="7.78256" fill="#37D5D3"/>
<circle cx="294.994" cy="60.4137" r="6.22605" fill="#CBDFDC"/>
<circle cx="273.98" cy="82.2066" r="6.22605" fill="#CBDFDC"/>
<circle cx="232.733" cy="125.788" r="6.22605" fill="#CBDFDC"/>
<circle cx="252.966" cy="103.997" r="6.22605" fill="#CBDFDC"/>
<circle cx="316.784" cy="125.788" r="6.22605" fill="#37D5D3"/>
<circle cx="337.796" cy="125.788" r="6.22605" fill="#37D5D3"/>
<circle cx="337.796" cy="103.997" r="5.44779" fill="#37D5D3"/>
<circle cx="337.796" cy="60.4137" r="6.22605" fill="#37D5D3"/>
<circle cx="379.044" cy="60.4147" r="5.44779" fill="#CBDFDC"/>
<circle cx="358.81" cy="82.2057" r="5.44779" fill="#CBDFDC"/>
<circle cx="400.836" cy="147.579" r="4.66953" fill="#CBDFDC"/>
<circle cx="442.862" cy="191.162" r="4.66953" fill="#CBDFDC"/>
<circle cx="463.874" cy="191.162" r="4.66953" fill="#CBDFDC"/>
<rect x="305" y="42" width="1" height="182" fill="#FF4400" fill-opacity="0.7"/>
<rect x="347" y="42" width="1" height="182" fill="#FF4400" fill-opacity="0.7"/>
<rect x="1" y="222" width="505" height="2" fill="black" fill-opacity="0.1"/>
<rect x="1" y="41" width="505" height="1" fill="black" fill-opacity="0.1"/>
<path d="M19 245.12C18.1667 245.12 17.5567 244.803 17.17 244.17C16.79 243.537 16.6 242.65 16.6 241.51C16.6 240.37 16.79 239.483 17.17 238.85C17.5567 238.217 18.1667 237.9 19 237.9C19.8333 237.9 20.44 238.217 20.82 238.85C21.2067 239.483 21.4 240.37 21.4 241.51C21.4 242.65 21.2067 243.537 20.82 244.17C20.44 244.803 19.8333 245.12 19 245.12ZM19 244.39C19.2733 244.39 19.5067 244.333 19.7 244.22C19.8933 244.107 20.05 243.947 20.17 243.74C20.29 243.533 20.3767 243.29 20.43 243.01C20.49 242.73 20.52 242.42 20.52 242.08V240.94C20.52 240.6 20.49 240.29 20.43 240.01C20.3767 239.73 20.29 239.487 20.17 239.28C20.05 239.073 19.8933 238.913 19.7 238.8C19.5067 238.687 19.2733 238.63 19 238.63C18.7267 238.63 18.4933 238.687 18.3 238.8C18.1067 238.913 17.95 239.073 17.83 239.28C17.71 239.487 17.62 239.73 17.56 240.01C17.5067 240.29 17.48 240.6 17.48 240.94V242.08C17.48 242.42 17.5067 242.73 17.56 243.01C17.62 243.29 17.71 243.533 17.83 243.74C17.95 243.947 18.1067 244.107 18.3 244.22C18.4933 244.333 18.7267 244.39 19 244.39ZM23.4561 245.12C23.2428 245.12 23.0861 245.067 22.9861 244.96C22.8928 244.853 22.8461 244.713 22.8461 244.54V244.41C22.8461 244.237 22.8928 244.097 22.9861 243.99C23.0861 243.883 23.2428 243.83 23.4561 243.83C23.6694 243.83 23.8228 243.883 23.9161 243.99C24.0161 244.097 24.0661 244.237 24.0661 244.41V244.54C24.0661 244.713 24.0161 244.853 23.9161 244.96C23.8228 245.067 23.6694 245.12 23.4561 245.12ZM23.4561 241.01C23.2428 241.01 23.0861 240.957 22.9861 240.85C22.8928 240.743 22.8461 240.603 22.8461 240.43V240.3C22.8461 240.127 22.8928 239.987 22.9861 239.88C23.0861 239.773 23.2428 239.72 23.4561 239.72C23.6694 239.72 23.8228 239.773 23.9161 239.88C24.0161 239.987 24.0661 240.127 24.0661 240.3V240.43C24.0661 240.603 24.0161 240.743 23.9161 240.85C23.8228 240.957 23.6694 241.01 23.4561 241.01ZM27.916 245.12C27.0827 245.12 26.4727 244.803 26.086 244.17C25.706 243.537 25.516 242.65 25.516 241.51C25.516 240.37 25.706 239.483 26.086 238.85C26.4727 238.217 27.0827 237.9 27.916 237.9C28.7493 237.9 29.356 238.217 29.736 238.85C30.1227 239.483 30.316 240.37 30.316 241.51C30.316 242.65 30.1227 243.537 29.736 244.17C29.356 244.803 28.7493 245.12 27.916 245.12ZM27.916 244.39C28.1893 244.39 28.4227 244.333 28.616 244.22C28.8093 244.107 28.966 243.947 29.086 243.74C29.206 243.533 29.2927 243.29 29.346 243.01C29.406 242.73 29.436 242.42 29.436 242.08V240.94C29.436 240.6 29.406 240.29 29.346 240.01C29.2927 239.73 29.206 239.487 29.086 239.28C28.966 239.073 28.8093 238.913 28.616 238.8C28.4227 238.687 28.1893 238.63 27.916 238.63C27.6427 238.63 27.4093 238.687 27.216 238.8C27.0227 238.913 26.866 239.073 26.746 239.28C26.626 239.487 26.536 239.73 26.476 240.01C26.4227 240.29 26.396 240.6 26.396 240.94V242.08C26.396 242.42 26.4227 242.73 26.476 243.01C26.536 243.29 26.626 243.533 26.746 243.74C26.866 243.947 27.0227 244.107 27.216 244.22C27.4093 244.333 27.6427 244.39 27.916 244.39ZM33.9121 245.12C33.0788 245.12 32.4688 244.803 32.0821 244.17C31.7021 243.537 31.5121 242.65 31.5121 241.51C31.5121 240.37 31.7021 239.483 32.0821 238.85C32.4688 238.217 33.0788 237.9 33.9121 237.9C34.7454 237.9 35.3521 238.217 35.7321 238.85C36.1188 239.483 36.3121 240.37 36.3121 241.51C36.3121 242.65 36.1188 243.537 35.7321 244.17C35.3521 244.803 34.7454 245.12 33.9121 245.12ZM33.9121 244.39C34.1854 244.39 34.4188 244.333 34.6121 244.22C34.8054 244.107 34.9621 243.947 35.0821 243.74C35.2021 243.533 35.2888 243.29 35.3421 243.01C35.4021 242.73 35.4321 242.42 35.4321 242.08V240.94C35.4321 240.6 35.4021 240.29 35.3421 240.01C35.2888 239.73 35.2021 239.487 35.0821 239.28C34.9621 239.073 34.8054 238.913 34.6121 238.8C34.4188 238.687 34.1854 238.63 33.9121 238.63C33.6388 238.63 33.4054 238.687 33.2121 238.8C33.0188 238.913 32.8621 239.073 32.7421 239.28C32.6221 239.487 32.5321 239.73 32.4721 240.01C32.4188 240.29 32.3921 240.6 32.3921 240.94V242.08C32.3921 242.42 32.4188 242.73 32.4721 243.01C32.5321 243.29 32.6221 243.533 32.7421 243.74C32.8621 243.947 33.0188 244.107 33.2121 244.22C33.4054 244.333 33.6388 244.39 33.9121 244.39Z" fill="#73828C"/>
<path d="M106.75 245V243.63H103.38V242.89L106.3 238.02H107.55V242.93H108.56V243.63H107.55V245H106.75ZM104.17 242.93H106.75V238.67H106.7L104.17 242.93ZM110.456 245.12C110.243 245.12 110.086 245.067 109.986 244.96C109.893 244.853 109.846 244.713 109.846 244.54V244.41C109.846 244.237 109.893 244.097 109.986 243.99C110.086 243.883 110.243 243.83 110.456 243.83C110.669 243.83 110.823 243.883 110.916 243.99C111.016 244.097 111.066 244.237 111.066 244.41V244.54C111.066 244.713 111.016 244.853 110.916 244.96C110.823 245.067 110.669 245.12 110.456 245.12ZM110.456 241.01C110.243 241.01 110.086 240.957 109.986 240.85C109.893 240.743 109.846 240.603 109.846 240.43V240.3C109.846 240.127 109.893 239.987 109.986 239.88C110.086 239.773 110.243 239.72 110.456 239.72C110.669 239.72 110.823 239.773 110.916 239.88C111.016 239.987 111.066 240.127 111.066 240.3V240.43C111.066 240.603 111.016 240.743 110.916 240.85C110.823 240.957 110.669 241.01 110.456 241.01ZM114.916 245.12C114.083 245.12 113.473 244.803 113.086 244.17C112.706 243.537 112.516 242.65 112.516 241.51C112.516 240.37 112.706 239.483 113.086 238.85C113.473 238.217 114.083 237.9 114.916 237.9C115.749 237.9 116.356 238.217 116.736 238.85C117.123 239.483 117.316 240.37 117.316 241.51C117.316 242.65 117.123 243.537 116.736 244.17C116.356 244.803 115.749 245.12 114.916 245.12ZM114.916 244.39C115.189 244.39 115.423 244.333 115.616 244.22C115.809 244.107 115.966 243.947 116.086 243.74C116.206 243.533 116.293 243.29 116.346 243.01C116.406 242.73 116.436 242.42 116.436 242.08V240.94C116.436 240.6 116.406 240.29 116.346 240.01C116.293 239.73 116.206 239.487 116.086 239.28C115.966 239.073 115.809 238.913 115.616 238.8C115.423 238.687 115.189 238.63 114.916 238.63C114.643 238.63 114.409 238.687 114.216 238.8C114.023 238.913 113.866 239.073 113.746 239.28C113.626 239.487 113.536 239.73 113.476 240.01C113.423 240.29 113.396 240.6 113.396 240.94V242.08C113.396 242.42 113.423 242.73 113.476 243.01C113.536 243.29 113.626 243.533 113.746 243.74C113.866 243.947 114.023 244.107 114.216 244.22C114.409 244.333 114.643 244.39 114.916 244.39ZM120.912 245.12C120.079 245.12 119.469 244.803 119.082 244.17C118.702 243.537 118.512 242.65 118.512 241.51C118.512 240.37 118.702 239.483 119.082 238.85C119.469 238.217 120.079 237.9 120.912 237.9C121.745 237.9 122.352 238.217 122.732 238.85C123.119 239.483 123.312 240.37 123.312 241.51C123.312 242.65 123.119 243.537 122.732 244.17C122.352 244.803 121.745 245.12 120.912 245.12ZM120.912 244.39C121.185 244.39 121.419 244.333 121.612 244.22C121.805 244.107 121.962 243.947 122.082 243.74C122.202 243.533 122.289 243.29 122.342 243.01C122.402 242.73 122.432 242.42 122.432 242.08V240.94C122.432 240.6 122.402 240.29 122.342 240.01C122.289 239.73 122.202 239.487 122.082 239.28C121.962 239.073 121.805 238.913 121.612 238.8C121.419 238.687 121.185 238.63 120.912 238.63C120.639 238.63 120.405 238.687 120.212 238.8C120.019 238.913 119.862 239.073 119.742 239.28C119.622 239.487 119.532 239.73 119.472 240.01C119.419 240.29 119.392 240.6 119.392 240.94V242.08C119.392 242.42 119.419 242.73 119.472 243.01C119.532 243.29 119.622 243.533 119.742 243.74C119.862 243.947 120.019 244.107 120.212 244.22C120.405 244.333 120.639 244.39 120.912 244.39Z" fill="#73828C"/>
<path d="M193 245.12C192.6 245.12 192.25 245.07 191.95 244.97C191.65 244.863 191.397 244.72 191.19 244.54C190.99 244.36 190.837 244.147 190.73 243.9C190.63 243.653 190.58 243.387 190.58 243.1C190.58 242.62 190.71 242.24 190.97 241.96C191.23 241.68 191.57 241.483 191.99 241.37V241.29C191.623 241.163 191.33 240.96 191.11 240.68C190.897 240.393 190.79 240.05 190.79 239.65C190.79 239.117 190.983 238.693 191.37 238.38C191.757 238.06 192.3 237.9 193 237.9C193.7 237.9 194.243 238.06 194.63 238.38C195.017 238.693 195.21 239.117 195.21 239.65C195.21 240.05 195.1 240.393 194.88 240.68C194.667 240.96 194.377 241.163 194.01 241.29V241.37C194.43 241.483 194.77 241.68 195.03 241.96C195.29 242.24 195.42 242.62 195.42 243.1C195.42 243.387 195.367 243.653 195.26 243.9C195.16 244.147 195.007 244.36 194.8 244.54C194.6 244.72 194.35 244.863 194.05 244.97C193.75 245.07 193.4 245.12 193 245.12ZM193 244.39C193.487 244.39 193.863 244.283 194.13 244.07C194.397 243.85 194.53 243.54 194.53 243.14V242.93C194.53 242.53 194.397 242.223 194.13 242.01C193.863 241.79 193.487 241.68 193 241.68C192.513 241.68 192.137 241.79 191.87 242.01C191.603 242.223 191.47 242.53 191.47 242.93V243.14C191.47 243.54 191.603 243.85 191.87 244.07C192.137 244.283 192.513 244.39 193 244.39ZM193 240.98C193.44 240.98 193.773 240.887 194 240.7C194.227 240.513 194.34 240.24 194.34 239.88V239.73C194.34 239.37 194.227 239.097 194 238.91C193.773 238.723 193.44 238.63 193 238.63C192.56 238.63 192.227 238.723 192 238.91C191.773 239.097 191.66 239.37 191.66 239.73V239.88C191.66 240.24 191.773 240.513 192 240.7C192.227 240.887 192.56 240.98 193 240.98ZM197.456 245.12C197.243 245.12 197.086 245.067 196.986 244.96C196.893 244.853 196.846 244.713 196.846 244.54V244.41C196.846 244.237 196.893 244.097 196.986 243.99C197.086 243.883 197.243 243.83 197.456 243.83C197.669 243.83 197.823 243.883 197.916 243.99C198.016 244.097 198.066 244.237 198.066 244.41V244.54C198.066 244.713 198.016 244.853 197.916 244.96C197.823 245.067 197.669 245.12 197.456 245.12ZM197.456 241.01C197.243 241.01 197.086 240.957 196.986 240.85C196.893 240.743 196.846 240.603 196.846 240.43V240.3C196.846 240.127 196.893 239.987 196.986 239.88C197.086 239.773 197.243 239.72 197.456 239.72C197.669 239.72 197.823 239.773 197.916 239.88C198.016 239.987 198.066 240.127 198.066 240.3V240.43C198.066 240.603 198.016 240.743 197.916 240.85C197.823 240.957 197.669 241.01 197.456 241.01ZM201.916 245.12C201.083 245.12 200.473 244.803 200.086 244.17C199.706 243.537 199.516 242.65 199.516 241.51C199.516 240.37 199.706 239.483 200.086 238.85C200.473 238.217 201.083 237.9 201.916 237.9C202.749 237.9 203.356 238.217 203.736 238.85C204.123 239.483 204.316 240.37 204.316 241.51C204.316 242.65 204.123 243.537 203.736 244.17C203.356 244.803 202.749 245.12 201.916 245.12ZM201.916 244.39C202.189 244.39 202.423 244.333 202.616 244.22C202.809 244.107 202.966 243.947 203.086 243.74C203.206 243.533 203.293 243.29 203.346 243.01C203.406 242.73 203.436 242.42 203.436 242.08V240.94C203.436 240.6 203.406 240.29 203.346 240.01C203.293 239.73 203.206 239.487 203.086 239.28C202.966 239.073 202.809 238.913 202.616 238.8C202.423 238.687 202.189 238.63 201.916 238.63C201.643 238.63 201.409 238.687 201.216 238.8C201.023 238.913 200.866 239.073 200.746 239.28C200.626 239.487 200.536 239.73 200.476 240.01C200.423 240.29 200.396 240.6 200.396 240.94V242.08C200.396 242.42 200.423 242.73 200.476 243.01C200.536 243.29 200.626 243.533 200.746 243.74C200.866 243.947 201.023 244.107 201.216 244.22C201.409 244.333 201.643 244.39 201.916 244.39ZM207.912 245.12C207.079 245.12 206.469 244.803 206.082 244.17C205.702 243.537 205.512 242.65 205.512 241.51C205.512 240.37 205.702 239.483 206.082 238.85C206.469 238.217 207.079 237.9 207.912 237.9C208.745 237.9 209.352 238.217 209.732 238.85C210.119 239.483 210.312 240.37 210.312 241.51C210.312 242.65 210.119 243.537 209.732 244.17C209.352 244.803 208.745 245.12 207.912 245.12ZM207.912 244.39C208.185 244.39 208.419 244.333 208.612 244.22C208.805 244.107 208.962 243.947 209.082 243.74C209.202 243.533 209.289 243.29 209.342 243.01C209.402 242.73 209.432 242.42 209.432 242.08V240.94C209.432 240.6 209.402 240.29 209.342 240.01C209.289 239.73 209.202 239.487 209.082 239.28C208.962 239.073 208.805 238.913 208.612 238.8C208.419 238.687 208.185 238.63 207.912 238.63C207.639 238.63 207.405 238.687 207.212 238.8C207.019 238.913 206.862 239.073 206.742 239.28C206.622 239.487 206.532 239.73 206.472 240.01C206.419 240.29 206.392 240.6 206.392 240.94V242.08C206.392 242.42 206.419 242.73 206.472 243.01C206.532 243.29 206.622 243.533 206.742 243.74C206.862 243.947 207.019 244.107 207.212 244.22C207.405 244.333 207.639 244.39 207.912 244.39Z" fill="#73828C"/>
<path d="M277.88 245V244.26H279.83V238.64H279.76L278 240.28L277.51 239.75L279.36 238.02H280.67V244.26H282.47V245H277.88ZM288.326 245H283.746V244.14L286.026 242.04C286.353 241.74 286.626 241.423 286.846 241.09C287.066 240.75 287.176 240.41 287.176 240.07V239.95C287.176 239.563 287.069 239.25 286.856 239.01C286.643 238.77 286.319 238.65 285.886 238.65C285.673 238.65 285.486 238.68 285.326 238.74C285.166 238.8 285.026 238.883 284.906 238.99C284.793 239.097 284.696 239.223 284.616 239.37C284.543 239.51 284.483 239.663 284.436 239.83L283.686 239.54C283.753 239.333 283.843 239.133 283.956 238.94C284.076 238.74 284.223 238.563 284.396 238.41C284.576 238.257 284.789 238.133 285.036 238.04C285.289 237.947 285.586 237.9 285.926 237.9C286.266 237.9 286.569 237.95 286.836 238.05C287.103 238.15 287.326 238.29 287.506 238.47C287.686 238.65 287.823 238.863 287.916 239.11C288.016 239.357 288.066 239.63 288.066 239.93C288.066 240.203 288.026 240.457 287.946 240.69C287.873 240.923 287.769 241.147 287.636 241.36C287.503 241.567 287.339 241.77 287.146 241.97C286.959 242.17 286.756 242.37 286.536 242.57L284.656 244.26H288.326V245ZM290.452 245.12C290.239 245.12 290.082 245.067 289.982 244.96C289.889 244.853 289.842 244.713 289.842 244.54V244.41C289.842 244.237 289.889 244.097 289.982 243.99C290.082 243.883 290.239 243.83 290.452 243.83C290.666 243.83 290.819 243.883 290.912 243.99C291.012 244.097 291.062 244.237 291.062 244.41V244.54C291.062 244.713 291.012 244.853 290.912 244.96C290.819 245.067 290.666 245.12 290.452 245.12ZM290.452 241.01C290.239 241.01 290.082 240.957 289.982 240.85C289.889 240.743 289.842 240.603 289.842 240.43V240.3C289.842 240.127 289.889 239.987 289.982 239.88C290.082 239.773 290.239 239.72 290.452 239.72C290.666 239.72 290.819 239.773 290.912 239.88C291.012 239.987 291.062 240.127 291.062 240.3V240.43C291.062 240.603 291.012 240.743 290.912 240.85C290.819 240.957 290.666 241.01 290.452 241.01ZM294.912 245.12C294.079 245.12 293.469 244.803 293.082 244.17C292.702 243.537 292.512 242.65 292.512 241.51C292.512 240.37 292.702 239.483 293.082 238.85C293.469 238.217 294.079 237.9 294.912 237.9C295.745 237.9 296.352 238.217 296.732 238.85C297.119 239.483 297.312 240.37 297.312 241.51C297.312 242.65 297.119 243.537 296.732 244.17C296.352 244.803 295.745 245.12 294.912 245.12ZM294.912 244.39C295.185 244.39 295.419 244.333 295.612 244.22C295.805 244.107 295.962 243.947 296.082 243.74C296.202 243.533 296.289 243.29 296.342 243.01C296.402 242.73 296.432 242.42 296.432 242.08V240.94C296.432 240.6 296.402 240.29 296.342 240.01C296.289 239.73 296.202 239.487 296.082 239.28C295.962 239.073 295.805 238.913 295.612 238.8C295.419 238.687 295.185 238.63 294.912 238.63C294.639 238.63 294.405 238.687 294.212 238.8C294.019 238.913 293.862 239.073 293.742 239.28C293.622 239.487 293.532 239.73 293.472 240.01C293.419 240.29 293.392 240.6 293.392 240.94V242.08C293.392 242.42 293.419 242.73 293.472 243.01C293.532 243.29 293.622 243.533 293.742 243.74C293.862 243.947 294.019 244.107 294.212 244.22C294.405 244.333 294.639 244.39 294.912 244.39ZM300.908 245.12C300.075 245.12 299.465 244.803 299.078 244.17C298.698 243.537 298.508 242.65 298.508 241.51C298.508 240.37 298.698 239.483 299.078 238.85C299.465 238.217 300.075 237.9 300.908 237.9C301.742 237.9 302.348 238.217 302.728 238.85C303.115 239.483 303.308 240.37 303.308 241.51C303.308 242.65 303.115 243.537 302.728 244.17C302.348 244.803 301.742 245.12 300.908 245.12ZM300.908 244.39C301.182 244.39 301.415 244.333 301.608 244.22C301.802 244.107 301.958 243.947 302.078 243.74C302.198 243.533 302.285 243.29 302.338 243.01C302.398 242.73 302.428 242.42 302.428 242.08V240.94C302.428 240.6 302.398 240.29 302.338 240.01C302.285 239.73 302.198 239.487 302.078 239.28C301.958 239.073 301.802 238.913 301.608 238.8C301.415 238.687 301.182 238.63 300.908 238.63C300.635 238.63 300.402 238.687 300.208 238.8C300.015 238.913 299.858 239.073 299.738 239.28C299.618 239.487 299.528 239.73 299.468 240.01C299.415 240.29 299.388 240.6 299.388 240.94V242.08C299.388 242.42 299.415 242.73 299.468 243.01C299.528 243.29 299.618 243.533 299.738 243.74C299.858 243.947 300.015 244.107 300.208 244.22C300.402 244.333 300.635 244.39 300.908 244.39Z" fill="#73828C"/>
<path d="M370.88 245V244.26H372.83V238.64H372.76L371 240.28L370.51 239.75L372.36 238.02H373.67V244.26H375.47V245H370.88ZM379.006 245.12C378.646 245.12 378.319 245.06 378.026 244.94C377.739 244.813 377.493 244.637 377.286 244.41C377.086 244.177 376.933 243.893 376.826 243.56C376.719 243.227 376.666 242.853 376.666 242.44C376.666 241.92 376.743 241.433 376.896 240.98C377.049 240.52 377.246 240.103 377.486 239.73C377.733 239.35 378.003 239.017 378.296 238.73C378.589 238.437 378.876 238.2 379.156 238.02H380.236C379.863 238.293 379.529 238.56 379.236 238.82C378.943 239.08 378.686 239.353 378.466 239.64C378.246 239.92 378.059 240.223 377.906 240.55C377.753 240.87 377.629 241.233 377.536 241.64L377.586 241.66C377.753 241.373 377.966 241.137 378.226 240.95C378.493 240.757 378.839 240.66 379.266 240.66C379.566 240.66 379.843 240.71 380.096 240.81C380.349 240.91 380.566 241.053 380.746 241.24C380.926 241.427 381.066 241.653 381.166 241.92C381.273 242.187 381.326 242.483 381.326 242.81C381.326 243.15 381.269 243.463 381.156 243.75C381.049 244.03 380.893 244.273 380.686 244.48C380.486 244.68 380.243 244.837 379.956 244.95C379.669 245.063 379.353 245.12 379.006 245.12ZM378.996 244.39C379.456 244.39 379.813 244.263 380.066 244.01C380.326 243.757 380.456 243.393 380.456 242.92V242.84C380.456 242.367 380.326 242.003 380.066 241.75C379.813 241.497 379.456 241.37 378.996 241.37C378.536 241.37 378.176 241.497 377.916 241.75C377.663 242.003 377.536 242.367 377.536 242.84V242.92C377.536 243.393 377.663 243.757 377.916 244.01C378.176 244.263 378.536 244.39 378.996 244.39ZM383.452 245.12C383.239 245.12 383.082 245.067 382.982 244.96C382.889 244.853 382.842 244.713 382.842 244.54V244.41C382.842 244.237 382.889 244.097 382.982 243.99C383.082 243.883 383.239 243.83 383.452 243.83C383.666 243.83 383.819 243.883 383.912 243.99C384.012 244.097 384.062 244.237 384.062 244.41V244.54C384.062 244.713 384.012 244.853 383.912 244.96C383.819 245.067 383.666 245.12 383.452 245.12ZM383.452 241.01C383.239 241.01 383.082 240.957 382.982 240.85C382.889 240.743 382.842 240.603 382.842 240.43V240.3C382.842 240.127 382.889 239.987 382.982 239.88C383.082 239.773 383.239 239.72 383.452 239.72C383.666 239.72 383.819 239.773 383.912 239.88C384.012 239.987 384.062 240.127 384.062 240.3V240.43C384.062 240.603 384.012 240.743 383.912 240.85C383.819 240.957 383.666 241.01 383.452 241.01ZM387.912 245.12C387.079 245.12 386.469 244.803 386.082 244.17C385.702 243.537 385.512 242.65 385.512 241.51C385.512 240.37 385.702 239.483 386.082 238.85C386.469 238.217 387.079 237.9 387.912 237.9C388.745 237.9 389.352 238.217 389.732 238.85C390.119 239.483 390.312 240.37 390.312 241.51C390.312 242.65 390.119 243.537 389.732 244.17C389.352 244.803 388.745 245.12 387.912 245.12ZM387.912 244.39C388.185 244.39 388.419 244.333 388.612 244.22C388.805 244.107 388.962 243.947 389.082 243.74C389.202 243.533 389.289 243.29 389.342 243.01C389.402 242.73 389.432 242.42 389.432 242.08V240.94C389.432 240.6 389.402 240.29 389.342 240.01C389.289 239.73 389.202 239.487 389.082 239.28C388.962 239.073 388.805 238.913 388.612 238.8C388.419 238.687 388.185 238.63 387.912 238.63C387.639 238.63 387.405 238.687 387.212 238.8C387.019 238.913 386.862 239.073 386.742 239.28C386.622 239.487 386.532 239.73 386.472 240.01C386.419 240.29 386.392 240.6 386.392 240.94V242.08C386.392 242.42 386.419 242.73 386.472 243.01C386.532 243.29 386.622 243.533 386.742 243.74C386.862 243.947 387.019 244.107 387.212 244.22C387.405 244.333 387.639 244.39 387.912 244.39ZM393.908 245.12C393.075 245.12 392.465 244.803 392.078 244.17C391.698 243.537 391.508 242.65 391.508 241.51C391.508 240.37 391.698 239.483 392.078 238.85C392.465 238.217 393.075 237.9 393.908 237.9C394.742 237.9 395.348 238.217 395.728 238.85C396.115 239.483 396.308 240.37 396.308 241.51C396.308 242.65 396.115 243.537 395.728 244.17C395.348 244.803 394.742 245.12 393.908 245.12ZM393.908 244.39C394.182 244.39 394.415 244.333 394.608 244.22C394.802 244.107 394.958 243.947 395.078 243.74C395.198 243.533 395.285 243.29 395.338 243.01C395.398 242.73 395.428 242.42 395.428 242.08V240.94C395.428 240.6 395.398 240.29 395.338 240.01C395.285 239.73 395.198 239.487 395.078 239.28C394.958 239.073 394.802 238.913 394.608 238.8C394.415 238.687 394.182 238.63 393.908 238.63C393.635 238.63 393.402 238.687 393.208 238.8C393.015 238.913 392.858 239.073 392.738 239.28C392.618 239.487 392.528 239.73 392.468 240.01C392.415 240.29 392.388 240.6 392.388 240.94V242.08C392.388 242.42 392.415 242.73 392.468 243.01C392.528 243.29 392.618 243.533 392.738 243.74C392.858 243.947 393.015 244.107 393.208 244.22C393.402 244.333 393.635 244.39 393.908 244.39Z" fill="#73828C"/>
<path d="M468.33 245H463.75V244.14L466.03 242.04C466.357 241.74 466.63 241.423 466.85 241.09C467.07 240.75 467.18 240.41 467.18 240.07V239.95C467.18 239.563 467.073 239.25 466.86 239.01C466.647 238.77 466.323 238.65 465.89 238.65C465.677 238.65 465.49 238.68 465.33 238.74C465.17 238.8 465.03 238.883 464.91 238.99C464.797 239.097 464.7 239.223 464.62 239.37C464.547 239.51 464.487 239.663 464.44 239.83L463.69 239.54C463.757 239.333 463.847 239.133 463.96 238.94C464.08 238.74 464.227 238.563 464.4 238.41C464.58 238.257 464.793 238.133 465.04 238.04C465.293 237.947 465.59 237.9 465.93 237.9C466.27 237.9 466.573 237.95 466.84 238.05C467.107 238.15 467.33 238.29 467.51 238.47C467.69 238.65 467.827 238.863 467.92 239.11C468.02 239.357 468.07 239.63 468.07 239.93C468.07 240.203 468.03 240.457 467.95 240.69C467.877 240.923 467.773 241.147 467.64 241.36C467.507 241.567 467.343 241.77 467.15 241.97C466.963 242.17 466.76 242.37 466.54 242.57L464.66 244.26H468.33V245ZM471.996 245.12C471.163 245.12 470.553 244.803 470.166 244.17C469.786 243.537 469.596 242.65 469.596 241.51C469.596 240.37 469.786 239.483 470.166 238.85C470.553 238.217 471.163 237.9 471.996 237.9C472.829 237.9 473.436 238.217 473.816 238.85C474.203 239.483 474.396 240.37 474.396 241.51C474.396 242.65 474.203 243.537 473.816 244.17C473.436 244.803 472.829 245.12 471.996 245.12ZM471.996 244.39C472.269 244.39 472.503 244.333 472.696 244.22C472.889 244.107 473.046 243.947 473.166 243.74C473.286 243.533 473.373 243.29 473.426 243.01C473.486 242.73 473.516 242.42 473.516 242.08V240.94C473.516 240.6 473.486 240.29 473.426 240.01C473.373 239.73 473.286 239.487 473.166 239.28C473.046 239.073 472.889 238.913 472.696 238.8C472.503 238.687 472.269 238.63 471.996 238.63C471.723 238.63 471.489 238.687 471.296 238.8C471.103 238.913 470.946 239.073 470.826 239.28C470.706 239.487 470.616 239.73 470.556 240.01C470.503 240.29 470.476 240.6 470.476 240.94V242.08C470.476 242.42 470.503 242.73 470.556 243.01C470.616 243.29 470.706 243.533 470.826 243.74C470.946 243.947 471.103 244.107 471.296 244.22C471.489 244.333 471.723 244.39 471.996 244.39ZM476.452 245.12C476.239 245.12 476.082 245.067 475.982 244.96C475.889 244.853 475.842 244.713 475.842 244.54V244.41C475.842 244.237 475.889 244.097 475.982 243.99C476.082 243.883 476.239 243.83 476.452 243.83C476.666 243.83 476.819 243.883 476.912 243.99C477.012 244.097 477.062 244.237 477.062 244.41V244.54C477.062 244.713 477.012 244.853 476.912 244.96C476.819 245.067 476.666 245.12 476.452 245.12ZM476.452 241.01C476.239 241.01 476.082 240.957 475.982 240.85C475.889 240.743 475.842 240.603 475.842 240.43V240.3C475.842 240.127 475.889 239.987 475.982 239.88C476.082 239.773 476.239 239.72 476.452 239.72C476.666 239.72 476.819 239.773 476.912 239.88C477.012 239.987 477.062 240.127 477.062 240.3V240.43C477.062 240.603 477.012 240.743 476.912 240.85C476.819 240.957 476.666 241.01 476.452 241.01ZM480.912 245.12C480.079 245.12 479.469 244.803 479.082 244.17C478.702 243.537 478.512 242.65 478.512 241.51C478.512 240.37 478.702 239.483 479.082 238.85C479.469 238.217 480.079 237.9 480.912 237.9C481.745 237.9 482.352 238.217 482.732 238.85C483.119 239.483 483.312 240.37 483.312 241.51C483.312 242.65 483.119 243.537 482.732 244.17C482.352 244.803 481.745 245.12 480.912 245.12ZM480.912 244.39C481.185 244.39 481.419 244.333 481.612 244.22C481.805 244.107 481.962 243.947 482.082 243.74C482.202 243.533 482.289 243.29 482.342 243.01C482.402 242.73 482.432 242.42 482.432 242.08V240.94C482.432 240.6 482.402 240.29 482.342 240.01C482.289 239.73 482.202 239.487 482.082 239.28C481.962 239.073 481.805 238.913 481.612 238.8C481.419 238.687 481.185 238.63 480.912 238.63C480.639 238.63 480.405 238.687 480.212 238.8C480.019 238.913 479.862 239.073 479.742 239.28C479.622 239.487 479.532 239.73 479.472 240.01C479.419 240.29 479.392 240.6 479.392 240.94V242.08C479.392 242.42 479.419 242.73 479.472 243.01C479.532 243.29 479.622 243.533 479.742 243.74C479.862 243.947 480.019 244.107 480.212 244.22C480.405 244.333 480.639 244.39 480.912 244.39ZM486.908 245.12C486.075 245.12 485.465 244.803 485.078 244.17C484.698 243.537 484.508 242.65 484.508 241.51C484.508 240.37 484.698 239.483 485.078 238.85C485.465 238.217 486.075 237.9 486.908 237.9C487.742 237.9 488.348 238.217 488.728 238.85C489.115 239.483 489.308 240.37 489.308 241.51C489.308 242.65 489.115 243.537 488.728 244.17C488.348 244.803 487.742 245.12 486.908 245.12ZM486.908 244.39C487.182 244.39 487.415 244.333 487.608 244.22C487.802 244.107 487.958 243.947 488.078 243.74C488.198 243.533 488.285 243.29 488.338 243.01C488.398 242.73 488.428 242.42 488.428 242.08V240.94C488.428 240.6 488.398 240.29 488.338 240.01C488.285 239.73 488.198 239.487 488.078 239.28C487.958 239.073 487.802 238.913 487.608 238.8C487.415 238.687 487.182 238.63 486.908 238.63C486.635 238.63 486.402 238.687 486.208 238.8C486.015 238.913 485.858 239.073 485.738 239.28C485.618 239.487 485.528 239.73 485.468 240.01C485.415 240.29 485.388 240.6 485.388 240.94V242.08C485.388 242.42 485.415 242.73 485.468 243.01C485.528 243.29 485.618 243.533 485.738 243.74C485.858 243.947 486.015 244.107 486.208 244.22C486.402 244.333 486.635 244.39 486.908 244.39Z" fill="#73828C"/>
<g filter="url(#filter0_d_244_16902)">
<circle cx="305" cy="224" r="8" fill="white"/>
<circle cx="305" cy="224" r="8" stroke="black" stroke-opacity="0.1"/>
</g>
<rect x="303" y="220" width="1" height="8" rx="0.5" fill="#CCCCCC"/>
<rect x="306" y="220" width="1" height="8" rx="0.5" fill="#CCCCCC"/>
<g filter="url(#filter1_d_244_16902)">
<circle cx="348" cy="224" r="8" fill="white"/>
<circle cx="348" cy="224" r="8" stroke="black" stroke-opacity="0.1"/>
</g>
<rect x="346" y="220" width="1" height="8" rx="0.5" fill="#CCCCCC"/>
<rect x="349" y="220" width="1" height="8" rx="0.5" fill="#CCCCCC"/>
<rect x="402" y="11" width="89" height="20" rx="3" fill="black" fill-opacity="0.05"/>
<g clip-path="url(#clip0_244_16902)">
<path d="M413 17.4286C413.197 17.4286 413.357 17.5885 413.357 17.7857V20.6429L415.143 20.6429C415.34 20.6429 415.5 20.8028 415.5 21C415.5 21.1972 415.34 21.3571 415.143 21.3571L413 21.3571C412.803 21.3571 412.643 21.1972 412.643 21V17.7857C412.643 17.5885 412.803 17.4286 413 17.4286Z" fill="#5C6870"/>
<path fill-rule="evenodd" clip-rule="evenodd" d="M413 26C415.761 26 418 23.7614 418 21C418 18.2386 415.761 16 413 16C410.239 16 408 18.2386 408 21C408 23.7614 410.239 26 413 26ZM413 25.2857C415.367 25.2857 417.286 23.3669 417.286 21C417.286 18.6331 415.367 16.7143 413 16.7143C410.633 16.7143 408.714 18.6331 408.714 21C408.714 23.3669 410.633 25.2857 413 25.2857Z" fill="#5C6870"/>
</g>
<path d="M423.412 24V23.3H425.022V17.94L423.752 18.74L423.402 18.13L425.252 16.95H425.842V23.3H427.352V24H423.412ZM431.088 24.09C430.621 24.09 430.178 24.02 429.758 23.88C429.338 23.7333 428.985 23.5233 428.698 23.25L428.998 22.6C429.325 22.8667 429.655 23.06 429.988 23.18C430.321 23.3 430.681 23.36 431.068 23.36C431.575 23.36 431.961 23.25 432.228 23.03C432.501 22.8033 432.638 22.4733 432.638 22.04C432.638 21.6267 432.501 21.3133 432.228 21.1C431.955 20.8867 431.558 20.78 431.038 20.78H429.998V20.07H430.968C431.421 20.07 431.778 19.9533 432.038 19.72C432.305 19.48 432.438 19.1533 432.438 18.74C432.438 18.3733 432.315 18.09 432.068 17.89C431.828 17.69 431.485 17.59 431.038 17.59C430.305 17.59 429.665 17.8567 429.118 18.39L428.818 17.75C429.078 17.47 429.408 17.2533 429.808 17.1C430.215 16.94 430.641 16.86 431.088 16.86C431.768 16.86 432.298 17.02 432.678 17.34C433.065 17.66 433.258 18.1033 433.258 18.67C433.258 19.0633 433.158 19.41 432.958 19.71C432.758 20.0033 432.481 20.2167 432.128 20.35C432.548 20.4633 432.875 20.6733 433.108 20.98C433.341 21.28 433.458 21.6533 433.458 22.1C433.458 22.7067 433.245 23.19 432.818 23.55C432.398 23.91 431.821 24.09 431.088 24.09ZM434.794 20.16V19.14H435.814V20.16H434.794ZM434.794 24V22.98H435.814V24H434.794ZM439.359 24.09C438.893 24.09 438.449 24.02 438.029 23.88C437.609 23.7333 437.256 23.5233 436.969 23.25L437.269 22.6C437.596 22.8667 437.926 23.06 438.259 23.18C438.593 23.3 438.953 23.36 439.339 23.36C439.846 23.36 440.233 23.25 440.499 23.03C440.773 22.8033 440.909 22.4733 440.909 22.04C440.909 21.6267 440.773 21.3133 440.499 21.1C440.226 20.8867 439.829 20.78 439.309 20.78H438.269V20.07H439.239C439.693 20.07 440.049 19.9533 440.309 19.72C440.576 19.48 440.709 19.1533 440.709 18.74C440.709 18.3733 440.586 18.09 440.339 17.89C440.099 17.69 439.756 17.59 439.309 17.59C438.576 17.59 437.936 17.8567 437.389 18.39L437.089 17.75C437.349 17.47 437.679 17.2533 438.079 17.1C438.486 16.94 438.913 16.86 439.359 16.86C440.039 16.86 440.569 17.02 440.949 17.34C441.336 17.66 441.529 18.1033 441.529 18.67C441.529 19.0633 441.429 19.41 441.229 19.71C441.029 20.0033 440.753 20.2167 440.399 20.35C440.819 20.4633 441.146 20.6733 441.379 20.98C441.613 21.28 441.729 21.6533 441.729 22.1C441.729 22.7067 441.516 23.19 441.089 23.55C440.669 23.91 440.093 24.09 439.359 24.09ZM445.436 24.09C444.629 24.09 444.016 23.78 443.596 23.16C443.176 22.54 442.966 21.6433 442.966 20.47C442.966 19.29 443.176 18.3933 443.596 17.78C444.016 17.1667 444.629 16.86 445.436 16.86C446.249 16.86 446.862 17.1667 447.276 17.78C447.696 18.3867 447.906 19.28 447.906 20.46C447.906 21.64 447.692 22.54 447.266 23.16C446.846 23.78 446.236 24.09 445.436 24.09ZM445.436 23.38C445.996 23.38 446.409 23.1433 446.676 22.67C446.949 22.1967 447.086 21.46 447.086 20.46C447.086 19.46 446.952 18.73 446.686 18.27C446.419 17.8033 446.002 17.57 445.436 17.57C444.876 17.57 444.459 17.8033 444.186 18.27C443.919 18.7367 443.786 19.4667 443.786 20.46C443.786 21.46 443.919 22.1967 444.186 22.67C444.459 23.1433 444.876 23.38 445.436 23.38ZM451 21.6V21.07H456V21.6H451ZM459.808 24V23.3H461.418V17.94L460.148 18.74L459.798 18.13L461.648 16.95H462.238V23.3H463.748V24H459.808ZM468.334 24V22.49H465.084V21.87L468.474 16.95H469.164V21.79H470.214V22.49H469.164V24H468.334ZM468.334 21.79V18.3L465.934 21.79H468.334ZM471.191 20.16V19.14H472.211V20.16H471.191ZM471.191 24V22.98H472.211V24H471.191ZM475.756 24.09C475.289 24.09 474.846 24.02 474.426 23.88C474.006 23.7333 473.653 23.5233 473.366 23.25L473.666 22.6C473.993 22.8667 474.323 23.06 474.656 23.18C474.989 23.3 475.349 23.36 475.736 23.36C476.243 23.36 476.629 23.25 476.896 23.03C477.169 22.8033 477.306 22.4733 477.306 22.04C477.306 21.6267 477.169 21.3133 476.896 21.1C476.623 20.8867 476.226 20.78 475.706 20.78H474.666V20.07H475.636C476.089 20.07 476.446 19.9533 476.706 19.72C476.973 19.48 477.106 19.1533 477.106 18.74C477.106 18.3733 476.983 18.09 476.736 17.89C476.496 17.69 476.153 17.59 475.706 17.59C474.973 17.59 474.333 17.8567 473.786 18.39L473.486 17.75C473.746 17.47 474.076 17.2533 474.476 17.1C474.883 16.94 475.309 16.86 475.756 16.86C476.436 16.86 476.966 17.02 477.346 17.34C477.733 17.66 477.926 18.1033 477.926 18.67C477.926 19.0633 477.826 19.41 477.626 19.71C477.426 20.0033 477.149 20.2167 476.796 20.35C477.216 20.4633 477.543 20.6733 477.776 20.98C478.009 21.28 478.126 21.6533 478.126 22.1C478.126 22.7067 477.913 23.19 477.486 23.55C477.066 23.91 476.489 24.09 475.756 24.09ZM481.832 24.09C481.025 24.09 480.412 23.78 479.992 23.16C479.572 22.54 479.362 21.6433 479.362 20.47C479.362 19.29 479.572 18.3933 479.992 17.78C480.412 17.1667 481.025 16.86 481.832 16.86C482.645 16.86 483.259 17.1667 483.672 17.78C484.092 18.3867 484.302 19.28 484.302 20.46C484.302 21.64 484.089 22.54 483.662 23.16C483.242 23.78 482.632 24.09 481.832 24.09ZM481.832 23.38C482.392 23.38 482.805 23.1433 483.072 22.67C483.345 22.1967 483.482 21.46 483.482 20.46C483.482 19.46 483.349 18.73 483.082 18.27C482.815 17.8033 482.399 17.57 481.832 17.57C481.272 17.57 480.855 17.8033 480.582 18.27C480.315 18.7367 480.182 19.4667 480.182 20.46C480.182 21.46 480.315 22.1967 480.582 22.67C480.855 23.1433 481.272 23.38 481.832 23.38Z" fill="#5C6870"/>
<defs>
<filter id="filter0_d_244_16902" x="293.5" y="213.5" width="23" height="23" filterUnits="userSpaceOnUse" color-interpolation-filters="sRGB">
<feFlood flood-opacity="0" result="BackgroundImageFix"/>
<feColorMatrix in="SourceAlpha" type="matrix" values="0 0 0 0 0 0 0 0 0 0 0 0 0 0 0 0 0 0 127 0" result="hardAlpha"/>
<feOffset dy="1"/>
<feGaussianBlur stdDeviation="1.5"/>
<feColorMatrix type="matrix" values="0 0 0 0 0 0 0 0 0 0 0 0 0 0 0 0 0 0 0.1 0"/>
<feBlend mode="normal" in2="BackgroundImageFix" result="effect1_dropShadow_244_16902"/>
<feBlend mode="normal" in="SourceGraphic" in2="effect1_dropShadow_244_16902" result="shape"/>
</filter>
<filter id="filter1_d_244_16902" x="336.5" y="213.5" width="23" height="23" filterUnits="userSpaceOnUse" color-interpolation-filters="sRGB">
<feFlood flood-opacity="0" result="BackgroundImageFix"/>
<feColorMatrix in="SourceAlpha" type="matrix" values="0 0 0 0 0 0 0 0 0 0 0 0 0 0 0 0 0 0 127 0" result="hardAlpha"/>
<feOffset dy="1"/>
<feGaussianBlur stdDeviation="1.5"/>
<feColorMatrix type="matrix" values="0 0 0 0 0 0 0 0 0 0 0 0 0 0 0 0 0 0 0.1 0"/>
<feBlend mode="normal" in2="BackgroundImageFix" result="effect1_dropShadow_244_16902"/>
<feBlend mode="normal" in="SourceGraphic" in2="effect1_dropShadow_244_16902" result="shape"/>
</filter>
<linearGradient id="paint0_linear_244_16902" x1="252.5" y1="0" x2="252.5" y2="180" gradientUnits="userSpaceOnUse">
<stop stop-color="#E7FBFB"/>
<stop offset="1" stop-color="#F4F8FA"/>
</linearGradient>
<clipPath id="clip0_244_16902">
<rect width="10" height="10" fill="white" transform="translate(408 16)"/>
</clipPath>
</defs>
</svg>
