<svg width="64" height="64" viewBox="0 0 64 64" fill="none" xmlns="http://www.w3.org/2000/svg">
<path d="M58.6906 38.3291C58.4308 44.2011 57.5307 50.5177 53.7477 55.3283C49.7248 60.4439 43.3099 62.8567 34.4229 62.8567C27.2278 62.8567 22.018 58.8808 18.8516 55.4362C17.2411 53.6841 16.0421 51.9494 15.2447 50.6562C14.8432 50.0051 14.536 49.4538 14.3228 49.0518C14.2161 48.8504 14.1324 48.6855 14.0717 48.5632L14.0434 48.5051L6.39065 37.0039C5.39488 35.5098 4.99492 33.6847 5.24763 31.9473C5.49936 30.2166 6.46121 28.3251 8.40116 27.1842C9.29289 26.6212 10.6186 26.1273 12.3151 26.337C13.9462 26.5386 15.4283 27.336 16.7769 28.377C17.4042 28.8582 18.0206 29.3768 18.6057 29.8892V8.00054C18.6055 7.07774 18.7915 6.16343 19.1527 5.3142C19.5143 4.46386 20.0441 3.69538 20.7101 3.05491C21.3762 2.41444 22.1649 1.91521 23.0287 1.5872C23.8904 1.26001 24.8092 1.10992 25.7301 1.14583C29.9851 1.30722 32.2743 5.05601 32.2743 8.22817V14.3314C33.0572 14.0912 33.8778 13.9929 34.6972 14.0421L34.7354 14.0444L34.7735 14.0473C37.114 14.2274 38.9555 15.5334 40.0441 17.2922C40.2635 17.1806 40.4891 17.0806 40.7202 16.9929C41.5829 16.6653 42.5029 16.5153 43.425 16.5517C46.4385 16.6691 48.5273 18.6448 49.4432 20.9609C49.5077 20.9352 49.5726 20.9105 49.638 20.8868C50.518 20.5674 51.4541 20.4317 52.3886 20.4878L52.4268 20.4901L52.4649 20.4931C56.3792 20.7942 58.8343 24.2121 58.8343 27.611C58.8343 28.3222 58.8387 29.0551 58.8431 29.8039L58.8431 29.8057C58.8594 32.5283 58.8768 35.4613 58.6906 38.3291Z" fill="white"/>
<path fill-rule="evenodd" clip-rule="evenodd" d="M54.2591 27.4632C54.257 27.4208 54.2539 27.3786 54.2499 27.3367L54.2491 27.3285C54.128 26.0916 53.22 25.1361 52.1143 25.051C51.8028 25.0323 51.4908 25.0776 51.1974 25.184C50.9041 25.2905 50.6357 25.4559 50.4087 25.67C50.2309 25.8377 50.0814 26.0326 49.9657 26.247C49.9337 26.3063 49.9043 26.367 49.8776 26.4292C49.7542 26.7158 49.6909 27.0247 49.6915 27.3367V33.7825C49.6915 34.9253 48.6857 35.931 47.5429 35.931C46.9767 35.9194 46.437 35.6892 46.0365 35.2888C45.6361 34.8884 45.406 34.3486 45.3943 33.7825V23.6339C45.3943 23.557 45.3911 23.4808 45.3848 23.4053C45.2807 22.181 44.3643 21.1626 43.2457 21.1196C42.938 21.1073 42.6309 21.1573 42.3429 21.2666C42.055 21.376 41.7921 21.5424 41.5701 21.7559C41.3991 21.9202 41.2551 22.1099 41.1429 22.3178C41.1093 22.38 41.0786 22.4437 41.0509 22.509C40.9304 22.7924 40.8683 23.0973 40.8686 23.4053V30.9482C40.8686 31.0915 40.8528 31.2326 40.8229 31.3699C40.6143 32.3274 39.7196 33.0967 38.72 33.0967C38.1538 33.0851 37.6141 32.8549 37.2137 32.4545C36.8132 32.0541 36.5831 31.5143 36.5715 30.9482V21.1196C36.5715 21.0788 36.5705 21.0383 36.5687 20.998C36.5672 20.9621 36.5649 20.9265 36.5619 20.891L36.5612 20.8828C36.455 19.6654 35.5399 18.6912 34.4229 18.6053C34.1114 18.5866 33.7993 18.6318 33.506 18.7383C33.2127 18.8448 32.9442 19.0102 32.7172 19.2243C32.5394 19.392 32.39 19.5869 32.2743 19.8012C32.2423 19.8605 32.2129 19.9213 32.1862 19.9834C32.0628 20.2701 31.9995 20.579 32 20.891V30.9482C32 32.091 30.9943 33.0967 29.8515 33.0967C29.2888 33.0742 28.7553 32.8406 28.3572 32.4425C28.0474 32.1327 27.8373 31.741 27.7486 31.3175C27.7233 31.1966 27.7079 31.0731 27.7029 30.9482V8.22817C27.7029 8.1513 27.6998 8.07505 27.6938 7.9996C27.5943 6.77523 26.7159 5.7569 25.5543 5.71388C25.2465 5.70156 24.9395 5.75157 24.6515 5.86091C24.3635 5.97025 24.1007 6.13666 23.8786 6.35015C23.6566 6.56364 23.48 6.8198 23.3595 7.10325C23.2389 7.38669 23.1769 7.69158 23.1772 7.9996V38.9939C23.1772 40.1367 22.1715 41.1425 21.0286 41.1425C20.6254 41.1341 20.2357 41.0151 19.9001 40.8026C19.7644 40.7167 19.6375 40.6155 19.5223 40.5002C19.1984 40.1764 18.986 39.7615 18.9104 39.3152C18.8925 39.2096 18.8823 39.1022 18.88 38.9939C18.88 38.8409 18.8826 38.6878 18.8851 38.5355C18.8891 38.297 18.8931 38.0601 18.8872 37.8272C18.8743 37.3199 18.8145 36.8317 18.6057 36.3882C18.4356 36.0051 18.1863 35.6624 17.8743 35.3825C17.5543 35.0967 17.2372 34.8082 16.92 34.5196C16.003 33.6852 15.0859 32.8507 14.0997 32.0853L14.0835 32.0727C14.0519 32.0483 14.0203 32.0239 13.9886 31.9996C13.9755 31.9895 13.9625 31.9795 13.9495 31.9695C11.9683 30.4537 11.1063 30.8584 10.7886 31.0853C9.60003 31.7253 9.46288 33.371 10.1943 34.4682L18.1029 46.3539V46.3996H18.0342L17.8743 46.506C17.9491 46.4712 18.0252 46.4357 18.1029 46.3996C18.1029 46.3996 23.6343 58.2853 34.4229 58.2853C50.6057 58.2853 53.6229 49.5996 54.1257 38.0796C54.3036 35.3761 54.2877 32.645 54.2719 29.9292C54.2674 29.1549 54.2629 28.3818 54.2629 27.611C54.2629 27.5614 54.2616 27.5121 54.2591 27.4632ZM58.6906 38.3291C58.4308 44.2011 57.5307 50.5177 53.7477 55.3283C49.7248 60.4439 43.3099 62.8567 34.4229 62.8567C27.2278 62.8567 22.018 58.8808 18.8516 55.4362C17.2411 53.6841 16.0421 51.9494 15.2447 50.6562C14.8432 50.0051 14.536 49.4538 14.3228 49.0518C14.216 48.8504 14.1324 48.6855 14.0717 48.5632L14.0434 48.5051L6.39065 37.0039C5.39488 35.5098 4.99492 33.6847 5.24763 31.9473C5.49936 30.2166 6.46121 28.3251 8.40116 27.1842C9.29289 26.6212 10.6186 26.1273 12.3151 26.337C13.9462 26.5386 15.4283 27.336 16.7769 28.377C17.4042 28.8582 18.0206 29.3768 18.6057 29.8892V8.00054C18.6055 7.07774 18.7915 6.16343 19.1527 5.3142C19.5143 4.46386 20.0441 3.69538 20.7101 3.05491C21.3762 2.41445 22.1649 1.91522 23.0287 1.5872C23.8904 1.26002 24.8092 1.10992 25.7301 1.14583C29.9851 1.30722 32.2743 5.05601 32.2743 8.22817V14.3314C33.0572 14.0912 33.8778 13.9929 34.6972 14.0421L34.7354 14.0444L34.7735 14.0473C37.114 14.2274 38.9555 15.5334 40.0441 17.2922C40.2635 17.1806 40.4891 17.0806 40.7202 16.9929C41.5829 16.6653 42.5029 16.5153 43.425 16.5517C46.4385 16.6691 48.5273 18.6448 49.4432 20.9609C49.5077 20.9352 49.5726 20.9105 49.638 20.8868C50.518 20.5674 51.4541 20.4317 52.3886 20.4878L52.4268 20.4901L52.4649 20.4931C56.3792 20.7942 58.8343 24.2121 58.8343 27.611C58.8343 28.3228 58.8387 29.0563 58.8431 29.8057C58.8594 32.5283 58.8768 35.4613 58.6906 38.3291Z" fill="black"/>
</svg>
