<svg width="48" height="48" viewBox="0 0 48 48" fill="none" xmlns="http://www.w3.org/2000/svg">
<rect width="48" height="48" rx="5" fill="#0E1116"/>
<mask id="mask0_2150_111590" style="mask-type:alpha" maskUnits="userSpaceOnUse" x="9" y="9" width="30" height="30">
<path fill-rule="evenodd" clip-rule="evenodd" d="M30.2736 38.7952C30.7461 38.9792 31.2848 38.9675 31.7617 38.738L37.9382 35.7659C38.5873 35.4536 39 34.7968 39 34.0762V13.924C39 13.2034 38.5873 12.5466 37.9383 12.2343L31.7617 9.26216C31.1359 8.96099 30.4034 9.03476 29.854 9.43412C29.7756 9.49116 29.7008 9.55486 29.6307 9.62505L17.8065 20.4125L12.6562 16.5029C12.1767 16.139 11.5061 16.1688 11.0608 16.5739L9.40891 18.0765C8.86423 18.572 8.86361 19.4288 9.40756 19.9251L13.8741 24.0001L9.40756 28.075C8.86361 28.5713 8.86423 29.4282 9.40891 29.9236L11.0608 31.4263C11.5061 31.8313 12.1767 31.8611 12.6562 31.4972L17.8065 27.5876L29.6307 38.375C29.8178 38.5622 30.0374 38.7032 30.2736 38.7952ZM31.5046 17.1897L22.5327 24.0001L31.5046 30.8104V17.1897Z" fill="white"/>
</mask>
<g mask="url(#mask0_2150_111590)">
<path d="M37.9381 12.2389L31.7568 9.26275C31.0413 8.91826 30.1862 9.06357 29.6247 9.62509L9.38925 28.0751C8.84497 28.5713 8.8456 29.4282 9.3906 29.9237L11.0435 31.4263C11.4891 31.8314 12.1601 31.8612 12.6398 31.4972L37.008 13.0111C37.8255 12.3909 38.9997 12.9739 38.9997 14.0001V13.9283C38.9997 13.208 38.5871 12.5514 37.9381 12.2389Z" fill="#0065A9"/>
<g filter="url(#filter0_d_2150_111590)">
<path d="M37.9381 35.7613L31.7568 38.7375C31.0413 39.0821 30.1862 38.9367 29.6247 38.3752L9.38925 19.9253C8.84497 19.429 8.8456 18.5721 9.3906 18.0766L11.0435 16.574C11.4891 16.1689 12.1601 16.1391 12.6398 16.503L37.008 34.9892C37.8255 35.6094 38.9997 35.0263 38.9997 34.0002V34.072C38.9997 34.7922 38.5871 35.4488 37.9381 35.7613Z" fill="#007ACC"/>
</g>
<g filter="url(#filter1_d_2150_111590)">
<path d="M31.7573 38.7381C31.0416 39.0824 30.1866 38.9367 29.625 38.3752C30.3169 39.0671 31.5 38.577 31.5 37.5985V10.4018C31.5 9.42331 30.3169 8.93326 29.625 9.62518C30.1866 9.06361 31.0416 8.91809 31.7573 9.26228L37.9376 12.2344C38.587 12.5467 39 13.2035 39 13.9241V34.0763C39 34.7969 38.587 35.4538 37.9376 35.7661L31.7573 38.7381Z" fill="#1F9CF0"/>
</g>
<g style="mix-blend-mode:overlay" opacity="0.25">
<path fill-rule="evenodd" clip-rule="evenodd" d="M30.255 38.7953C30.7275 38.9794 31.2663 38.9676 31.7432 38.7381L37.9197 35.7661C38.5687 35.4538 38.9814 34.7969 38.9814 34.0763V13.9242C38.9814 13.2035 38.5687 12.5467 37.9197 12.2344L31.7432 9.26228C31.1173 8.96111 30.3848 9.03488 29.8355 9.43423C29.757 9.49129 29.6823 9.55498 29.6121 9.62518L17.788 20.4126L12.6376 16.5031C12.1582 16.1391 11.4875 16.1689 11.0422 16.574L9.39035 18.0766C8.84568 18.5721 8.84506 19.429 9.389 19.9252L13.8556 24.0002L9.389 28.0751C8.84506 28.5714 8.84568 29.4283 9.39035 29.9237L11.0422 31.4264C11.4875 31.8314 12.1582 31.8613 12.6376 31.4973L17.788 27.5878L29.6121 38.3752C29.7992 38.5623 30.0188 38.7033 30.255 38.7953ZM31.486 17.1898L22.5142 24.0002L31.486 30.8105V17.1898Z" fill="url(#paint0_linear_2150_111590)"/>
</g>
</g>
<defs>
<filter id="filter0_d_2150_111590" x="6.89811" y="14.1656" width="34.1852" height="26.8404" filterUnits="userSpaceOnUse" color-interpolation-filters="sRGB">
<feFlood flood-opacity="0" result="BackgroundImageFix"/>
<feColorMatrix in="SourceAlpha" type="matrix" values="0 0 0 0 0 0 0 0 0 0 0 0 0 0 0 0 0 0 127 0" result="hardAlpha"/>
<feOffset/>
<feGaussianBlur stdDeviation="1.04167"/>
<feColorMatrix type="matrix" values="0 0 0 0 0 0 0 0 0 0 0 0 0 0 0 0 0 0 0.25 0"/>
<feBlend mode="overlay" in2="BackgroundImageFix" result="effect1_dropShadow_2150_111590"/>
<feBlend mode="normal" in="SourceGraphic" in2="effect1_dropShadow_2150_111590" result="shape"/>
</filter>
<filter id="filter1_d_2150_111590" x="27.5417" y="6.99418" width="13.5417" height="34.0121" filterUnits="userSpaceOnUse" color-interpolation-filters="sRGB">
<feFlood flood-opacity="0" result="BackgroundImageFix"/>
<feColorMatrix in="SourceAlpha" type="matrix" values="0 0 0 0 0 0 0 0 0 0 0 0 0 0 0 0 0 0 127 0" result="hardAlpha"/>
<feOffset/>
<feGaussianBlur stdDeviation="1.04167"/>
<feColorMatrix type="matrix" values="0 0 0 0 0 0 0 0 0 0 0 0 0 0 0 0 0 0 0.25 0"/>
<feBlend mode="overlay" in2="BackgroundImageFix" result="effect1_dropShadow_2150_111590"/>
<feBlend mode="normal" in="SourceGraphic" in2="effect1_dropShadow_2150_111590" result="shape"/>
</filter>
<linearGradient id="paint0_linear_2150_111590" x1="23.9814" y1="9.07751" x2="23.9814" y2="38.9229" gradientUnits="userSpaceOnUse">
<stop stop-color="white"/>
<stop offset="1" stop-color="white" stop-opacity="0"/>
</linearGradient>
</defs>
</svg>
