<svg width="48" height="48" viewBox="0 0 48 48" fill="none" xmlns="http://www.w3.org/2000/svg">
<rect width="48" height="48" rx="5" fill="black"/>
<path d="M26.5845 41.0961C25.4447 41.0961 24.362 40.8796 23.3362 40.4465C22.3104 40.0134 21.3986 39.4093 20.6008 38.6343C19.7346 38.9306 18.8342 39.0788 17.8996 39.0788C16.3723 39.0788 14.9591 38.7027 13.6598 37.9504C12.3605 37.1982 11.3119 36.1724 10.5141 34.8731C9.73905 33.5738 9.35154 32.1264 9.35154 30.5307C9.35154 29.8697 9.44272 29.1516 9.62508 28.3766C8.71329 27.5332 8.00665 26.5644 7.50516 25.4703C7.00367 24.3533 6.75293 23.1908 6.75293 21.9827C6.75293 20.7517 7.01507 19.5664 7.53935 18.4267C8.06363 17.2869 8.79307 16.3067 9.72766 15.4861C10.685 14.6427 11.7906 14.0614 13.0443 13.7423C13.295 12.443 13.8193 11.2805 14.6171 10.2547C15.4378 9.20615 16.4407 8.38553 17.6261 7.79287C18.8114 7.2002 20.0765 6.90387 21.4214 6.90387C22.5611 6.90387 23.6439 7.12042 24.6697 7.55352C25.6955 7.98662 26.6073 8.59069 27.4051 9.36571C28.2713 9.06938 29.1717 8.92121 30.1063 8.92121C31.6335 8.92121 33.0468 9.29733 34.3461 10.0496C35.6454 10.8018 36.6826 11.8276 37.4576 13.1269C38.2554 14.4262 38.6543 15.8736 38.6543 17.4693C38.6543 18.1303 38.5631 18.8484 38.3808 19.6234C39.2926 20.4668 39.9992 21.447 40.5007 22.5639C41.0022 23.6581 41.2529 24.8092 41.2529 26.0173C41.2529 27.2483 40.9908 28.4336 40.4665 29.5733C39.9422 30.7131 39.2014 31.7046 38.244 32.5481C37.3094 33.3687 36.2153 33.9385 34.9616 34.2577C34.7108 35.557 34.1751 36.7195 33.3545 37.7453C32.5567 38.7938 31.5651 39.6145 30.3798 40.2071C29.1945 40.7998 27.9294 41.0961 26.5845 41.0961ZM18.139 36.8221C19.2787 36.8221 20.2703 36.5827 21.1137 36.104L27.5418 32.4113C27.7698 32.2517 27.8838 32.0352 27.8838 31.7616V28.8211L19.6092 33.5738C19.1077 33.8702 18.6062 33.8702 18.1048 33.5738L11.6424 29.8469C11.6424 29.9153 11.631 29.995 11.6082 30.0862C11.6082 30.1774 11.6082 30.3142 11.6082 30.4965C11.6082 31.6591 11.8818 32.7304 12.4288 33.7106C12.9987 34.668 13.7851 35.4202 14.7881 35.9673C15.7911 36.5372 16.908 36.8221 18.139 36.8221ZM18.4809 31.2488C18.6176 31.3171 18.743 31.3513 18.857 31.3513C18.971 31.3513 19.0849 31.3171 19.1989 31.2488L21.7633 29.7785L13.523 24.9916C13.0215 24.6952 12.7708 24.2507 12.7708 23.6581V16.2384C11.631 16.7398 10.7192 17.5149 10.0354 18.5634C9.35154 19.5892 9.00962 20.7289 9.00962 21.9827C9.00962 23.0996 9.29455 24.171 9.86442 25.1967C10.4343 26.2225 11.1751 26.9975 12.0869 27.5218L18.4809 31.2488ZM26.5845 38.8394C27.7926 38.8394 28.8867 38.5659 29.8669 38.0188C30.8471 37.4717 31.6221 36.7195 32.192 35.7621C32.7619 34.8047 33.0468 33.7334 33.0468 32.5481V25.1625C33.0468 24.889 32.9328 24.6838 32.7049 24.5471L30.1063 23.0426V32.5823C30.1063 33.1749 29.8555 33.6194 29.354 33.9157L22.8917 37.6427C24.0086 38.4405 25.2396 38.8394 26.5845 38.8394ZM27.8838 26.3251V21.6749L24.02 19.4866L20.1221 21.6749V26.3251L24.02 28.5134L27.8838 26.3251ZM17.8996 15.4177C17.8996 14.8251 18.1503 14.3806 18.6518 14.0842L25.1142 10.3573C23.9972 9.55947 22.7663 9.16056 21.4214 9.16056C20.2133 9.16056 19.1191 9.4341 18.139 9.98117C17.1588 10.5282 16.3837 11.2805 15.8139 12.2379C15.2668 13.1952 14.9933 14.2666 14.9933 15.4519V22.8033C14.9933 23.0768 15.1072 23.2934 15.3352 23.4529L17.8996 24.9574V15.4177ZM35.2693 31.7616C36.409 31.2601 37.3094 30.4851 37.9705 29.4366C38.6543 28.388 38.9962 27.2483 38.9962 26.0173C38.9962 24.9004 38.7113 23.829 38.1414 22.8033C37.5716 21.7775 36.8307 21.0025 35.9189 20.4782L29.525 16.7854C29.3882 16.6943 29.2628 16.6601 29.1489 16.6829C29.0349 16.6829 28.9209 16.717 28.807 16.7854L26.2425 18.2215L34.5171 23.0426C34.7678 23.1794 34.9502 23.3617 35.0641 23.5897C35.2009 23.7948 35.2693 24.0456 35.2693 24.3419V31.7616ZM28.3966 14.392C28.8981 14.0728 29.3996 14.0728 29.9011 14.392L36.3976 18.1873C36.3976 18.0277 36.3976 17.8226 36.3976 17.5719C36.3976 16.4777 36.1241 15.4405 35.577 14.4604C35.0527 13.4574 34.2891 12.6596 33.2861 12.0669C32.306 11.4742 31.1662 11.1779 29.8669 11.1779C28.7272 11.1779 27.7356 11.4172 26.8922 11.8959L20.464 15.5887C20.2361 15.7483 20.1221 15.9648 20.1221 16.2384V19.1789L28.3966 14.392Z" fill="white"/>
</svg>
