<svg width="48" height="48" viewBox="0 0 48 48" fill="none" xmlns="http://www.w3.org/2000/svg">
<rect width="48" height="48" rx="5" fill="white"/>
<path d="M15.7936 10.7919C15.781 10.7919 15.7684 10.792 15.7558 10.792L15.7041 15.0608C15.7159 15.0606 15.7277 15.0605 15.7396 15.0605C18.5493 15.0605 20.7287 17.2759 25.4656 25.2548L25.7544 25.7405L25.7733 25.7723L28.4249 21.7937L28.4066 21.763C27.7825 20.7481 27.183 19.8142 26.608 18.9616C25.9412 17.9736 25.3035 17.091 24.6847 16.303C21.5511 12.3131 18.9298 10.7919 15.7936 10.7919Z" fill="url(#paint0_linear_2150_111588)"/>
<path d="M15.7549 10.792C12.6035 10.8083 9.81751 12.8461 7.80575 15.9643C7.79985 15.9734 7.79396 15.9826 7.78809 15.9917L11.4809 18.0017C11.4869 17.9926 11.4929 17.9835 11.4989 17.9744C12.6737 16.2057 14.1356 15.0776 15.7032 15.0608C15.7151 15.0606 15.7269 15.0605 15.7387 15.0605L15.7927 10.7919C15.7801 10.7919 15.7675 10.792 15.7549 10.792Z" fill="url(#paint1_linear_2150_111588)"/>
<path d="M7.80596 15.9668C7.80009 15.9759 7.79419 15.9851 7.78829 15.9942C6.46635 18.052 5.48088 20.5773 4.9483 23.3015C4.946 23.3133 4.9437 23.3251 4.94141 23.3369L9.09012 24.3158C9.0923 24.304 9.09448 24.2921 9.09666 24.2803C9.54012 21.8862 10.3844 19.6657 11.4811 18.0042C11.4871 17.9951 11.4931 17.986 11.4991 17.9769L7.80596 15.9668Z" fill="url(#paint2_linear_2150_111588)"/>
<path d="M9.09656 24.2816L4.94818 23.3028C4.94587 23.3146 4.94357 23.3264 4.94128 23.3382C4.65087 24.8364 4.50313 26.3588 4.50003 27.8849C4.50001 27.8972 4.5 27.9096 4.5 27.9219L8.75469 28.3025C8.75435 28.2901 8.75399 28.2779 8.7537 28.2655C8.7516 28.1769 8.75054 28.0873 8.75051 27.9963C8.75264 26.7622 8.86626 25.5308 9.09001 24.3171C9.09217 24.3053 9.09435 24.2935 9.09656 24.2816Z" fill="url(#paint3_linear_2150_111588)"/>
<path d="M8.88408 29.6242C8.80776 29.1856 8.76451 28.7418 8.75469 28.2967C8.75435 28.2844 8.75399 28.2721 8.7537 28.2597L4.50003 27.8791C4.50001 27.8914 4.5 27.9038 4.5 27.9161C4.5 28.8659 4.57921 29.7576 4.73314 30.5791C4.73537 30.591 4.73756 30.6026 4.73981 30.6145L8.89052 29.6597C8.88834 29.6479 8.88621 29.636 8.88408 29.6242Z" fill="url(#paint4_linear_2150_111588)"/>
<path d="M9.85367 31.8314C9.39071 31.3261 9.06305 30.5971 8.89078 29.6649C8.8886 29.6531 8.8865 29.6412 8.88437 29.6293L4.7334 30.5843C4.73562 30.5961 4.73781 30.6078 4.74007 30.6197C5.05382 32.2669 5.66913 33.6398 6.5503 34.6784C6.55813 34.6876 6.56599 34.6968 6.57389 34.706L9.87843 31.858C9.87017 31.8492 9.86186 31.8404 9.85367 31.8314Z" fill="url(#paint5_linear_2150_111588)"/>
<path d="M22.1507 20.0203C19.6494 23.857 18.1341 26.2634 18.1341 26.2634C14.802 31.4866 13.6493 32.6573 11.7942 32.6573C11.0201 32.6573 10.3734 32.3817 9.87793 31.8548C9.86967 31.846 9.86139 31.8371 9.8532 31.8282L6.5498 34.6751C6.55764 34.6844 6.5655 34.6936 6.57339 34.7028C7.79009 36.121 9.50747 36.908 11.6321 36.908C14.8464 36.908 17.1582 35.3925 21.268 28.2086C21.268 28.2086 22.9812 25.1832 24.1597 23.0993C23.4297 21.9205 22.7653 20.9001 22.1507 20.0203Z" fill="#0082FB"/>
<path d="M26.6096 13.9678C26.6012 13.9768 26.5926 13.9859 26.5842 13.9949C25.9273 14.6948 25.2969 15.4763 24.6836 16.3055C25.3025 17.0936 25.9413 17.9779 26.6082 18.9658C27.3941 17.7528 28.1277 16.7704 28.8467 16.0174C28.8552 16.0085 28.8636 15.9998 28.8721 15.9909L26.6096 13.9678Z" fill="url(#paint6_linear_2150_111588)"/>
<path d="M38.7533 13.5884C37.0088 11.826 34.9289 10.7919 32.7054 10.7919C30.3606 10.7919 28.3883 12.0768 26.6094 13.9645C26.601 13.9734 26.5924 13.9826 26.584 13.9915L28.8465 16.014C28.8551 16.0051 28.8634 15.9964 28.8719 15.9876C30.0438 14.7686 31.178 14.16 32.4352 14.16C33.7886 14.16 35.0551 14.797 36.1521 15.9137C36.1607 15.9225 36.1692 15.9311 36.1778 15.94L38.7793 13.6146C38.7707 13.6058 38.7619 13.5971 38.7533 13.5884Z" fill="#0082FB"/>
<path d="M43.7965 27.3182C43.6988 21.6596 41.7187 16.6009 38.7795 13.6135C38.7707 13.6047 38.7621 13.596 38.7533 13.5873L36.1523 15.9126C36.1609 15.9214 36.1695 15.9301 36.1781 15.9389C38.3891 18.2101 39.9058 22.4348 40.0438 27.317C40.044 27.3293 40.0443 27.3416 40.0448 27.3538L43.797 27.355C43.797 27.3428 43.7967 27.3305 43.7965 27.3182Z" fill="url(#paint7_linear_2150_111588)"/>
<path d="M43.797 27.3591C43.797 27.3468 43.7968 27.3345 43.7965 27.3222L40.0438 27.321C40.0441 27.3333 40.0443 27.3456 40.0449 27.3578C40.0508 27.587 40.054 27.8175 40.054 28.0494C40.054 29.3806 39.8552 30.4566 39.4508 31.2334C39.4448 31.245 39.4386 31.2565 39.4326 31.2679L42.2305 34.1779C42.2375 34.1673 42.2442 34.1568 42.2512 34.1462C43.2669 32.5789 43.8002 30.4016 43.8002 27.7613C43.8002 27.6269 43.7991 27.4928 43.797 27.3591Z" fill="url(#paint8_linear_2150_111588)"/>
<path d="M39.451 31.2274C39.445 31.2389 39.4388 31.2504 39.4328 31.2618C39.0829 31.9166 38.5834 32.3534 37.9307 32.5444L39.2061 36.5642C39.3749 36.5069 39.5393 36.4425 39.6993 36.371C39.7471 36.3498 39.7947 36.3279 39.8417 36.3053C39.8687 36.2924 39.8957 36.2792 39.9225 36.2658C40.7659 35.8455 41.4787 35.2255 42.0551 34.4267C42.0904 34.3779 42.1252 34.3287 42.1592 34.2786C42.1834 34.2433 42.2073 34.2077 42.2307 34.1718C42.2377 34.1612 42.2444 34.1507 42.2515 34.1401L39.451 31.2274Z" fill="url(#paint9_linear_2150_111588)"/>
<path d="M37.1181 32.6534C36.6906 32.6534 36.3131 32.5897 35.9438 32.4247L34.6377 36.5402C35.3718 36.7909 36.1549 36.9039 37.0282 36.9039C37.8327 36.9039 38.5712 36.7836 39.2408 36.5515L37.9657 32.533C37.6909 32.6154 37.4051 32.6559 37.1181 32.6534Z" fill="url(#paint10_linear_2150_111588)"/>
<path d="M34.5051 31.2504C34.4971 31.2412 34.489 31.2318 34.4807 31.2224L31.4756 34.3478C31.4842 34.3568 31.4925 34.3658 31.5008 34.3747C32.545 35.4875 33.5422 36.1778 34.6729 36.5566L35.9779 32.4442C35.5016 32.2395 35.0405 31.8685 34.5051 31.2504Z" fill="url(#paint11_linear_2150_111588)"/>
<path d="M34.4807 31.2193C33.5793 30.1711 32.4642 28.4258 30.7103 25.6035L28.4245 21.7913L28.4061 21.7606L25.7539 25.7381L25.7728 25.7699L27.3924 28.4944C28.9623 31.1216 30.2413 33.0222 31.4755 34.3447C31.4841 34.3537 31.4924 34.3627 31.5007 34.3716L34.5048 31.2473C34.4968 31.2381 34.4887 31.2287 34.4807 31.2193Z" fill="url(#paint12_linear_2150_111588)"/>
<defs>
<linearGradient id="paint0_linear_2150_111588" x1="26.6624" y1="24.1544" x2="17.8588" y2="12.6186" gradientUnits="userSpaceOnUse">
<stop offset="0.0006" stop-color="#0867DF"/>
<stop offset="0.4539" stop-color="#0668E1"/>
<stop offset="0.8591" stop-color="#0064E0"/>
</linearGradient>
<linearGradient id="paint1_linear_2150_111588" x1="9.52266" y1="16.6816" x2="15.5581" y2="12.0995" gradientUnits="userSpaceOnUse">
<stop offset="0.1323" stop-color="#0064DF"/>
<stop offset="0.9988" stop-color="#0064E0"/>
</linearGradient>
<linearGradient id="paint2_linear_2150_111588" x1="6.96471" y1="23.408" x2="9.38575" y2="17.3136" gradientUnits="userSpaceOnUse">
<stop offset="0.0147" stop-color="#0072EC"/>
<stop offset="0.6881" stop-color="#0064DF"/>
</linearGradient>
<linearGradient id="paint3_linear_2150_111588" x1="6.63582" y1="27.812" x2="6.91595" y2="24.09" gradientUnits="userSpaceOnUse">
<stop offset="0.0731" stop-color="#007CF6"/>
<stop offset="0.9943" stop-color="#0072EC"/>
</linearGradient>
<linearGradient id="paint4_linear_2150_111588" x1="6.78987" y1="29.828" x2="6.58949" y2="28.3368" gradientUnits="userSpaceOnUse">
<stop offset="0.0731" stop-color="#007FF9"/>
<stop offset="1" stop-color="#007CF6"/>
</linearGradient>
<linearGradient id="paint5_linear_2150_111588" x1="6.67251" y1="30.2249" x2="7.92129" y2="32.8736" gradientUnits="userSpaceOnUse">
<stop offset="0.0731" stop-color="#007FF9"/>
<stop offset="1" stop-color="#0082FB"/>
</linearGradient>
<linearGradient id="paint6_linear_2150_111588" x1="25.866" y1="17.4094" x2="27.5169" y2="15.1261" gradientUnits="userSpaceOnUse">
<stop offset="0.2799" stop-color="#007FF8"/>
<stop offset="0.9141" stop-color="#0082FB"/>
</linearGradient>
<linearGradient id="paint7_linear_2150_111588" x1="38.4179" y1="14.4457" x2="41.8717" y2="27.1505" gradientUnits="userSpaceOnUse">
<stop stop-color="#0082FB"/>
<stop offset="0.9995" stop-color="#0081FA"/>
</linearGradient>
<linearGradient id="paint8_linear_2150_111588" x1="42.7058" y1="27.6406" x2="40.52" y2="32.0575" gradientUnits="userSpaceOnUse">
<stop offset="0.0619" stop-color="#0081FA"/>
<stop offset="1" stop-color="#0080F9"/>
</linearGradient>
<linearGradient id="paint9_linear_2150_111588" x1="38.7829" y1="34.3932" x2="40.8262" y2="33.0015" gradientUnits="userSpaceOnUse">
<stop stop-color="#027AF3"/>
<stop offset="1" stop-color="#0080F9"/>
</linearGradient>
<linearGradient id="paint10_linear_2150_111588" x1="35.5783" y1="34.6643" x2="38.4174" y2="34.6643" gradientUnits="userSpaceOnUse">
<stop stop-color="#0377EF"/>
<stop offset="0.9994" stop-color="#0279F1"/>
</linearGradient>
<linearGradient id="paint11_linear_2150_111588" x1="33.11" y1="33.1053" x2="35.1511" y2="34.3062" gradientUnits="userSpaceOnUse">
<stop offset="0.0019" stop-color="#0471E9"/>
<stop offset="1" stop-color="#0377EF"/>
</linearGradient>
<linearGradient id="paint12_linear_2150_111588" x1="26.8835" y1="24.2473" x2="33.4222" y2="32.4684" gradientUnits="userSpaceOnUse">
<stop offset="0.2765" stop-color="#0867DF"/>
<stop offset="1" stop-color="#0471E9"/>
</linearGradient>
</defs>
</svg>
