<svg width="48" height="48" viewBox="0 0 48 48" fill="none" xmlns="http://www.w3.org/2000/svg">
<rect width="48" height="48" rx="5" fill="white"/>
<rect x="0.125" y="0.125" width="47.75" height="47.75" rx="4.875" stroke="black" stroke-opacity="0.2" stroke-width="0.25"/>
<g clip-path="url(#clip0_2150_111592)">
<path d="M16.103 22.0941C16.103 22.5396 16.1511 22.9008 16.2354 23.1657C16.3317 23.4305 16.4521 23.7195 16.6207 24.0325C16.6809 24.1288 16.705 24.2251 16.705 24.3094C16.705 24.4298 16.6327 24.5502 16.4762 24.6706L15.7177 25.1762C15.6094 25.2485 15.501 25.2846 15.4047 25.2846C15.2843 25.2846 15.1639 25.2244 15.0435 25.116C14.875 24.9355 14.7305 24.7428 14.6101 24.5502C14.4897 24.3455 14.3693 24.1168 14.2369 23.8399C13.2978 24.9475 12.1179 25.5013 10.6973 25.5013C9.68594 25.5013 8.87929 25.2124 8.28936 24.6345C7.69942 24.0566 7.39844 23.286 7.39844 22.3229C7.39844 21.2995 7.75962 20.4688 8.49403 19.8428C9.22844 19.2167 10.2036 18.9037 11.4437 18.9037C11.853 18.9037 12.2744 18.9398 12.7199 19C13.1653 19.0602 13.6228 19.1565 14.1044 19.2649V18.386C14.1044 17.471 13.9118 16.8329 13.5386 16.4597C13.1533 16.0864 12.5032 15.9058 11.5761 15.9058C11.1548 15.9058 10.7213 15.954 10.2759 16.0624C9.83041 16.1707 9.39699 16.3032 8.97561 16.4717C8.78298 16.556 8.6385 16.6041 8.55423 16.6282C8.46995 16.6523 8.40975 16.6643 8.3616 16.6643C8.19304 16.6643 8.10877 16.5439 8.10877 16.2911V15.7012C8.10877 15.5085 8.13285 15.3641 8.19304 15.2798C8.25324 15.1955 8.3616 15.1112 8.53015 15.027C8.95153 14.8103 9.45719 14.6297 10.0471 14.4852C10.6371 14.3287 11.2631 14.2564 11.9253 14.2564C13.358 14.2564 14.4054 14.5815 15.0796 15.2316C15.7418 15.8818 16.0789 16.869 16.0789 18.1933V22.0941H16.103ZM11.215 23.9241C11.6123 23.9241 12.0216 23.8519 12.455 23.7074C12.8884 23.563 13.2737 23.2981 13.5988 22.9369C13.7914 22.7082 13.9359 22.4553 14.0081 22.1664C14.0803 21.8774 14.1285 21.5283 14.1285 21.1189V20.6133C13.7794 20.529 13.4061 20.4568 13.0209 20.4086C12.6356 20.3605 12.2624 20.3364 11.8892 20.3364C11.0825 20.3364 10.4926 20.4929 10.0953 20.818C9.69798 21.143 9.50535 21.6005 9.50535 22.2025C9.50535 22.7683 9.64982 23.1897 9.95081 23.4787C10.2398 23.7797 10.6611 23.9241 11.215 23.9241ZM20.8826 25.2244C20.6659 25.2244 20.5215 25.1883 20.4251 25.104C20.3288 25.0318 20.2446 24.8632 20.1723 24.6345L17.343 15.328C17.2708 15.0872 17.2347 14.9307 17.2347 14.8464C17.2347 14.6537 17.331 14.5454 17.5236 14.5454H18.7035C18.9323 14.5454 19.0888 14.5815 19.173 14.6658C19.2694 14.738 19.3416 14.9066 19.4138 15.1353L21.4365 23.1055L23.3146 15.1353C23.3748 14.8945 23.4471 14.738 23.5434 14.6658C23.6397 14.5935 23.8082 14.5454 24.025 14.5454H24.9881C25.2169 14.5454 25.3734 14.5815 25.4697 14.6658C25.566 14.738 25.6503 14.9066 25.6984 15.1353L27.6007 23.2018L29.6835 15.1353C29.7557 14.8945 29.84 14.738 29.9243 14.6658C30.0206 14.5935 30.1771 14.5454 30.3938 14.5454H31.5135C31.7061 14.5454 31.8145 14.6417 31.8145 14.8464C31.8145 14.9066 31.8025 14.9668 31.7904 15.039C31.7784 15.1112 31.7543 15.2076 31.7061 15.34L28.8046 24.6465C28.7324 24.8873 28.6481 25.0438 28.5518 25.116C28.4555 25.1883 28.299 25.2364 28.0943 25.2364H27.0589C26.8301 25.2364 26.6736 25.2003 26.5773 25.116C26.481 25.0318 26.3967 24.8753 26.3486 24.6345L24.4825 16.869L22.6284 24.6224C22.5682 24.8632 22.4959 25.0197 22.3996 25.104C22.3033 25.1883 22.1348 25.2244 21.918 25.2244H20.8826ZM36.3534 25.5495C35.7273 25.5495 35.1013 25.4772 34.4993 25.3328C33.8973 25.1883 33.4278 25.0318 33.1148 24.8512C32.9221 24.7428 32.7897 24.6224 32.7415 24.5141C32.6934 24.4057 32.6693 24.2853 32.6693 24.177V23.563C32.6693 23.3101 32.7656 23.1897 32.9462 23.1897C33.0184 23.1897 33.0907 23.2018 33.1629 23.2259C33.2351 23.2499 33.3435 23.2981 33.4639 23.3462C33.8732 23.5268 34.3187 23.6713 34.7882 23.7676C35.2698 23.8639 35.7394 23.9121 36.2209 23.9121C36.9794 23.9121 37.5694 23.7797 37.9787 23.5148C38.388 23.2499 38.6048 22.8647 38.6048 22.371C38.6048 22.0339 38.4964 21.757 38.2797 21.5283C38.063 21.2995 37.6536 21.0949 37.0637 20.9022L35.318 20.3605C34.4391 20.0835 33.789 19.6742 33.3917 19.1324C32.9944 18.6027 32.7897 18.0128 32.7897 17.3867C32.7897 16.881 32.898 16.4356 33.1148 16.0503C33.3315 15.6651 33.6204 15.328 33.9816 15.0631C34.3428 14.7862 34.7521 14.5815 35.2337 14.437C35.7153 14.2926 36.2209 14.2324 36.7507 14.2324C37.0155 14.2324 37.2925 14.2444 37.5573 14.2805C37.8342 14.3166 38.0871 14.3648 38.3399 14.413C38.5807 14.4732 38.8094 14.5333 39.0261 14.6056C39.2428 14.6778 39.4114 14.7501 39.5318 14.8223C39.7003 14.9186 39.8207 15.0149 39.893 15.1233C39.9652 15.2196 40.0013 15.352 40.0013 15.5206V16.0864C40.0013 16.3393 39.905 16.4717 39.7244 16.4717C39.6281 16.4717 39.4716 16.4235 39.2669 16.3272C38.5807 16.0142 37.8102 15.8577 36.9553 15.8577C36.2691 15.8577 35.7273 15.966 35.3541 16.1948C34.9809 16.4235 34.7882 16.7727 34.7882 17.2663C34.7882 17.6034 34.9086 17.8924 35.1494 18.1211C35.3902 18.3499 35.8357 18.5786 36.4738 18.7833L38.1834 19.3251C39.0502 19.602 39.6763 19.9872 40.0495 20.4808C40.4227 20.9745 40.6033 21.5403 40.6033 22.1664C40.6033 22.6841 40.4949 23.1536 40.2903 23.563C40.0736 23.9723 39.7846 24.3335 39.4114 24.6224C39.0382 24.9234 38.5927 25.1401 38.075 25.2966C37.5332 25.4652 36.9674 25.5495 36.3534 25.5495Z" fill="#252F3E"/>
<path fill-rule="evenodd" clip-rule="evenodd" d="M38.6285 31.4008C34.6675 34.3263 28.9127 35.8794 23.9644 35.8794C17.0297 35.8794 10.7812 33.315 6.06174 29.0531C5.68851 28.7159 6.02562 28.2585 6.47108 28.5233C11.5758 31.485 17.8725 33.2789 24.3858 33.2789C28.7802 33.2789 33.6081 32.3639 38.0506 30.4858C38.7128 30.1848 39.2786 30.9192 38.6285 31.4008Z" fill="#FF9900"/>
<path fill-rule="evenodd" clip-rule="evenodd" d="M40.2783 29.5225C39.7726 28.8724 36.9313 29.2095 35.6431 29.366C35.2578 29.4142 35.1976 29.0771 35.5468 28.8242C37.8102 27.235 41.5304 27.6925 41.9638 28.2223C42.3972 28.7641 41.8434 32.4842 39.7245 34.2661C39.3994 34.543 39.0864 34.3985 39.2308 34.0373C39.7124 32.8454 40.7839 30.1606 40.2783 29.5225Z" fill="#FF9900"/>
</g>
<defs>
<clipPath id="clip0_2150_111592">
<rect width="36.6" height="21.9118" fill="white" transform="translate(5.7002 14.1)"/>
</clipPath>
</defs>
</svg>
