<svg width="27" height="41" viewBox="0 0 27 41" fill="none" xmlns="http://www.w3.org/2000/svg">
<path d="M26.0869 17.4338C26.0869 19.8316 25.9067 22.1568 25.5464 24.4093C25.186 26.6618 24.5734 28.7508 23.7085 30.6763C22.8797 32.6018 21.7446 34.2912 20.3031 35.7444C18.8977 37.1613 17.1139 38.2694 14.9518 39.0687C12.8257 39.8679 10.2851 40.2676 7.33016 40.2676C6.60944 40.2676 5.76259 40.2312 4.78962 40.1586C3.85268 40.1223 3.04187 40.0314 2.35718 39.8861V33.2921C3.04187 33.4374 3.74457 33.5646 4.46529 33.6736C5.18601 33.7826 5.92475 33.8371 6.68151 33.8371C8.87971 33.8371 10.6995 33.5464 12.141 32.9651C13.6184 32.3838 14.7716 31.5482 15.6004 30.4583C16.4653 29.3684 17.0779 28.0787 17.4383 26.5891C17.7986 25.0996 18.0148 23.4647 18.0869 21.6845H17.8166C17.3482 22.5201 16.8076 23.283 16.195 23.9733C15.5824 24.6636 14.7896 25.2085 13.8166 25.6082C12.8437 26.0078 11.5644 26.2076 9.97881 26.2076C7.96079 26.2076 6.21304 25.7353 4.73556 24.7907C3.25809 23.8098 2.10493 22.4111 1.2761 20.5946C0.48331 18.7417 0.0869141 16.5074 0.0869141 13.8916C0.0869141 11.0578 0.591419 8.62362 1.60043 6.5891C2.60944 4.55459 4.03286 2.99237 5.8707 1.90246C7.74457 0.812538 9.97881 0.267578 12.5734 0.267578C14.4833 0.267578 16.2491 0.612719 17.8707 1.303C19.4923 1.99328 20.9157 3.04687 22.141 4.46376C23.4022 5.88066 24.3752 7.67902 25.0599 9.85886C25.7446 12.0024 26.0869 14.5273 26.0869 17.4338ZM12.7896 6.86158C11.5644 6.86158 10.5374 7.42471 9.70854 8.55096C8.91574 9.67721 8.51935 11.4211 8.51935 13.7826C8.51935 15.7081 8.86169 17.2158 9.54637 18.3057C10.2311 19.3593 11.2401 19.8861 12.5734 19.8861C13.5464 19.8861 14.3932 19.6136 15.1139 19.0687C15.8347 18.5237 16.3932 17.8516 16.7896 17.0523C17.186 16.2167 17.3842 15.3629 17.3842 14.491C17.3842 13.4738 17.2761 12.511 17.0599 11.6027C16.8797 10.6945 16.6094 9.89519 16.2491 9.20491C15.8887 8.4783 15.4022 7.91517 14.7896 7.51553C14.177 7.07957 13.5103 6.86158 12.7896 6.86158Z" fill="white"/>
</svg>
