<svg width="67" height="50" viewBox="0 0 67 50" fill="none" xmlns="http://www.w3.org/2000/svg">
<path d="M66.432 24.77C66.432 28.6291 66.1403 32.0843 65.5569 35.1357C65.0185 38.1871 64.0986 40.7897 62.7972 42.9436C61.4959 45.0527 59.8356 46.6681 57.8163 47.7899C55.797 48.9118 53.3066 49.4727 50.3449 49.4727C46.6653 49.4727 43.6364 48.4855 41.2581 46.5111C38.8798 44.5366 37.1298 41.7096 36.0079 38.03C34.8861 34.3504 34.3252 29.9304 34.3252 24.77C34.3252 19.5647 34.8412 15.1223 35.8733 11.4427C36.9054 7.76306 38.5881 4.93605 40.9216 2.96163C43.2998 0.987209 46.441 0 50.3449 0C54.0245 0 57.0535 0.987209 59.4317 2.96163C61.81 4.89118 63.5601 7.71819 64.6819 11.4427C65.8486 15.1223 66.432 19.5647 66.432 24.77ZM45.1621 24.77C45.1621 28.4047 45.2967 31.4561 45.5659 33.9241C45.88 36.3473 46.4185 38.1871 47.1814 39.4435C47.9442 40.6551 48.9987 41.2609 50.3449 41.2609C51.6911 41.2609 52.7232 40.6551 53.4412 39.4435C54.204 38.232 54.7425 36.4146 55.0566 33.9914C55.4156 31.5234 55.5951 28.4496 55.5951 24.77C55.5951 21.0904 55.4156 18.039 55.0566 15.6159C54.7425 13.1478 54.204 11.308 53.4412 10.0965C52.7232 8.84002 51.6911 8.21179 50.3449 8.21179C48.9987 8.21179 47.9442 8.84002 47.1814 10.0965C46.4185 11.308 45.88 13.1478 45.5659 15.6159C45.2967 18.039 45.1621 21.0904 45.1621 24.77Z" fill="white"/>
<path d="M24.4335 48.7994H13.462V21.0005C13.462 20.2376 13.462 19.2953 13.462 18.1735C13.5068 17.0516 13.5293 15.8849 13.5293 14.6734C13.5741 13.4618 13.619 12.3848 13.6639 11.4425C13.3049 11.7117 12.8337 12.2053 12.2504 12.9233C11.7119 13.6413 11.151 14.2471 10.5676 14.7407L5.5194 19.1831L0 13.0579L15.0101 0.740234H24.4335V48.7994Z" fill="white"/>
</svg>
