<svg fill="none" height="181" viewBox="0 0 181 181" width="181" xmlns="http://www.w3.org/2000/svg"><rect fill="#fff" height="180" rx="5" width="180" x=".970703" y=".694336"/><g fill="#454e54" font-family="'Nunito Sans', 'Helvetica Neue', Helvetica, Arial, sans-serif" font-size="7.05344" letter-spacing="-.0911069"><text font-weight="bold"><tspan x="16.3797" y="34.5266">transaction</tspan></text><text font-weight="600"><tspan x="24.8151" y="46.2825">estimate</tspan></text><text font-weight="600"><tspan x="16.8353" y="58.0384">description</tspan></text><text font-weight="600"><tspan x="58.1948" y="81.2962">summary</tspan></text><text font-weight="600"><tspan x="46.2397" y="127.314">invoiceCount</tspan></text><text font-weight="600"><tspan x="69.8378" y="69.7942">name</tspan></text><text font-weight="600"><tspan x="58.7785" y="115.81">billingUrl</tspan></text><text font-weight="600"><tspan x="81.1941" y="92.8001">id</tspan></text><text font-weight="600"><tspan x="69.7417" y="138.816">value</tspan></text><text font-weight="600"><tspan x="72.9194" y="150.32">type</tspan></text><text font-weight="600"><tspan x="67.0775" y="104.304">length</tspan></text></g><path d="m55.1133 30.7158h112.855v4.66855h-112.855z" fill="#37d5d3"/><path d="m55.1133 42.3877h16.3111v4.66855h-16.3111z" fill="#029cfd"/><path d="m92.7285 100.745h21.4542v4.66855h-21.4542z" fill="#029cfd"/><path d="m55.1133 54.0596h112.855v4.66855h-112.855z" fill="#029cfd"/><path d="m92.7305 112.415h75.2366v4.66855h-75.2366z" fill="#029cfd"/><path d="m92.7305 65.7295h75.2366v4.66855h-75.2366z" fill="#029cfd"/><path d="m92.7285 122.335h66.4198v4.66856h-66.4198z" fill="#029cfd"/><path d="m92.7305 77.4014h75.2366v4.66855h-75.2366z" fill="#029cfd"/><path d="m92.7285 134.007h48.3454v4.66855h-48.3454z" fill="#029cfd"/><path d="m92.7305 89.0732h54.2233v4.66855h-54.2233z" fill="#029cfd"/><path d="m92.7305 145.679h17.3397v4.66855h-17.3397z" fill="#029cfd"/></svg>