<svg width="1328" height="687" fill="none" xmlns="http://www.w3.org/2000/svg">
  <mask id="b" style="mask-type:alpha" maskUnits="userSpaceOnUse" x="-335" y="-145" width="2000" height="940">
    <path fill="url(#a)" d="M-334.98-144.413h1999v939h-1999z"/>
  </mask>
  <g mask="url(#b)" fill="#D9D9D9">
    <g opacity=".2">
      <path d="M63.02 373.41h1200v1h-1200zM63.02 269.41h1200v1h-1200zM63.02 165.41h1200v1h-1200zM63.02 529.41h1200v1h-1200zM63.02 633.41h1200v1h-1200zM63.02 425.41h1200v1h-1200zM63.02 321.41h1200v1h-1200zM63.02 217.41h1200v1h-1200zM63.02 581.41h1200v1h-1200zM63.02 659.41h1200v1h-1200zM63.02 477.41h1200v1h-1200zM63.02 607.41h1200v1h-1200zM63.02 685.41h1200v1h-1200zM63.02 139.41h1200v1h-1200zM63.02 87.41h1200v1h-1200zM63.02 35.41h1200v1h-1200zM63.02 295.41h1200v1h-1200zM63.02 451.41h1200v1h-1200zM63.02 191.41h1200v1h-1200zM63.02 113.41h1200v1h-1200zM63.02 61.41h1200v1h-1200zM63.02 347.41h1200v1h-1200zM63.02 503.41h1200v1h-1200zM63.02 243.41h1200v1h-1200zM63.02 399.41h1200v1h-1200zM63.02 555.41h1200v1h-1200z"/>
    </g>
    <g opacity=".2">
      <path d="M780.566 638.167V0h1v638.167zM1118.57 638.167V0h1v638.167zM312.566 638.167V0h1v638.167zM130.566 638.167V0h1v638.167zM728.566 638.167V0h1v638.167zM1066.57 638.167V0h1v638.167zM208.566 638.167V0h1v638.167zM52.566 638.167V0h1v638.167zM676.566 638.167V0h1v638.167zM1014.57 638.167V0h1v638.167zM104.566 638.167V0h1v638.167zM.566 638.167V0h1v638.167zM858.566 638.167V0h1v638.167zM1196.57 638.167V0h1v638.167zM468.566 638.167V0h1v638.167zM286.566 638.167V0h1v638.167zM936.566 638.167V0h1v638.167zM1274.57 638.167V0h1v638.167zM598.566 638.167V0h1v638.167zM442.566 638.167V0h1v638.167zM806.566 638.167V0h1v638.167zM1144.57 638.167V0h1v638.167zM364.566 638.167V0h1v638.167zM182.566 638.167V0h1v638.167zM754.566 638.167V0h1v638.167zM1092.57 638.167V0h1v638.167zM260.566 638.167V0h1v638.167zM78.566 638.167V0h1v638.167zM702.566 638.167V0h1v638.167zM1040.57 638.167V0h1v638.167zM156.566 638.167V0h1v638.167zM26.566 638.167V0h1v638.167zM884.566 638.167V0h1v638.167zM1222.57 638.167V0h1v638.167zM520.566 638.167V0h1v638.167zM338.566 638.167V0h1v638.167zM962.566 638.167V0h1v638.167zM1300.57 638.167V0h1v638.167zM624.566 638.167V0h1v638.167zM494.566 638.167V0h1v638.167zM832.566 638.167V0h1v638.167zM1170.57 638.167V0h1v638.167zM416.566 638.167V0h1v638.167zM234.566 638.167V0h1v638.167zM910.566 638.167V0h1v638.167zM1248.57 638.167V0h1v638.167zM572.566 638.167V0h1v638.167zM390.566 638.167V0h1v638.167zM988.566 638.167V0h1v638.167zM1326.57 638.167V0h1v638.167zM650.566 638.167V0h1v638.167zM546.566 638.167V0h1v638.167z"/>
    </g>
  </g>
  <defs>
    <radialGradient id="a" cx="0" cy="0" r="1" gradientUnits="userSpaceOnUse" gradientTransform="matrix(0 298.908 -636.333 0 664.52 325.087)">
      <stop stop-color="red"/>
      <stop offset="1" stop-color="red" stop-opacity="0"/>
    </radialGradient>
  </defs>
</svg>
