<svg fill="none" height="181" viewBox="0 0 181 181" width="181" xmlns="http://www.w3.org/2000/svg" xmlns:xlink="http://www.w3.org/1999/xlink"><linearGradient id="histogram_svg__a" gradientUnits="userSpaceOnUse" x1="58.2273" x2="58.2273" y1="28.5654" y2="146.734"><stop offset="0" stop-color="#5677fe"/><stop offset="1" stop-color="#9fb8f0"/></linearGradient><rect fill="#fff" height="180" rx="5" width="180" x=".970703" y=".694336"/><g clip-rule="evenodd" fill-rule="evenodd"><path d="m121.254 28.5654h19.397v118.1666h-19.397zm-.925 22.0977h-19.397v96.0709h19.397zm-39.7177 30.7402h19.3967v65.3277h-19.3967zm-.9233 7.6875h-19.397v57.6422h19.397zm-20.3203 37.4662h-19.397v20.175h19.397zm101.6033-45.1537h-19.397v65.3277h19.397z" fill="url(#histogram_svg__a)"/><path d="m19.5686 47.0577v.966h-4.4028v-.8824l2.2293-2.3965c.26-.2848.4505-.5465.5712-.7849.1208-.2384.1811-.4752.1811-.7106 0-.2972-.0851-.5217-.2554-.6734s-.4195-.2276-.7477-.2276c-.5883 0-1.1797.2261-1.7742.6781l-.3994-.8731c.2601-.2291.5929-.4134.9985-.5527s.8128-.209 1.2215-.209c.6564 0 1.1766.161 1.5605.483s.5759.7555.5759 1.3004c0 .3778-.0805.7323-.2415 1.0636s-.4335.7013-.8174 1.11l-1.607 1.7091zm3.2932 1.0506c-.7741 0-1.3654-.2864-1.7741-.8592s-.6131-1.4073-.6131-2.5033c0-1.0837.2044-1.9104.6131-2.4801s1-.8546 1.7741-.8546 1.3654.2849 1.7741.8546c.4088.5697.6131 1.3964.6131 2.4801 0 1.0899-.2043 1.9227-.6131 2.4986-.4087.5759-1 .8639-1.7741.8639zm-.0039-.9388c.4211 0 .7276-.1935.9195-.5806.192-.387.288-1.0016.288-1.8438 0-.836-.096-1.4444-.288-1.8252-.1919-.3809-.4984-.5713-.9195-.5713s-.7277.1904-.9196.5713c-.192.3808-.288.9892-.288 1.8252 0 .8422.096 1.4568.288 1.8438.1919.3871.4985.5806.9196.5806zm7.9358.8546h-1.4398l-1.9506-2.0714v2.0714h-1.1611v-6.5485h1.1611v3.9941l1.8298-1.9785h1.4119l-2.0435 2.1736z" fill="#666"/><path d="m18.167 86.2047h1.4212v.966h-4.0406v-.966h1.4212v-4.2171l-1.124.6781-.4737-.8731 1.9413-1.1704h.8546zm5.0417-3.2233c.4087 0 .7694.0882 1.0821.2647s.5542.4227.7245.7385.2555.6781.2555 1.0868c0 .4334-.0991.8143-.2973 1.1425-.1981.3282-.4783.5821-.8406.7616-.3622.1796-.788.2694-1.2772.2694-.4087 0-.8127-.0697-1.2122-.209-.3994-.1393-.7291-.3235-.9892-.5527l.3994-.8731c.5945.4521 1.2013.6781 1.8206.6781.4087 0 .7214-.1022.9382-.3066.2167-.2043.3251-.4953.3251-.8731 0-.3653-.11-.6548-.3298-.8685-.2198-.2136-.5186-.3204-.8963-.3204-.2539 0-.4939.0479-.7199.1439s-.4289.2338-.6084.4134h-.7153v-3.8548h4.1056v.9288h-2.9352v1.7649c.3158-.2229.706-.3344 1.1704-.3344zm7.5852 4.1892h-1.4398l-1.9506-2.0714v2.0714h-1.1611v-6.5485h1.1611v3.9941l1.8298-1.9785h1.4119l-2.0435 2.1736z" fill="#666"/><path d="m23.1989 121.058c.4087 0 .7694.088 1.0822.264.3127.177.5542.423.7245.739s.2554.678.2554 1.087c0 .433-.0991.814-.2972 1.142-.1982.328-.4784.582-.8407.762-.3622.179-.7879.269-1.2771.269-.4088 0-.8128-.069-1.2122-.209-.3994-.139-.7292-.323-.9893-.552l.3994-.874c.5945.452 1.2014.679 1.8206.679.4087 0 .7215-.103.9382-.307s.3251-.495.3251-.873c0-.366-.1099-.655-.3298-.869-.2198-.213-.5186-.32-.8963-.32-.2539 0-.4939.048-.7199.144s-.4288.234-.6084.413h-.7152v-3.855h4.1056v.929h-2.9353v1.765c.3159-.223.706-.334 1.1704-.334zm7.5869 4.189h-1.4397l-1.9506-2.072v2.072h-1.1611v-6.549h1.1611v3.994l1.8298-1.978h1.4119l-2.0435 2.173z" fill="#666"/><path d="m49.2913 162.134v.966h-4.4029v-.883l2.2293-2.396c.2601-.285.4505-.546.5713-.785.1207-.238.1811-.475.1811-.71 0-.298-.0852-.522-.2554-.674-.1703-.152-.4196-.227-.7478-.227-.5883 0-1.1796.226-1.7741.678l-.3994-.874c.26-.229.5929-.413.9985-.552.4056-.14.8128-.209 1.2215-.209.6564 0 1.1765.161 1.5605.483.3839.322.5759.755.5759 1.3 0 .378-.0805.732-.2415 1.064-.1611.331-.4335.701-.8175 1.11l-1.6069 1.709zm3.2873 1.05c-.7741 0-1.3654-.286-1.7741-.859s-.6131-1.407-.6131-2.503c0-1.084.2044-1.91.6131-2.48s1-.855 1.7741-.855 1.3654.285 1.7741.855.6131 1.396.6131 2.48c0 1.09-.2044 1.923-.6131 2.499s-1 .863-1.7741.863zm.0019-.939c.4211 0 .7276-.193.9196-.58s.2879-1.002.2879-1.844c0-.836-.0959-1.444-.2879-1.825s-.4985-.571-.9196-.571-.7276.19-.9196.571c-.1919.381-.2879.989-.2879 1.825 0 .842.096 1.457.2879 1.844.192.387.4985.58.9196.58zm8.7811-3.799c.514 0 .8979.154 1.1518.46.2539.307.3808.776.3808 1.407v2.787h-1.1611v-2.74c0-.347-.0588-.599-.1765-.757-.1176-.158-.3065-.237-.5666-.237-.3096 0-.5511.105-.7245.316-.1734.21-.2601.504-.2601.882v2.536h-1.1611v-2.74c0-.347-.0572-.599-.1718-.757s-.305-.237-.5713-.237c-.3034 0-.5418.105-.7152.316-.1734.21-.2601.504-.2601.882v2.536h-1.1611v-4.542h1.1333v.641c.1362-.248.3251-.435.5666-.562s.517-.191.8267-.191c.6873 0 1.1425.285 1.3654.855.1424-.266.3468-.475.6131-.627.2662-.152.5635-.228.8917-.228zm4.3888 4.728c-.4025 0-.7725-.049-1.11-.148s-.6239-.242-.8592-.428l.3251-.808c.483.353 1.0373.53 1.6627.53.2663 0 .4691-.044.6084-.13.1393-.087.209-.211.209-.372 0-.136-.048-.241-.144-.316-.0959-.074-.2678-.142-.5155-.204l-.7431-.167c-.4211-.093-.7338-.245-.9381-.455-.2044-.211-.3066-.483-.3066-.818 0-.278.079-.525.2369-.738.1579-.214.3777-.38.6595-.497.2818-.118.6084-.177.98-.177.322 0 .6331.05.9335.149.3003.099.565.238.7941.418l-.3251.79c-.4706-.341-.9412-.511-1.4118-.511-.2539 0-.4521.046-.5945.139s-.2137.223-.2137.39c0 .124.0449.226.1347.307.0898.08.2338.142.432.185l.7709.177c.4521.099.7834.255.9939.469.2106.214.3158.494.3158.841 0 .421-.1703.755-.5109 1.003-.3405.247-.8019.371-1.384.371z" fill="#666"/><path d="m91.0711 160.089c.3839.099.6796.286.887.562.2075.275.3112.618.3112 1.026 0 .57-.209 1.021-.627 1.352s-.9861.497-1.7045.497c-.4396 0-.8623-.068-1.2679-.205-.4056-.136-.7415-.322-1.0078-.557l.3994-.873c.5697.452 1.1797.678 1.8299.678.4149 0 .7245-.082.9289-.246.2043-.164.3065-.413.3065-.748 0-.328-.1037-.571-.3112-.729-.2074-.158-.5279-.237-.9614-.237h-.8638v-.947h.7059c.8484 0 1.2726-.319 1.2726-.957 0-.297-.0914-.526-.274-.687-.1827-.161-.4412-.242-.7756-.242-.2911 0-.5868.057-.8871.172-.3003.114-.5929.283-.8778.506l-.3994-.873c.2601-.235.5929-.421.9985-.557.4056-.137.819-.205 1.2401-.205.644 0 1.158.157 1.5419.469.3839.313.5759.736.5759 1.268-.0062.366-.1006.683-.2833.952-.1827.27-.435.463-.757.581zm4.5622 3.445c-.7741 0-1.3654-.286-1.7742-.859-.4087-.573-.613-1.407-.613-2.503 0-1.084.2043-1.911.613-2.481.4088-.569 1.0001-.854 1.7742-.854s1.3654.285 1.7741.854c.4087.57.6131 1.397.6131 2.481 0 1.089-.2044 1.922-.6131 2.498s-1 .864-1.7741.864zm-.0078-.937c.4211 0 .7276-.193.9196-.58.1919-.387.2879-1.002.2879-1.844 0-.836-.096-1.445-.2879-1.825-.192-.381-.4985-.572-.9196-.572s-.7276.191-.9196.572c-.1919.38-.2879.989-.2879 1.825 0 .842.096 1.457.2879 1.844.192.387.4985.58.9196.58zm8.7965-3.799c.514 0 .898.153 1.152.46.254.306.381.775.381 1.407v2.786h-1.161v-2.74c0-.346-.059-.599-.177-.757-.117-.158-.306-.237-.566-.237-.31 0-.552.106-.725.316-.173.211-.26.505-.26.883v2.535h-1.161v-2.74c0-.346-.057-.599-.172-.757s-.305-.237-.571-.237c-.304 0-.542.106-.715.316-.174.211-.261.505-.261.883v2.535h-1.1606v-4.542h1.1336v.641c.136-.247.325-.435.566-.562.242-.127.517-.19.827-.19.687 0 1.142.285 1.365.854.143-.266.347-.475.613-.627.267-.151.564-.227.892-.227zm4.379 4.728c-.402 0-.772-.05-1.11-.149-.337-.099-.624-.241-.859-.427l.325-.808c.483.353 1.037.529 1.663.529.266 0 .469-.043.608-.13.14-.086.209-.21.209-.371 0-.137-.048-.242-.144-.316s-.268-.143-.515-.205l-.743-.167c-.421-.093-.734-.244-.939-.455-.204-.21-.306-.483-.306-.817 0-.279.079-.525.237-.739.158-.213.378-.379.659-.497.282-.117.609-.176.98-.176.322 0 .633.049.934.148.3.1.565.239.794.418l-.325.79c-.471-.341-.941-.511-1.412-.511-.254 0-.452.047-.595.139-.142.093-.213.223-.213.391 0 .123.045.226.135.306.089.081.233.143.431.186l.771.176c.452.099.784.256.994.469.211.214.316.494.316.841 0 .421-.17.756-.511 1.003-.34.248-.802.372-1.384.372z" fill="#666"/><path d="m136.438 161.239v.929h-.919v1.282h-1.171v-1.282h-2.842v-.882l3.047-4.385h.966v4.338zm-3.819.001h1.728v-2.499zm6.858 2.294c-.774 0-1.365-.286-1.774-.859s-.613-1.407-.613-2.503c0-1.084.204-1.911.613-2.481.409-.569 1-.854 1.774-.854s1.365.285 1.774.854c.409.57.613 1.397.613 2.481 0 1.089-.204 1.922-.613 2.498s-1 .864-1.774.864zm.002-.937c.421 0 .728-.193.92-.58s.288-1.002.288-1.844c0-.836-.096-1.445-.288-1.825-.192-.381-.499-.572-.92-.572s-.728.191-.92.572c-.192.38-.288.989-.288 1.825 0 .842.096 1.457.288 1.844s.499.58.92.58zm8.787-3.799c.514 0 .898.153 1.152.46.254.306.381.775.381 1.407v2.786h-1.162v-2.74c0-.346-.058-.599-.176-.757s-.307-.237-.567-.237c-.309 0-.551.106-.724.316-.174.211-.26.505-.26.883v2.535h-1.161v-2.74c0-.346-.058-.599-.172-.757-.115-.158-.305-.237-.571-.237-.304 0-.542.106-.716.316-.173.211-.26.505-.26.883v2.535h-1.161v-4.542h1.133v.641c.137-.247.325-.435.567-.562.241-.127.517-.19.827-.19.687 0 1.142.285 1.365.854.143-.266.347-.475.613-.627.266-.151.564-.227.892-.227zm4.377 4.728c-.402 0-.772-.05-1.11-.149-.337-.099-.624-.241-.859-.427l.325-.808c.483.353 1.037.529 1.663.529.266 0 .469-.043.608-.13.139-.086.209-.21.209-.371 0-.137-.048-.242-.144-.316s-.268-.143-.515-.205l-.744-.167c-.421-.093-.733-.244-.938-.455-.204-.21-.306-.483-.306-.817 0-.279.079-.525.237-.739.158-.213.377-.379.659-.497.282-.117.609-.176.98-.176.322 0 .633.049.934.148.3.1.565.239.794.418l-.325.79c-.471-.341-.942-.511-1.412-.511-.254 0-.452.047-.595.139-.142.093-.213.223-.213.391 0 .123.045.226.134.306.09.081.234.143.432.186l.771.176c.452.099.784.256.994.469.211.214.316.494.316.841 0 .421-.17.756-.511 1.003-.341.248-.802.372-1.384.372z" fill="#666"/></g></svg>