<svg width="1200" height="320" viewBox="0 0 1200 320" fill="none" xmlns="http://www.w3.org/2000/svg">
<path d="M211.98 160C211.98 83.7847 273.765 22 349.98 22H849.98C926.196 22 987.98 83.7847 987.98 160" stroke="black"/>
<path d="M211.98 160C211.98 236.215 273.765 298 349.98 298H849.98C926.196 298 987.98 236.215 987.98 160" stroke="black"/>
<line x1="988" y1="162.5" x2="1200" y2="162.5" stroke="black"/>
<rect x="403.98" y="282" width="32" height="32" rx="16" fill="#FF4400"/>
<path d="M419.979 289C420.715 289 421.311 289.597 421.311 290.332V299.659C421.311 300.395 420.715 300.991 419.979 300.991C419.243 300.991 418.647 300.395 418.647 299.659V290.332C418.647 289.597 419.243 289 419.979 289Z" fill="white"/>
<path d="M421.978 304.988C421.978 306.092 421.083 306.987 419.979 306.987C418.875 306.987 417.98 306.092 417.98 304.988C417.98 303.885 418.875 302.99 419.979 302.99C421.083 302.99 421.978 303.885 421.978 304.988Z" fill="white"/>
<rect x="955.98" y="130" width="64" height="64" rx="8" fill="#FF4785"/>
<path fill-rule="evenodd" clip-rule="evenodd" d="M969.102 142.508L970.556 181.248C970.602 182.475 971.582 183.461 972.808 183.516L1004.31 184.931C1004.34 184.933 1004.38 184.933 1004.41 184.933C1005.71 184.933 1006.77 183.877 1006.77 182.574V140.36C1006.77 140.311 1006.77 140.262 1006.77 140.213C1006.69 138.912 1005.56 137.923 1004.26 138.005L971.313 140.064C970.035 140.144 969.054 141.228 969.102 142.508ZM997.139 138.45L1001.67 138.167L1001.86 143.583C1001.87 143.777 1001.72 143.94 1001.52 143.947C1001.44 143.95 1001.36 143.923 1001.29 143.872L999.548 142.497L997.482 144.064C997.327 144.182 997.106 144.151 996.989 143.996C996.94 143.931 996.914 143.851 996.918 143.769L997.139 138.45ZM991.13 156.145C991.13 157.063 997.314 156.623 998.144 155.978C998.144 149.727 994.79 146.442 988.647 146.442C982.504 146.442 979.063 149.778 979.063 154.782C979.063 159.796 982.954 161.981 986.261 163.837C988.703 165.208 990.825 166.4 990.825 168.419C990.825 169.754 990.172 170.546 988.734 170.546C986.861 170.546 986.12 169.59 986.207 166.337C986.207 165.631 979.063 165.411 978.845 166.337C978.29 174.22 983.201 176.493 988.821 176.493C994.267 176.493 998.536 173.591 998.536 168.336C998.536 162.854 994.425 160.675 991.028 158.875C988.637 157.608 986.6 156.528 986.6 154.616C986.6 152.739 987.994 152.489 988.821 152.489C989.693 152.489 991.261 152.642 991.13 156.145Z" fill="white"/>
<rect x="179.98" y="130" width="64" height="64" rx="8" fill="#F0EEE7"/>
<path d="M198.199 169.781L207.241 164.707L207.392 164.265L207.241 164.021H206.799L205.286 163.928L200.119 163.788L195.639 163.602L191.299 163.369L190.205 163.136L189.181 161.787L189.285 161.112L190.205 160.495L191.52 160.611L194.429 160.809L198.793 161.112L201.958 161.298L206.647 161.787H207.392L207.497 161.484L207.241 161.298L207.043 161.112L202.528 158.051L197.641 154.816L195.08 152.954L193.696 152.012L192.998 151.127L192.695 149.196L193.952 147.811L195.639 147.927L196.07 148.044L197.78 149.359L201.434 152.186L206.205 155.701L206.903 156.282L207.183 156.085L207.218 155.945L206.903 155.421L204.308 150.732L201.539 145.961L200.305 143.982L199.98 142.795C199.863 142.307 199.782 141.899 199.782 141.399L201.213 139.456L202.004 139.2L203.913 139.456L204.716 140.154L205.903 142.865L207.823 147.136L210.802 152.943L211.674 154.665L212.14 156.259L212.314 156.748H212.617V156.469L212.861 153.199L213.315 149.184L213.757 144.017L213.909 142.563L214.63 140.817L216.062 139.875L217.179 140.41L218.098 141.725L217.97 142.574L217.423 146.124L216.352 151.686L215.654 155.41H216.062L216.527 154.944L218.412 152.442L221.577 148.486L222.974 146.915L224.603 145.181L225.65 144.355H227.628L229.083 146.519L228.431 148.753L226.395 151.337L224.708 153.525L222.287 156.783L220.774 159.389L220.914 159.599L221.275 159.564L226.744 158.4L229.7 157.865L233.226 157.26L234.82 158.005L234.994 158.761L234.366 160.309L230.596 161.24L226.174 162.124L219.587 163.683L219.506 163.742L219.599 163.858L222.566 164.137L223.835 164.207H226.942L232.725 164.638L234.238 165.638L235.146 166.86L234.994 167.791L232.667 168.978L229.525 168.233L222.194 166.488L219.681 165.859H219.331V166.069L221.426 168.117L225.266 171.585L230.072 176.053L230.317 177.159L229.7 178.031L229.048 177.938L224.824 174.762L223.195 173.33L219.506 170.223H219.262V170.549L220.111 171.794L224.603 178.543L224.836 180.615L224.51 181.29L223.346 181.697L222.066 181.464L219.436 177.775L216.725 173.621L214.537 169.897L214.269 170.049L212.978 183.955L212.373 184.664L210.976 185.2L209.813 184.315L209.196 182.884L209.813 180.056L210.557 176.367L211.162 173.435L211.709 169.793L212.035 168.582L212.012 168.501L211.744 168.536L208.998 172.306L204.82 177.95L201.516 181.488L200.724 181.802L199.351 181.092L199.479 179.824L200.247 178.695L204.82 172.876L207.578 169.269L209.359 167.186L209.347 166.883H209.242L197.094 174.773L194.929 175.052L193.998 174.18L194.115 172.748L194.557 172.283L198.211 169.769L198.199 169.781Z" fill="#D97757"/>
<rect x="840.98" y="5" width="32" height="32" rx="16" fill="#6F2CAC"/>
<path d="M859.246 14.865C859.329 14.5605 859.15 14.2464 858.845 14.1633C858.541 14.0803 858.227 14.2598 858.143 14.5643L854.715 27.1357C854.632 27.4402 854.811 27.7543 855.116 27.8374C855.42 27.9204 855.734 27.7409 855.817 27.4364L859.246 14.865Z" fill="white"/>
<path d="M852.775 17.1327C853.017 17.3347 853.05 17.695 852.848 17.9375L850.296 21.0002L852.848 24.063C853.05 24.3054 853.017 24.6657 852.775 24.8678C852.532 25.0698 852.172 25.0371 851.97 24.7946L849.113 21.366C848.936 21.1541 848.936 20.8463 849.113 20.6344L851.97 17.2058C852.172 16.9634 852.532 16.9306 852.775 17.1327Z" fill="white"/>
<path d="M861.186 17.1327C860.944 17.3347 860.911 17.695 861.113 17.9375L863.665 21.0002L861.113 24.063C860.911 24.3054 860.944 24.6657 861.186 24.8678C861.429 25.0698 861.789 25.0371 861.991 24.7946L864.848 21.366C865.025 21.1541 865.025 20.8463 864.848 20.6344L861.991 17.2058C861.789 16.9634 861.429 16.9306 861.186 17.1327Z" fill="white"/>
<circle cx="1078.98" cy="160" r="16" fill="#66BF3C"/>
<path fill-rule="evenodd" clip-rule="evenodd" d="M1086.66 153.529L1076.45 164.317L1071.3 158.634C1070.94 158.238 1070.36 158.238 1070 158.634C1069.64 159.03 1069.64 159.673 1070 160.069L1075.78 166.45C1075.98 166.669 1076.21 166.768 1076.45 166.767C1076.68 166.768 1076.92 166.669 1077.1 166.47C1077.1 166.464 1087.96 154.964 1087.96 154.964C1088.32 154.568 1088.32 153.925 1087.96 153.529C1087.6 153.133 1087.02 153.133 1086.66 153.529Z" fill="white"/>
</svg>
