<svg width="1200" height="320" viewBox="0 0 1200 320" fill="none" xmlns="http://www.w3.org/2000/svg">
<mask id="path-1-inside-1_2231_36805" fill="white">
<path d="M0 150H181V174H0V150Z"/>
</mask>
<path d="M0 150H181V174H0V150Z" fill="#1C232E"/>
<path d="M0 150V151H181V150V149H0V150ZM181 174V173H0V174V175H181V174Z" fill="white" fill-opacity="0.1" mask="url(#path-1-inside-1_2231_36805)"/>
<mask id="path-3-inside-2_2231_36805" fill="white">
<path d="M1017.98 150H1199.98V174H1017.98V150Z"/>
</mask>
<path d="M1017.98 150H1199.98V174H1017.98V150Z" fill="#1C232E"/>
<path d="M1017.98 150V151H1199.98V150V149H1017.98V150ZM1199.98 174V173H1017.98V174V175H1199.98V174Z" fill="white" fill-opacity="0.1" mask="url(#path-3-inside-2_2231_36805)"/>
<mask id="path-5-inside-3_2231_36805" fill="white">
<path d="M849.98 10C932.823 10 999.98 77.1573 999.98 160C999.98 242.843 932.823 310 849.98 310H349.98C267.138 310 199.98 242.843 199.98 160C199.98 77.1573 267.138 10 349.98 10H849.98ZM349.98 34C280.393 34 223.98 90.4121 223.98 160C223.98 229.588 280.393 286 349.98 286H849.98C919.568 286 975.98 229.588 975.98 160C975.98 90.4121 919.568 34 849.98 34H349.98Z"/>
</mask>
<path d="M849.98 10C932.823 10 999.98 77.1573 999.98 160C999.98 242.843 932.823 310 849.98 310H349.98C267.138 310 199.98 242.843 199.98 160C199.98 77.1573 267.138 10 349.98 10H849.98ZM349.98 34C280.393 34 223.98 90.4121 223.98 160C223.98 229.588 280.393 286 349.98 286H849.98C919.568 286 975.98 229.588 975.98 160C975.98 90.4121 919.568 34 849.98 34H349.98Z" fill="#1C232E"/>
<path d="M849.98 10V11C932.271 11 998.98 77.7096 998.98 160H999.98H1000.98C1000.98 76.605 933.375 9 849.98 9V10ZM999.98 160H998.98C998.98 242.29 932.271 309 849.98 309V310V311C933.375 311 1000.98 243.395 1000.98 160H999.98ZM849.98 310V309H349.98V310V311H849.98V310ZM349.98 310V309C267.69 309 200.98 242.29 200.98 160H199.98H198.98C198.98 243.395 266.585 311 349.98 311V310ZM199.98 160H200.98C200.98 77.7096 267.69 11 349.98 11V10V9C266.585 9 198.98 76.605 198.98 160H199.98ZM349.98 10V11H849.98V10V9H349.98V10ZM349.98 34V33C279.84 33 222.98 89.8598 222.98 160H223.98H224.98C224.98 90.9644 280.945 35 349.98 35V34ZM223.98 160H222.98C222.98 230.14 279.84 287 349.98 287V286V285C280.945 285 224.98 229.036 224.98 160H223.98ZM349.98 286V287H849.98V286V285H349.98V286ZM849.98 286V287C920.121 287 976.98 230.14 976.98 160H975.98H974.98C974.98 229.036 919.016 285 849.98 285V286ZM975.98 160H976.98C976.98 89.8598 920.121 33 849.98 33V34V35C919.016 35 974.98 90.9644 974.98 160H975.98ZM849.98 34V33H349.98V34V35H849.98V34Z" fill="white" fill-opacity="0.2" mask="url(#path-5-inside-3_2231_36805)"/>
<path d="M562.579 21.721V25.516C562.205 25.6993 561.765 25.8423 561.259 25.945C560.753 26.0477 560.232 26.099 559.697 26.099C558.876 26.099 558.164 25.9413 557.563 25.626C556.962 25.3033 556.5 24.845 556.177 24.251C555.854 23.6497 555.693 22.9383 555.693 22.117C555.693 21.3103 555.851 20.61 556.166 20.016C556.489 19.4147 556.947 18.9527 557.541 18.63C558.135 18.3073 558.828 18.146 559.62 18.146C560.177 18.146 560.694 18.223 561.171 18.377C561.655 18.531 562.055 18.7437 562.37 19.015L561.831 20.236C561.472 19.9793 561.12 19.796 560.775 19.686C560.438 19.5687 560.071 19.51 559.675 19.51C558.179 19.51 557.431 20.379 557.431 22.117C557.431 23.0117 557.625 23.679 558.014 24.119C558.403 24.559 558.989 24.779 559.774 24.779C560.199 24.779 560.621 24.724 561.039 24.614V22.909H559.521V21.721H562.579ZM568.748 26V18.245H574.094V19.576H570.42V21.391H573.874V22.722H570.42V24.669H574.094V26H568.748ZM585.109 18.245H586.715V26H585.439L581.578 21.061V26H579.983V18.245H581.248L585.109 23.162V18.245ZM592.969 26V18.245H598.315V19.576H594.641V21.391H598.095V22.722H594.641V24.669H598.315V26H592.969ZM610.936 26H609.066L607.724 23.525C607.614 23.3343 607.482 23.1987 607.328 23.118C607.174 23.03 606.979 22.986 606.745 22.986H605.898V26H604.204V18.245H607.768C608.677 18.245 609.363 18.4467 609.825 18.85C610.294 19.246 610.529 19.8217 610.529 20.577C610.529 21.1637 610.364 21.655 610.034 22.051C609.711 22.447 609.253 22.7073 608.659 22.832C609.062 22.9347 609.403 23.2243 609.682 23.701L610.936 26ZM607.515 21.688C608.006 21.688 608.362 21.6037 608.582 21.435C608.802 21.259 608.912 20.9877 608.912 20.621C608.912 20.247 608.802 19.9757 608.582 19.807C608.362 19.6383 608.006 19.554 607.515 19.554H605.876V21.688H607.515ZM622.442 26L621.705 24.284H618.097L617.36 26H615.633L619.197 18.245H620.572L624.136 26H622.442ZM618.658 22.986H621.144L619.901 20.082L618.658 22.986ZM630.303 26V19.642H627.872V18.245H634.45V19.642H632.019V26H630.303ZM640.067 26V18.245H645.413V19.576H641.739V21.391H645.193V22.722H641.739V24.669H645.413V26H640.067Z" fill="#D9E8F2"/>
<path d="M581.563 302V295.642H579.132V294.245H585.71V295.642H583.279V302H581.563ZM591.327 302V294.245H596.673V295.576H592.999V297.391H596.453V298.722H592.999V300.669H596.673V302H591.327ZM605.171 302.099C604.585 302.099 604.02 302.022 603.477 301.868C602.935 301.707 602.484 301.487 602.124 301.208L602.674 299.987C603.422 300.508 604.262 300.768 605.193 300.768C605.677 300.768 606.048 300.691 606.304 300.537C606.568 300.376 606.7 300.156 606.7 299.877C606.7 299.628 606.579 299.433 606.337 299.294C606.103 299.155 605.681 299.019 605.072 298.887C604.39 298.748 603.844 298.579 603.433 298.381C603.03 298.183 602.733 297.941 602.542 297.655C602.359 297.362 602.267 297.002 602.267 296.577C602.267 296.108 602.396 295.69 602.652 295.323C602.916 294.956 603.283 294.67 603.752 294.465C604.222 294.252 604.764 294.146 605.38 294.146C605.93 294.146 606.458 294.227 606.964 294.388C607.478 294.549 607.885 294.766 608.185 295.037L607.635 296.258C606.924 295.737 606.176 295.477 605.391 295.477C604.944 295.477 604.592 295.565 604.335 295.741C604.079 295.91 603.95 296.144 603.95 296.445C603.95 296.621 603.998 296.768 604.093 296.885C604.196 296.995 604.361 297.094 604.588 297.182C604.823 297.27 605.153 297.362 605.578 297.457C606.576 297.677 607.291 297.959 607.723 298.304C608.163 298.649 608.383 299.125 608.383 299.734C608.383 300.467 608.101 301.047 607.536 301.472C606.972 301.89 606.183 302.099 605.171 302.099ZM615.966 302V295.642H613.535V294.245H620.113V295.642H617.682V302H615.966Z" fill="#D9E8F2"/>
</svg>
