<svg width="1200" height="320" fill="none" xmlns="http://www.w3.org/2000/svg">
  <mask id="a" fill="#fff">
    <path d="M0 150h181v24H0v-24Z"/>
  </mask>
  <path d="M0 150h181v24H0v-24Z" fill="#1C232E"/>
  <path d="M0 150v1h181v-2H0v1Zm181 24v-1H0v2h181v-1Z" fill="#fff" fill-opacity=".1" mask="url(#a)"/>
  <mask id="b" fill="#fff">
    <path d="M1017.98 150h182v24h-182v-24Z"/>
  </mask>
  <path d="M1017.98 150h182v24h-182v-24Z" fill="#1C232E"/>
  <path d="M1017.98 150v1h182v-2h-182v1Zm182 24v-1h-182v2h182v-1Z" fill="#fff" fill-opacity=".1" mask="url(#b)"/>
  <mask id="c" fill="#fff">
    <path d="M849.98 10c82.843 0 150 67.157 150 150s-67.157 150-150 150h-500c-82.842 0-150-67.157-150-150s67.158-150 150-150h500Zm-500 24c-69.587 0-126 56.412-126 126s56.413 126 126 126h500c69.588 0 126-56.412 126-126s-56.412-126-126-126h-500Z"/>
  </mask>
  <path d="M849.98 10c82.843 0 150 67.157 150 150s-67.157 150-150 150h-500c-82.842 0-150-67.157-150-150s67.158-150 150-150h500Zm-500 24c-69.587 0-126 56.412-126 126s56.413 126 126 126h500c69.588 0 126-56.412 126-126s-56.412-126-126-126h-500Z" fill="#1C232E"/>
  <path d="M849.98 10v1c82.291 0 149 66.71 149 149h2c0-83.395-67.605-151-151-151v1Zm150 150h-1c0 82.29-66.709 149-149 149v2c83.395 0 151-67.605 151-151h-1Zm-150 150v-1h-500v2h500v-1Zm-500 0v-1c-82.29 0-149-66.71-149-149h-2c0 83.395 67.605 151 151 151v-1Zm-150-150h1c0-82.29 66.71-149 149-149V9c-83.395 0-151 67.605-151 151h1Zm150-150v1h500V9h-500v1Zm0 24v-1c-70.14 0-127 56.86-127 127h2c0-69.036 55.965-125 125-125v-1Zm-126 126h-1c0 70.14 56.86 127 127 127v-2c-69.035 0-125-55.964-125-125h-1Zm126 126v1h500v-2h-500v1Zm500 0v1c70.141 0 127-56.86 127-127h-2c0 69.036-55.964 125-125 125v1Zm126-126h1c0-70.14-56.859-127-127-127v2c69.036 0 125 55.964 125 125h1Zm-126-126v-1h-500v2h500v-1Z" fill="#fff" fill-opacity=".2" mask="url(#c)"/>
  <rect x="403.98" y="282" width="32" height="32" rx="16" fill="#F40"/>
  <path d="M419.979 289c.736 0 1.332.597 1.332 1.332v9.327a1.332 1.332 0 1 1-2.664 0v-9.327c0-.735.596-1.332 1.332-1.332ZM421.978 304.988a1.999 1.999 0 1 1-3.998 0 1.999 1.999 0 0 1 3.998 0Z" fill="#fff"/>
  <rect x="955.98" y="130" width="64" height="64" rx="8" fill="#FF4785"/>
  <path fill-rule="evenodd" clip-rule="evenodd" d="m969.102 142.508 1.454 38.74a2.36 2.36 0 0 0 2.252 2.268l31.502 1.415a2.362 2.362 0 0 0 2.46-2.357v-42.361a2.366 2.366 0 0 0-2.51-2.208l-32.947 2.059a2.36 2.36 0 0 0-2.211 2.444Zm28.037-4.058 4.531-.283.19 5.416a.347.347 0 0 1-.34.364.368.368 0 0 1-.23-.075l-1.742-1.375-2.066 1.567a.351.351 0 0 1-.564-.295l.221-5.319Zm-6.009 17.695c0 .918 6.184.478 7.014-.167 0-6.251-3.354-9.536-9.497-9.536s-9.584 3.336-9.584 8.34c0 5.014 3.891 7.199 7.198 9.055 2.442 1.371 4.564 2.563 4.564 4.582 0 1.335-.653 2.127-2.091 2.127-1.873 0-2.614-.956-2.527-4.209 0-.706-7.144-.926-7.362 0-.555 7.883 4.356 10.156 9.976 10.156 5.446 0 9.715-2.902 9.715-8.157 0-5.482-4.111-7.661-7.508-9.461-2.391-1.267-4.428-2.347-4.428-4.259 0-1.877 1.394-2.127 2.221-2.127.872 0 2.44.153 2.309 3.656Z" fill="#fff"/>
  <rect x="179.98" y="130" width="64" height="64" rx="8" fill="#F0EEE7"/>
  <path d="m198.199 169.781 9.042-5.073.151-.443-.151-.244h-.442l-1.513-.093-5.167-.14-4.48-.186-4.34-.233-1.094-.232-1.024-1.35.104-.675.92-.617 1.315.117 2.909.197 4.364.303 3.165.186 4.689.489h.745l.105-.303-.256-.186-.198-.186-4.515-3.061-4.887-3.235-2.561-1.861-1.384-.943-.698-.884-.303-1.932 1.257-1.385 1.687.116.431.117 1.71 1.315 3.654 2.828 4.771 3.514.698.582.28-.198.035-.14-.315-.523-2.595-4.69-2.769-4.771-1.234-1.978-.325-1.187c-.117-.489-.198-.896-.198-1.397l1.431-1.943.791-.256 1.909.256.803.698 1.187 2.712 1.92 4.27 2.979 5.807.872 1.722.466 1.594.174.489h.303v-.279l.244-3.27.454-4.015.442-5.166.152-1.455.721-1.746 1.432-.942 1.117.535.919 1.315-.128.85-.547 3.549-1.071 5.562-.698 3.724h.408l.465-.466 1.885-2.501 3.165-3.957 1.397-1.571 1.629-1.734 1.047-.826h1.978l1.455 2.164-.652 2.235-2.036 2.583-1.687 2.188-2.421 3.258-1.513 2.607.14.209.361-.035 5.469-1.163 2.956-.536 3.526-.605 1.594.745.174.756-.628 1.548-3.77.931-4.422.884-6.587 1.56-.081.058.093.116 2.967.279 1.269.07h3.107l5.783.431 1.513 1.001.908 1.221-.152.931-2.327 1.187-3.142-.744-7.331-1.746-2.513-.628h-.35v.209l2.095 2.048 3.84 3.468 4.806 4.468.245 1.106-.617.873-.652-.093-4.224-3.177-1.629-1.432-3.689-3.107h-.244v.326l.849 1.245 4.492 6.75.233 2.071-.326.675-1.164.407-1.28-.232-2.63-3.689-2.711-4.155-2.188-3.723-.268.151-1.291 13.906-.605.71-1.397.535-1.163-.884-.617-1.432.617-2.827.744-3.689.605-2.933.547-3.642.326-1.21-.023-.082-.268.035-2.746 3.77-4.178 5.644-3.304 3.538-.792.314-1.373-.71.128-1.268.768-1.129 4.573-5.818 2.758-3.608 1.781-2.083-.012-.302h-.105l-12.148 7.889-2.165.28-.931-.873.117-1.431.442-.466 3.654-2.513-.012.011Z" fill="#D97757"/>
  <path d="M562.579 21.721v3.795a5.473 5.473 0 0 1-1.32.429 7.836 7.836 0 0 1-1.562.154c-.821 0-1.533-.158-2.134-.473a3.344 3.344 0 0 1-1.386-1.375c-.323-.601-.484-1.313-.484-2.134 0-.807.158-1.507.473-2.101a3.342 3.342 0 0 1 1.375-1.386c.594-.323 1.287-.484 2.079-.484.557 0 1.074.077 1.551.231.484.154.884.367 1.199.638l-.539 1.221a3.835 3.835 0 0 0-1.056-.55 3.326 3.326 0 0 0-1.1-.176c-1.496 0-2.244.869-2.244 2.607 0 .895.194 1.562.583 2.002.389.44.975.66 1.76.66.425 0 .847-.055 1.265-.165v-1.705h-1.518v-1.188h3.058ZM568.748 26v-7.755h5.346v1.331h-3.674v1.815h3.454v1.331h-3.454v1.947h3.674V26h-5.346Zm16.361-7.755h1.606V26h-1.276l-3.861-4.939V26h-1.595v-7.755h1.265l3.861 4.917v-4.917Zm7.86 7.755v-7.755h5.346v1.331h-3.674v1.815h3.454v1.331h-3.454v1.947h3.674V26h-5.346Zm17.967 0h-1.87l-1.342-2.475a1.01 1.01 0 0 0-.396-.407 1.164 1.164 0 0 0-.583-.132h-.847V26h-1.694v-7.755h3.564c.909 0 1.595.202 2.057.605.469.396.704.972.704 1.727 0 .587-.165 1.078-.495 1.474-.323.396-.781.656-1.375.781.403.103.744.392 1.023.869L610.936 26Zm-3.421-4.312c.491 0 .847-.084 1.067-.253.22-.176.33-.447.33-.814 0-.374-.11-.645-.33-.814-.22-.169-.576-.253-1.067-.253h-1.639v2.134h1.639ZM622.442 26l-.737-1.716h-3.608L617.36 26h-1.727l3.564-7.755h1.375L624.136 26h-1.694Zm-3.784-3.014h2.486l-1.243-2.904-1.243 2.904ZM630.303 26v-6.358h-2.431v-1.397h6.578v1.397h-2.431V26h-1.716Zm9.764 0v-7.755h5.346v1.331h-3.674v1.815h3.454v1.331h-3.454v1.947h3.674V26h-5.346ZM581.563 302v-6.358h-2.431v-1.397h6.578v1.397h-2.431V302h-1.716Zm9.764 0v-7.755h5.346v1.331h-3.674v1.815h3.454v1.331h-3.454v1.947h3.674V302h-5.346Zm13.844.099a6.18 6.18 0 0 1-1.694-.231c-.542-.161-.993-.381-1.353-.66l.55-1.221a4.305 4.305 0 0 0 2.519.781c.484 0 .855-.077 1.111-.231.264-.161.396-.381.396-.66 0-.249-.121-.444-.363-.583-.234-.139-.656-.275-1.265-.407-.682-.139-1.228-.308-1.639-.506-.403-.198-.7-.44-.891-.726-.183-.293-.275-.653-.275-1.078 0-.469.129-.887.385-1.254.264-.367.631-.653 1.1-.858.47-.213 1.012-.319 1.628-.319.55 0 1.078.081 1.584.242.514.161.921.378 1.221.649l-.55 1.221c-.711-.521-1.459-.781-2.244-.781-.447 0-.799.088-1.056.264a.8.8 0 0 0-.385.704c0 .176.048.323.143.44.103.11.268.209.495.297.235.088.565.18.99.275.998.22 1.713.502 2.145.847.44.345.66.821.66 1.43 0 .733-.282 1.313-.847 1.738-.564.418-1.353.627-2.365.627Zm10.795-.099v-6.358h-2.431v-1.397h6.578v1.397h-2.431V302h-1.716Z" fill="#D9E8F2"/>
  <mask id="d" style="mask-type:alpha" maskUnits="userSpaceOnUse" x="546" y="107" width="107" height="106">
    <path d="M650.98 160c0-28.167-22.833-51-51-51-28.166 0-51 22.833-51 51s22.834 51 51 51v2c-29.271 0-53-23.729-53-53s23.729-53 53-53c29.272 0 53 23.729 53 53s-23.728 53-53 53v-2c28.167 0 51-22.833 51-51Z" fill="#1EA7FD"/>
  </mask>
  <g mask="url(#d)">
    <g clip-path="url(#e)">
      <path fill="#002C69" d="M712.651 94.76H470.967v147.001h241.684z"/>
      <g clip-path="url(#f)">
        <path d="M452.91 94.76h277.798v163.438H452.91V94.761Z" fill="#001F5B"/>
        <path d="M730.592 529.745c-117.049 0-211.937-94.887-211.937-211.936s94.888-211.936 211.937-211.936 211.936 94.887 211.936 211.936-94.887 211.936-211.936 211.936Z" fill="url(#g)"/>
        <path d="M600.258 287.599c-107.205 0-194.111-86.907-194.111-194.111 0-107.205 86.906-194.112 194.111-194.112 107.205 0 194.111 86.907 194.111 194.111 0 107.205-86.906 194.112-194.111 194.112Z" fill="url(#h)"/>
        <path d="M700.96 287.599c-107.204 0-194.111-86.907-194.111-194.111 0-107.205 86.907-194.112 194.111-194.112 107.205 0 194.111 86.907 194.111 194.111 0 107.205-86.906 194.112-194.111 194.112Z" fill="url(#i)"/>
        <g filter="url(#j)">
          <path d="M542.774 326.265c47.317 0 85.675-38.358 85.675-85.675s-38.358-85.674-85.675-85.674c-47.316 0-85.674 38.357-85.674 85.674 0 47.317 38.358 85.675 85.674 85.675Z" fill="#FF3C00"/>
        </g>
        <g opacity=".95" filter="url(#k)">
          <path d="M469.005 304.577c45.478 0 82.345-36.867 82.345-82.345s-36.867-82.345-82.345-82.345-82.345 36.867-82.345 82.345 36.867 82.345 82.345 82.345Z" fill="#F05"/>
        </g>
        <g opacity=".7" filter="url(#l)">
          <g filter="url(#m)" style="mix-blend-mode:screen">
            <path d="M461.822 246.161c-83.551 0-151.283-67.732-151.283-151.284 0-83.552 67.732-151.284 151.283-151.284 83.552 0 151.284 67.732 151.284 151.284 0 83.552-67.732 151.284-151.284 151.284Z" fill="#006BFF"/>
          </g>
        </g>
      </g>
    </g>
    <g clip-path="url(#n)" style="mix-blend-mode:color-dodge" opacity=".5">
      <path fill="#006AFF" d="M712.651 94.76H470.967v147.001h241.684z"/>
      <g clip-path="url(#o)">
        <path d="M689.558 368.703c-70.892 0-128.362-57.47-128.362-128.363 0-70.892 57.47-128.362 128.362-128.362 70.893 0 128.363 57.47 128.363 128.362 0 70.893-57.47 128.363-128.363 128.363Z" fill="url(#p)"/>
        <path d="M610.62 222.043c-64.93 0-117.566-52.637-117.566-117.567 0-64.93 52.636-117.566 117.566-117.566s117.567 52.636 117.567 117.566S675.55 222.043 610.62 222.043Z" fill="url(#q)"/>
        <path d="M671.611 222.043c-64.93 0-117.566-52.637-117.566-117.567 0-64.93 52.636-117.566 117.566-117.566 64.931 0 117.567 52.636 117.567 117.566s-52.636 117.567-117.567 117.567Z" fill="url(#r)"/>
        <g filter="url(#s)">
          <path d="M575.805 245.461c28.659 0 51.891-23.232 51.891-51.89s-23.232-51.89-51.891-51.89c-28.658 0-51.89 23.232-51.89 51.89s23.232 51.89 51.89 51.89Z" fill="#FF3C00"/>
        </g>
        <g opacity=".95" filter="url(#t)">
          <path d="M531.125 232.327c27.545 0 49.874-22.33 49.874-49.874 0-27.544-22.329-49.873-49.874-49.873-27.544 0-49.873 22.329-49.873 49.873 0 27.544 22.329 49.874 49.873 49.874Z" fill="#F05"/>
        </g>
        <g opacity=".7" filter="url(#u)">
          <g filter="url(#v)" style="mix-blend-mode:screen">
            <path d="M526.774 196.945c-50.604 0-91.627-41.023-91.627-91.628 0-50.604 41.023-91.627 91.627-91.627 50.604 0 91.627 41.023 91.627 91.627 0 50.605-41.023 91.628-91.627 91.628Z" fill="#006BFF"/>
          </g>
        </g>
      </g>
    </g>
  </g>
  <rect x="840.98" y="5" width="32" height="32" rx="16" fill="#6F2CAC"/>
  <path d="M859.246 14.865a.571.571 0 1 0-1.103-.301l-3.428 12.572a.571.571 0 1 0 1.102.3l3.429-12.571ZM852.775 17.132a.572.572 0 0 1 .073.805L850.296 21l2.552 3.063a.572.572 0 0 1-.878.731l-2.857-3.428a.57.57 0 0 1 0-.732l2.857-3.428a.572.572 0 0 1 .805-.074ZM861.186 17.132a.572.572 0 0 0-.073.805L863.665 21l-2.552 3.063a.572.572 0 0 0 .878.731l2.857-3.428a.57.57 0 0 0 0-.732l-2.857-3.428a.572.572 0 0 0-.805-.074Z" fill="#fff"/>
  <circle cx="1078.98" cy="160" r="16" fill="#66BF3C"/>
  <path fill-rule="evenodd" clip-rule="evenodd" d="m1086.66 153.529-10.21 10.788-5.15-5.683a.86.86 0 0 0-1.3 0 1.088 1.088 0 0 0 0 1.435l5.78 6.381c.2.219.43.317.67.317a.88.88 0 0 0 .65-.297 20261 20261 0 0 1 10.86-11.506c.36-.397.36-1.039 0-1.435a.86.86 0 0 0-1.3 0Z" fill="#fff"/>
  <defs>
    <filter id="j" x="387.65" y="85.466" width="310.248" height="310.249" filterUnits="userSpaceOnUse" color-interpolation-filters="sRGB">
      <feFlood flood-opacity="0" result="BackgroundImageFix"/>
      <feBlend in="SourceGraphic" in2="BackgroundImageFix" result="shape"/>
      <feGaussianBlur stdDeviation="34.725" result="effect1_foregroundBlur_2190_38652"/>
    </filter>
    <filter id="k" x="312.581" y="65.808" width="312.848" height="312.848" filterUnits="userSpaceOnUse" color-interpolation-filters="sRGB">
      <feFlood flood-opacity="0" result="BackgroundImageFix"/>
      <feBlend in="SourceGraphic" in2="BackgroundImageFix" result="shape"/>
      <feGaussianBlur stdDeviation="37.04" result="effect1_foregroundBlur_2190_38652"/>
    </filter>
    <filter id="l" x="250.349" y="-116.596" width="422.947" height="422.947" filterUnits="userSpaceOnUse" color-interpolation-filters="sRGB">
      <feFlood flood-opacity="0" result="BackgroundImageFix"/>
      <feBlend in="SourceGraphic" in2="BackgroundImageFix" result="shape"/>
      <feGaussianBlur stdDeviation="30.095" result="effect1_foregroundBlur_2190_38652"/>
    </filter>
    <filter id="m" x="303.593" y="-63.352" width="316.458" height="316.458" filterUnits="userSpaceOnUse" color-interpolation-filters="sRGB">
      <feFlood flood-opacity="0" result="BackgroundImageFix"/>
      <feBlend in="SourceGraphic" in2="BackgroundImageFix" result="shape"/>
      <feGaussianBlur stdDeviation="3.472" result="effect1_foregroundBlur_2190_38652"/>
    </filter>
    <filter id="s" x="481.852" y="99.618" width="187.906" height="187.907" filterUnits="userSpaceOnUse" color-interpolation-filters="sRGB">
      <feFlood flood-opacity="0" result="BackgroundImageFix"/>
      <feBlend in="SourceGraphic" in2="BackgroundImageFix" result="shape"/>
      <feGaussianBlur stdDeviation="21.032" result="effect1_foregroundBlur_2190_38652"/>
    </filter>
    <filter id="t" x="436.385" y="87.713" width="189.482" height="189.481" filterUnits="userSpaceOnUse" color-interpolation-filters="sRGB">
      <feFlood flood-opacity="0" result="BackgroundImageFix"/>
      <feBlend in="SourceGraphic" in2="BackgroundImageFix" result="shape"/>
      <feGaussianBlur stdDeviation="22.434" result="effect1_foregroundBlur_2190_38652"/>
    </filter>
    <filter id="u" x="398.692" y="-22.765" width="256.164" height="256.164" filterUnits="userSpaceOnUse" color-interpolation-filters="sRGB">
      <feFlood flood-opacity="0" result="BackgroundImageFix"/>
      <feBlend in="SourceGraphic" in2="BackgroundImageFix" result="shape"/>
      <feGaussianBlur stdDeviation="18.227" result="effect1_foregroundBlur_2190_38652"/>
    </filter>
    <filter id="v" x="430.94" y="9.484" width="191.667" height="191.667" filterUnits="userSpaceOnUse" color-interpolation-filters="sRGB">
      <feFlood flood-opacity="0" result="BackgroundImageFix"/>
      <feBlend in="SourceGraphic" in2="BackgroundImageFix" result="shape"/>
      <feGaussianBlur stdDeviation="2.103" result="effect1_foregroundBlur_2190_38652"/>
    </filter>
    <radialGradient id="g" cx="0" cy="0" r="1" gradientUnits="userSpaceOnUse" gradientTransform="rotate(90 206.391 524.2) scale(211.936)">
      <stop stop-color="red"/>
      <stop offset="1" stop-color="#F55" stop-opacity="0"/>
    </radialGradient>
    <radialGradient id="h" cx="0" cy="0" r="1" gradientUnits="userSpaceOnUse" gradientTransform="rotate(90 253.385 346.873) scale(194.111)">
      <stop stop-color="orange"/>
      <stop offset="1" stop-color="gold" stop-opacity="0"/>
    </radialGradient>
    <radialGradient id="i" cx="0" cy="0" r="1" gradientUnits="userSpaceOnUse" gradientTransform="rotate(90 303.736 397.224) scale(194.111)">
      <stop stop-color="orange"/>
      <stop offset="1" stop-color="gold" stop-opacity="0"/>
    </radialGradient>
    <radialGradient id="p" cx="0" cy="0" r="1" gradientUnits="userSpaceOnUse" gradientTransform="rotate(90 224.609 464.949) scale(128.362)">
      <stop stop-color="red"/>
      <stop offset="1" stop-color="#F55" stop-opacity="0"/>
    </radialGradient>
    <radialGradient id="q" cx="0" cy="0" r="1" gradientUnits="userSpaceOnUse" gradientTransform="rotate(90 253.072 357.548) scale(117.566)">
      <stop stop-color="orange"/>
      <stop offset="1" stop-color="gold" stop-opacity="0"/>
    </radialGradient>
    <radialGradient id="r" cx="0" cy="0" r="1" gradientUnits="userSpaceOnUse" gradientTransform="rotate(90 283.567 388.044) scale(117.566)">
      <stop stop-color="orange"/>
      <stop offset="1" stop-color="gold" stop-opacity="0"/>
    </radialGradient>
    <clipPath id="e">
      <path fill="#fff" d="M712.651 94.76H470.967v147.001h241.684z"/>
    </clipPath>
    <clipPath id="f">
      <path fill="#fff" d="M730.708 94.76H452.91v163.438h277.798z"/>
    </clipPath>
    <clipPath id="n">
      <path fill="#fff" d="M712.651 94.76H470.967v147.001h241.684z"/>
    </clipPath>
    <clipPath id="o">
      <path fill="#fff" d="M730.708 94.76H452.91V258.2h277.798z"/>
    </clipPath>
  </defs>
</svg>
