<svg fill="none" height="181" viewBox="0 0 181 181" width="181" xmlns="http://www.w3.org/2000/svg"><rect fill="#fff" height="180" rx="5" width="180" x=".970703" y=".694336"/><g fill="#2e3438"><path d="m18.1104 40.5982c.5693.1587 1.008.448 1.316.868.3173.42.476.9334.476 1.54 0 .84-.3034 1.498-.91 1.974-.5974.476-1.4234.714-2.478.714h-4.48v-9.87h4.34c1.0266 0 1.8293.2287 2.408.686.588.448.882 1.078.882 1.89 0 .5227-.14.9754-.42 1.358-.2707.3827-.6487.6627-1.134.84zm-4.312-.616h2.282c1.2413 0 1.862-.462 1.862-1.386 0-.4666-.154-.812-.462-1.036s-.7747-.336-1.4-.336h-2.282zm2.52 4.312c.6533 0 1.1293-.1166 1.428-.35.2986-.2333.448-.5973.448-1.092 0-.4946-.154-.8633-.462-1.106-.2987-.2426-.77-.364-1.414-.364h-2.52v2.912z"/><path d="m24.559 45.8062c-.7 0-1.316-.1446-1.848-.434-.5227-.2893-.9287-.7046-1.218-1.246-.2893-.5413-.434-1.1713-.434-1.89 0-.7186.1447-1.344.434-1.876.2893-.5413.6953-.9566 1.218-1.246.532-.2893 1.148-.434 1.848-.434s1.3113.1447 1.834.434c.532.2894.938.7047 1.218 1.246.2893.532.434 1.1574.434 1.876 0 .7187-.1447 1.3487-.434 1.89-.28.5414-.686.9567-1.218 1.246-.5227.2894-1.134.434-1.834.434zm-.014-1.358c.5693 0 1.0033-.1866 1.302-.56.2987-.3733.448-.924.448-1.652 0-.7186-.1493-1.2646-.448-1.638-.2987-.3826-.728-.574-1.288-.574s-.994.1914-1.302.574c-.2987.3734-.448.9194-.448 1.638 0 .728.1493 1.2787.448 1.652.2987.3734.728.56 1.288.56z"/><path d="m36.0977 35.8242v9.87h-1.736v-1.106c-.2053.3827-.504.6814-.896.896-.3826.2147-.8213.322-1.316.322-.588 0-1.1153-.1493-1.582-.448-.4573-.2986-.8166-.7186-1.078-1.26-.252-.5506-.378-1.1806-.378-1.89 0-.7093.126-1.33.378-1.862.2614-.532.6207-.9426 1.078-1.232.4574-.2893.9847-.434 1.582-.434.4947 0 .9334.1027 1.316.308.3827.2054.6767.4947.882.868v-4.032zm-3.486 8.624c.56 0 .9894-.1913 1.288-.574.308-.3826.462-.9286.462-1.638 0-.7093-.154-1.2506-.462-1.624-.2986-.3826-.7233-.574-1.274-.574-.56 0-.994.1867-1.302.56-.308.3734-.462.91-.462 1.61 0 .7094.154 1.26.462 1.652s.7374.588 1.288.588z"/><path d="m42.6999 38.8622h1.722l-4.116 9.352h-1.764l1.246-2.786-2.856-6.566h1.848l1.932 4.83z"/><path d="m49.9011 44.2382h2.142v1.456h-6.09v-1.456h2.142v-6.356l-1.694 1.022-.714-1.316 2.926-1.764h1.288z"/><path d="m57.5676 39.3662c.5787 0 1.0967.1354 1.554.406.4573.2614.812.6347 1.064 1.12.2613.476.392 1.022.392 1.638 0 .6347-.14 1.204-.42 1.708-.28.4947-.672.882-1.176 1.162s-1.0733.42-1.708.42c-1.2507 0-2.2167-.42-2.898-1.26-.672-.8493-1.008-2.058-1.008-3.626 0-1.0826.1587-2.016.476-2.8.3267-.7933.7933-1.3953 1.4-1.806.6067-.42 1.3253-.63 2.156-.63.588 0 1.162.1027 1.722.308.56.196 1.0453.476 1.456.84l-.602 1.316c-.868-.6813-1.7033-1.022-2.506-1.022-.7187 0-1.2787.308-1.68.924-.4013.6067-.6113 1.4887-.63 2.646.2147-.42.5367-.7466.966-.98.4293-.2426.91-.364 1.442-.364zm-.378 5.026c.5133 0 .9193-.1633 1.218-.49.308-.3266.462-.7653.462-1.316 0-.5413-.154-.9753-.462-1.302-.308-.3266-.7187-.49-1.232-.49s-.9333.168-1.26.504c-.3173.3267-.476.756-.476 1.288 0 .5414.1587.98.476 1.316.3267.3267.7513.49 1.274.49z"/><path d="m78.7649 35.8242h1.12l-3.444 9.87h-.98l-2.814-8.078-2.814 8.078h-.966l-3.458-9.87h1.162l2.8 8.246 2.87-8.246.868.014 2.828 8.246z"/><path d="m83.3978 38.7082c.868 0 1.512.224 1.932.672.4294.4387.644 1.1107.644 2.016v4.298h-1.106v-1.162c-.1773.4014-.448.714-.812.938-.364.2147-.784.322-1.26.322-.4386 0-.8446-.0886-1.218-.266-.364-.1773-.6533-.4246-.868-.742-.2146-.3173-.322-.6673-.322-1.05 0-.5133.1307-.91.392-1.19.2614-.2893.6907-.4946 1.288-.616.5974-.1306 1.428-.196 2.492-.196h.308v-.462c0-.5693-.1166-.98-.35-1.232-.2333-.2613-.6113-.392-1.134-.392-.784 0-1.5633.2427-2.338.728l-.378-.826c.3547-.252.7794-.4526 1.274-.602.504-.1586.9894-.238 1.456-.238zm-.448 6.188c.56 0 1.0174-.1866 1.372-.56.364-.3826.546-.8726.546-1.47v-.406h-.252c-.8213 0-1.4466.0374-1.876.112-.4293.0654-.7373.182-.924.35-.1773.1587-.266.3967-.266.714 0 .364.1307.6674.392.91.2707.2334.6067.35 1.008.35z"/><path d="m90.3597 45.7922c-1.148 0-2.058-.294-2.73-.882l.378-.84c.364.2894.7326.4994 1.106.63.3826.1214.812.182 1.288.182.504 0 .8866-.084 1.148-.252.2706-.1773.406-.4293.406-.756 0-.2706-.0887-.4853-.266-.644-.1774-.1586-.4714-.2846-.882-.378l-1.148-.266c-.5787-.1306-1.022-.3546-1.33-.672-.308-.3173-.462-.7093-.462-1.176 0-.6066.238-1.0966.714-1.47.476-.3733 1.1106-.56 1.904-.56.476 0 .9286.0794 1.358.238.4293.1494.7886.3687 1.078.658l-.378.826c-.6254-.532-1.3114-.798-2.058-.798-.476 0-.8494.0934-1.12.28-.2614.1774-.392.4294-.392.756 0 .2707.0793.49.238.658.168.1587.434.28.798.364l1.162.28c.6346.1494 1.106.378 1.414.686.308.2987.462.6907.462 1.176 0 .5974-.2427 1.0734-.728 1.428-.476.3547-1.1294.532-1.96.532z"/><path d="m101.816 38.7082c1.633 0 2.45.9007 2.45 2.702v4.284h-1.134v-4.214c0-.6346-.126-1.0966-.378-1.386-.243-.2893-.635-.434-1.176-.434-.626 0-1.125.1914-1.498.574-.3737.3827-.5604.9007-.5604 1.554v3.906h-1.134v-9.87h1.134v4.144c.224-.4106.5324-.7233.9244-.938.401-.2146.858-.322 1.372-.322z"/><path d="m112.055 42.4602h-4.984c.037.7934.252 1.3954.644 1.806.392.4014.947.602 1.666.602.793 0 1.521-.2706 2.184-.812l.378.826c-.299.28-.682.504-1.148.672-.467.1587-.943.238-1.428.238-1.064 0-1.904-.3126-2.52-.938-.607-.6253-.91-1.4886-.91-2.59 0-.7.135-1.316.406-1.848.27-.5413.648-.9613 1.134-1.26.494-.2986 1.054-.448 1.68-.448.905 0 1.614.2987 2.128.896.513.588.77 1.4.77 2.436zm-2.884-2.87c-.598 0-1.078.1867-1.442.56-.355.3734-.565.9007-.63 1.582h3.962c-.019-.6906-.192-1.218-.518-1.582-.327-.3733-.784-.56-1.372-.56z"/><path d="m120.107 38.7082c.868 0 1.512.224 1.932.672.429.4387.644 1.1107.644 2.016v4.298h-1.106v-1.162c-.178.4014-.448.714-.812.938-.364.2147-.784.322-1.26.322-.439 0-.845-.0886-1.218-.266-.364-.1773-.654-.4246-.868-.742-.215-.3173-.322-.6673-.322-1.05 0-.5133.13-.91.392-1.19.261-.2893.69-.4946 1.288-.616.597-.1306 1.428-.196 2.492-.196h.308v-.462c0-.5693-.117-.98-.35-1.232-.234-.2613-.612-.392-1.134-.392-.784 0-1.564.2427-2.338.728l-.378-.826c.354-.252.779-.4526 1.274-.602.504-.1586.989-.238 1.456-.238zm-.448 6.188c.56 0 1.017-.1866 1.372-.56.364-.3826.546-.8726.546-1.47v-.406h-.252c-.822 0-1.447.0374-1.876.112-.43.0654-.738.182-.924.35-.178.1587-.266.3967-.266.714 0 .364.13.6674.392.91.27.2334.606.35 1.008.35z"/><path d="m128.189 38.7082c1.633 0 2.45.9007 2.45 2.702v4.284h-1.134v-4.214c0-.6346-.126-1.0966-.378-1.386-.243-.2893-.635-.434-1.176-.434-.626 0-1.125.1914-1.498.574-.374.3827-.56.9007-.56 1.554v3.906h-1.134v-6.818h1.12v1.12c.224-.42.536-.7373.938-.952.401-.224.858-.336 1.372-.336z"/><path d="m14.7924 58.7082c.868 0 1.512.224 1.932.672.4293.4387.644 1.1107.644 2.016v4.298h-1.106v-1.162c-.1774.4014-.448.714-.812.938-.364.2147-.784.322-1.26.322-.4387 0-.8447-.0886-1.218-.266-.364-.1773-.6534-.4246-.868-.742-.2147-.3173-.322-.6673-.322-1.05 0-.5133.1306-.91.392-1.19.2613-.2893.6906-.4946 1.288-.616.5973-.1306 1.428-.196 2.492-.196h.308v-.462c0-.5693-.1167-.98-.35-1.232-.2334-.2613-.6114-.392-1.134-.392-.784 0-1.5634.2427-2.338.728l-.378-.826c.3546-.252.7793-.4526 1.274-.602.504-.1586.9893-.238 1.456-.238zm-.448 6.188c.56 0 1.0173-.1866 1.372-.56.364-.3826.546-.8726.546-1.47v-.406h-.252c-.8214 0-1.4467.0374-1.876.112-.4294.0654-.7374.182-.924.35-.1774.1587-.266.3967-.266.714 0 .364.1306.6674.392.91.2706.2334.6066.35 1.008.35z"/><path d="m22.8742 58.7082c1.6333 0 2.45.9007 2.45 2.702v4.284h-1.134v-4.214c0-.6346-.126-1.0966-.378-1.386-.2427-.2893-.6347-.434-1.176-.434-.6253 0-1.1247.1914-1.498.574-.3733.3827-.56.9007-.56 1.554v3.906h-1.134v-6.818h1.12v1.12c.224-.42.5367-.7373.938-.952.4013-.224.8587-.336 1.372-.336z"/><path d="m27.4012 65.6942v-6.818h1.134v6.818zm-.112-9.772h1.372v1.274h-1.372z"/><path d="m38.2431 58.7082c1.512 0 2.268.9007 2.268 2.702v4.284h-1.134v-4.228c0-.6253-.112-1.0826-.336-1.372-.2146-.2893-.5646-.434-1.05-.434-.5693 0-1.0173.1914-1.344.574-.3266.3827-.49.9054-.49 1.568v3.892h-1.134v-4.228c0-.6346-.112-1.092-.336-1.372-.224-.2893-.5786-.434-1.064-.434-.5693 0-1.0173.1914-1.344.574-.3266.3827-.49.9054-.49 1.568v3.892h-1.134v-6.818h1.12v1.078c.2054-.4013.49-.7093.854-.924.364-.2146.784-.322 1.26-.322 1.0547 0 1.75.448 2.086 1.344.196-.42.4947-.7466.896-.98.4014-.2426.8587-.364 1.372-.364z"/><path d="m45.349 58.7082c.868 0 1.512.224 1.932.672.4293.4387.644 1.1107.644 2.016v4.298h-1.106v-1.162c-.1773.4014-.448.714-.812.938-.364.2147-.784.322-1.26.322-.4387 0-.8447-.0886-1.218-.266-.364-.1773-.6533-.4246-.868-.742-.2147-.3173-.322-.6673-.322-1.05 0-.5133.1307-.91.392-1.19.2613-.2893.6907-.4946 1.288-.616.5973-.1306 1.428-.196 2.492-.196h.308v-.462c0-.5693-.1167-.98-.35-1.232-.2333-.2613-.6113-.392-1.134-.392-.784 0-1.5633.2427-2.338.728l-.378-.826c.3547-.252.7793-.4526 1.274-.602.504-.1586.9893-.238 1.456-.238zm-.448 6.188c.56 0 1.0173-.1866 1.372-.56.364-.3826.546-.8726.546-1.47v-.406h-.252c-.8213 0-1.4467.0374-1.876.112-.4293.0654-.7373.182-.924.35-.1773.1587-.266.3967-.266.714 0 .364.1307.6674.392.91.2707.2334.6067.35 1.008.35z"/><path d="m50.0008 65.6942v-9.87h1.134v9.87z"/><path d="m54.5147 64.2662v1.008c0 .392-.0653.7467-.196 1.064-.1213.3267-.336.644-.644.952l-.532-.406c.364-.4013.5694-.798.616-1.19h-.672v-1.428z"/><path d="m63.0593 64.8822c.2054 0 .4107-.014.616-.042l-.056.896c-.2146.0374-.448.056-.7.056-.8213 0-1.442-.2146-1.862-.644-.4106-.4293-.616-1.0266-.616-1.792v-3.584h-1.33v-.896h1.33v-2.072h1.134v2.072h1.932v.896h-1.932v3.5c0 1.0734.4947 1.61 1.484 1.61z"/><path d="m68.2511 58.7082c1.6334 0 2.45.9007 2.45 2.702v4.284h-1.134v-4.214c0-.6346-.126-1.0966-.378-1.386-.2426-.2893-.6346-.434-1.176-.434-.6253 0-1.1246.1914-1.498.574-.3733.3827-.56.9007-.56 1.554v3.906h-1.134v-9.87h1.134v4.144c.224-.4106.532-.7233.924-.938.4014-.2146.8587-.322 1.372-.322z"/><path d="m75.5502 58.7082c.868 0 1.512.224 1.932.672.4293.4387.644 1.1107.644 2.016v4.298h-1.106v-1.162c-.1774.4014-.448.714-.812.938-.364.2147-.784.322-1.26.322-.4387 0-.8447-.0886-1.218-.266-.364-.1773-.6534-.4246-.868-.742-.2147-.3173-.322-.6673-.322-1.05 0-.5133.1306-.91.392-1.19.2613-.2893.6906-.4946 1.288-.616.5973-.1306 1.428-.196 2.492-.196h.308v-.462c0-.5693-.1167-.98-.35-1.232-.2334-.2613-.6114-.392-1.134-.392-.784 0-1.5634.2427-2.338.728l-.378-.826c.3546-.252.7793-.4526 1.274-.602.504-.1586.9893-.238 1.456-.238zm-.448 6.188c.56 0 1.0173-.1866 1.372-.56.364-.3826.546-.8726.546-1.47v-.406h-.252c-.8214 0-1.4467.0374-1.876.112-.4294.0654-.7374.182-.924.35-.1774.1587-.266.3967-.266.714 0 .364.1306.6674.392.91.2706.2334.6066.35 1.008.35z"/><path d="m83.198 64.8822c.2053 0 .4107-.014.616-.042l-.056.896c-.2147.0374-.448.056-.7.056-.8213 0-1.442-.2146-1.862-.644-.4107-.4293-.616-1.0266-.616-1.792v-3.584h-1.33v-.896h1.33v-2.072h1.134v2.072h1.932v.896h-1.932v3.5c0 1.0734.4947 1.61 1.484 1.61z"/><path d="m96.1572 58.7082c1.512 0 2.268.9007 2.268 2.702v4.284h-1.134v-4.228c0-.6253-.112-1.0826-.336-1.372-.2147-.2893-.5647-.434-1.05-.434-.5693 0-1.0173.1914-1.344.574-.3267.3827-.49.9054-.49 1.568v3.892h-1.134v-4.228c0-.6346-.112-1.092-.336-1.372-.224-.2893-.5787-.434-1.064-.434-.5694 0-1.0173.1914-1.344.574-.3267.3827-.49.9054-.49 1.568v3.892h-1.134v-6.818h1.12v1.078c.2053-.4013.49-.7093.854-.924.364-.2146.784-.322 1.26-.322 1.0546 0 1.75.448 2.086 1.344.196-.42.4947-.7466.896-.98.4013-.2426.8587-.364 1.372-.364z"/><path d="m106.231 58.8762v6.818h-1.106v-1.162c-.215.4107-.518.7234-.91.938-.383.2147-.817.322-1.302.322-.812 0-1.423-.224-1.834-.672-.411-.4573-.616-1.1293-.616-2.016v-4.228h1.134v4.2c0 .6067.121 1.0547.364 1.344.243.28.625.42 1.148.42.597 0 1.078-.1913 1.442-.574.364-.392.546-.9053.546-1.54v-3.85z"/><path d="m110.649 65.7922c-1.148 0-2.058-.294-2.73-.882l.378-.84c.364.2894.732.4994 1.106.63.382.1214.812.182 1.288.182.504 0 .886-.084 1.148-.252.27-.1773.406-.4293.406-.756 0-.2706-.089-.4853-.266-.644-.178-.1586-.472-.2846-.882-.378l-1.148-.266c-.579-.1306-1.022-.3546-1.33-.672-.308-.3173-.462-.7093-.462-1.176 0-.6066.238-1.0966.714-1.47.476-.3733 1.11-.56 1.904-.56.476 0 .928.0794 1.358.238.429.1494.788.3687 1.078.658l-.378.826c-.626-.532-1.312-.798-2.058-.798-.476 0-.85.0934-1.12.28-.262.1774-.392.4294-.392.756 0 .2707.079.49.238.658.168.1587.434.28.798.364l1.162.28c.634.1494 1.106.378 1.414.686.308.2987.462.6907.462 1.176 0 .5974-.243 1.0734-.728 1.428-.476.3547-1.13.532-1.96.532z"/><path d="m115.065 65.6942v-6.818h1.134v6.818zm-.112-9.772h1.372v1.274h-1.372z"/><path d="m121.203 65.7922c-.672 0-1.255-.1446-1.75-.434-.494-.2893-.877-.6953-1.148-1.218-.261-.532-.392-1.1526-.392-1.862 0-.7093.136-1.33.406-1.862.28-.5413.668-.9613 1.162-1.26.504-.2986 1.092-.448 1.764-.448.458 0 .906.084 1.344.252.439.1587.794.3734 1.064.644l-.378.84c-.644-.5226-1.297-.784-1.96-.784-.7 0-1.246.2287-1.638.686-.392.4574-.588 1.1014-.588 1.932 0 .8214.196 1.456.588 1.904s.938.672 1.638.672c.663 0 1.316-.2613 1.96-.784l.378.84c-.289.2707-.653.4854-1.092.644-.438.1587-.891.238-1.358.238z"/><path d="m131.512 65.7922c-.672 0-1.256-.1446-1.75-.434-.495-.2893-.878-.6953-1.148-1.218-.262-.532-.392-1.1526-.392-1.862 0-.7093.135-1.33.406-1.862.28-.5413.667-.9613 1.162-1.26.504-.2986 1.092-.448 1.764-.448.457 0 .905.084 1.344.252.438.1587.793.3734 1.064.644l-.378.84c-.644-.5226-1.298-.784-1.96-.784-.7 0-1.246.2287-1.638.686-.392.4574-.588 1.1014-.588 1.932 0 .8214.196 1.456.588 1.904s.938.672 1.638.672c.662 0 1.316-.2613 1.96-.784l.378.84c-.29.2707-.654.4854-1.092.644-.439.1587-.892.238-1.358.238z"/><path d="m138.155 65.7922c-.644 0-1.213-.1446-1.708-.434-.485-.2893-.863-.7-1.134-1.232-.261-.5413-.392-1.1666-.392-1.876 0-.7093.131-1.33.392-1.862.271-.5413.649-.9566 1.134-1.246.495-.2893 1.064-.434 1.708-.434s1.213.1447 1.708.434c.495.2894.873.7047 1.134 1.246.271.532.406 1.1527.406 1.862 0 .7094-.135 1.3347-.406 1.876-.261.532-.639.9427-1.134 1.232-.495.2894-1.064.434-1.708.434zm0-.938c.672 0 1.185-.2193 1.54-.658.364-.448.546-1.0966.546-1.946 0-.8306-.182-1.47-.546-1.918-.364-.4573-.877-.686-1.54-.686s-1.176.2287-1.54.686c-.364.448-.546 1.0874-.546 1.918 0 .84.177 1.484.532 1.932.364.448.882.672 1.554.672z"/><path d="m148.833 58.8762v6.818h-1.106v-1.162c-.215.4107-.518.7234-.91.938-.383.2147-.817.322-1.302.322-.812 0-1.424-.224-1.834-.672-.411-.4573-.616-1.1293-.616-2.016v-4.228h1.134v4.2c0 .6067.121 1.0547.364 1.344.242.28.625.42 1.148.42.597 0 1.078-.1913 1.442-.574.364-.392.546-.9053.546-1.54v-3.85z"/><path d="m150.94 65.6942v-9.87h1.134v9.87z"/><path d="m160.242 55.8242v9.87h-1.134v-1.246c-.205.4294-.508.7607-.91.994-.392.2334-.854.35-1.386.35-.597 0-1.124-.1493-1.582-.448-.457-.2986-.812-.714-1.064-1.246-.252-.5413-.378-1.1666-.378-1.876 0-.7.126-1.316.378-1.848s.607-.9426 1.064-1.232c.458-.2893.985-.434 1.582-.434.532 0 .994.1167 1.386.35.402.2334.705.5647.91.994v-4.228zm-3.206 9.03c.663 0 1.172-.224 1.526-.672.364-.4573.546-1.1013.546-1.932 0-.8306-.182-1.47-.546-1.918-.354-.448-.863-.672-1.526-.672-.662 0-1.18.224-1.554.672-.364.448-.546 1.078-.546 1.89 0 .8307.182 1.4794.546 1.946.374.4574.892.686 1.554.686z"/><path d="m19.6084 78.7082c1.512 0 2.268.9007 2.268 2.702v4.284h-1.134v-4.228c0-.6253-.112-1.0826-.336-1.372-.2147-.2893-.5647-.434-1.05-.434-.5694 0-1.0174.1914-1.344.574-.3267.3827-.49.9054-.49 1.568v3.892h-1.134v-4.228c0-.6346-.112-1.092-.336-1.372-.224-.2893-.5787-.434-1.064-.434-.5694 0-1.0174.1914-1.344.574-.3267.3827-.49.9054-.49 1.568v3.892h-1.134v-6.818h1.12v1.078c.2053-.4013.49-.7093.854-.924.364-.2146.784-.322 1.26-.322 1.0546 0 1.75.448 2.086 1.344.196-.42.4946-.7466.896-.98.4013-.2426.8586-.364 1.372-.364z"/><path d="m26.7702 85.7922c-.644 0-1.2133-.1446-1.708-.434-.4853-.2893-.8633-.7-1.134-1.232-.2613-.5413-.392-1.1666-.392-1.876 0-.7093.1307-1.33.392-1.862.2707-.5413.6487-.9566 1.134-1.246.4947-.2893 1.064-.434 1.708-.434s1.2134.1447 1.708.434c.4947.2894.8727.7047 1.134 1.246.2707.532.406 1.1527.406 1.862 0 .7094-.1353 1.3347-.406 1.876-.2613.532-.6393.9427-1.134 1.232-.4946.2894-1.064.434-1.708.434zm0-.938c.672 0 1.1854-.2193 1.54-.658.364-.448.546-1.0966.546-1.946 0-.8306-.182-1.47-.546-1.918-.364-.4573-.8773-.686-1.54-.686-.6626 0-1.176.2287-1.54.686-.364.448-.546 1.0874-.546 1.918 0 .84.1774 1.484.532 1.932.364.448.882.672 1.554.672z"/><path d="m36.5118 78.8902h1.134l-2.94 6.804h-1.064l-2.926-6.804h1.204l2.282 5.572z"/><path d="m44.4472 82.4602h-4.984c.0373.7934.252 1.3954.644 1.806.392.4014.9473.602 1.666.602.7933 0 1.5213-.2706 2.184-.812l.378.826c-.2987.28-.6813.504-1.148.672-.4667.1587-.9427.238-1.428.238-1.064 0-1.904-.3126-2.52-.938-.6067-.6253-.91-1.4886-.91-2.59 0-.7.1353-1.316.406-1.848.2707-.5413.6487-.9613 1.134-1.26.4947-.2986 1.0547-.448 1.68-.448.9053 0 1.6147.2987 2.128.896.5133.588.77 1.4.77 2.436zm-2.884-2.87c-.5973 0-1.078.1867-1.442.56-.3547.3734-.5647.9007-.63 1.582h3.962c-.0187-.6906-.1913-1.218-.518-1.582-.3267-.3733-.784-.56-1.372-.56z"/><path d="m53.1574 78.7082c1.6333 0 2.45.9007 2.45 2.702v4.284h-1.134v-4.214c0-.6346-.126-1.0966-.378-1.386-.2427-.2893-.6347-.434-1.176-.434-.6253 0-1.1247.1914-1.498.574-.3733.3827-.56.9007-.56 1.554v3.906h-1.134v-9.87h1.134v4.144c.224-.4106.532-.7233.924-.938.4013-.2146.8587-.322 1.372-.322z"/><path d="m57.6844 85.6942v-6.818h1.134v6.818zm-.112-9.772h1.372v1.274h-1.372z"/><path d="m68.5263 78.7082c1.512 0 2.268.9007 2.268 2.702v4.284h-1.134v-4.228c0-.6253-.112-1.0826-.336-1.372-.2146-.2893-.5646-.434-1.05-.434-.5693 0-1.0173.1914-1.344.574-.3266.3827-.49.9054-.49 1.568v3.892h-1.134v-4.228c0-.6346-.112-1.092-.336-1.372-.224-.2893-.5786-.434-1.064-.434-.5693 0-1.0173.1914-1.344.574-.3266.3827-.49.9054-.49 1.568v3.892h-1.134v-6.818h1.12v1.078c.2054-.4013.49-.7093.854-.924.364-.2146.784-.322 1.26-.322 1.0547 0 1.75.448 2.086 1.344.196-.42.4947-.7466.896-.98.4014-.2426.8587-.364 1.372-.364z"/><path d="m78.7796 85.7922c-1.148 0-2.058-.294-2.73-.882l.378-.84c.364.2894.7326.4994 1.106.63.3826.1214.812.182 1.288.182.504 0 .8867-.084 1.148-.252.2706-.1773.406-.4293.406-.756 0-.2706-.0887-.4853-.266-.644-.1773-.1586-.4714-.2846-.882-.378l-1.148-.266c-.5787-.1306-1.022-.3546-1.33-.672-.308-.3173-.462-.7093-.462-1.176 0-.6066.238-1.0966.714-1.47.476-.3733 1.1106-.56 1.904-.56.476 0 .9286.0794 1.358.238.4293.1494.7886.3687 1.078.658l-.378.826c-.6254-.532-1.3114-.798-2.058-.798-.476 0-.8494.0934-1.12.28-.2614.1774-.392.4294-.392.756 0 .2707.0793.49.238.658.168.1587.434.28.798.364l1.162.28c.6346.1494 1.106.378 1.414.686.308.2987.462.6907.462 1.176 0 .5974-.2427 1.0734-.728 1.428-.476.3547-1.1294.532-1.96.532z"/><path d="m86.0241 85.7922c-.644 0-1.2133-.1446-1.708-.434-.4853-.2893-.8633-.7-1.134-1.232-.2613-.5413-.392-1.1666-.392-1.876 0-.7093.1307-1.33.392-1.862.2707-.5413.6487-.9566 1.134-1.246.4947-.2893 1.064-.434 1.708-.434s1.2134.1447 1.708.434c.4947.2894.8727.7047 1.134 1.246.2707.532.406 1.1527.406 1.862 0 .7094-.1353 1.3347-.406 1.876-.2613.532-.6393.9427-1.134 1.232-.4946.2894-1.064.434-1.708.434zm0-.938c.672 0 1.1854-.2193 1.54-.658.364-.448.546-1.0966.546-1.946 0-.8306-.182-1.47-.546-1.918-.364-.4573-.8773-.686-1.54-.686-.6626 0-1.176.2287-1.54.686-.364.448-.546 1.0874-.546 1.918 0 .84.1774 1.484.532 1.932.364.448.882.672 1.554.672z"/><path d="m92.337 82.7682c0-.5786.1027-1.0686.3081-1.47.2053-.4106.5039-.8633.8959-1.358.3174-.4013.5507-.742.7001-1.022.1586-.28.2379-.5926.2379-.938 0-.4013-.14-.714-.42-.938-.28-.2333-.6626-.35-1.148-.35-.4386 0-.8866.098-1.344.294-.4573.1867-.9053.462-1.344.826l-.448-.882c.4014-.3733.8914-.6673 1.47-.882.5787-.224 1.1527-.336 1.722-.336.7934 0 1.4374.2007 1.932.602.4947.4014.742.9287.742 1.582 0 .4947-.1073.924-.322 1.288-.2146.364-.5366.7887-.9659 1.274-.4014.4574-.7094.8587-.9241 1.204-.2146.3454-.3453.7467-.392 1.204l-.028.252h-.672zm-.364 2.926v-1.428h1.428v1.428z"/><path d="m107.851 75.8242h1.134v9.87h-1.134v-4.522h-5.908v4.522h-1.134v-9.87h1.134v4.368h5.908z"/><path d="m116.963 82.4602h-4.984c.037.7934.252 1.3954.644 1.806.392.4014.947.602 1.666.602.793 0 1.521-.2706 2.184-.812l.378.826c-.299.28-.682.504-1.148.672-.467.1587-.943.238-1.428.238-1.064 0-1.904-.3126-2.52-.938-.607-.6253-.91-1.4886-.91-2.59 0-.7.135-1.316.406-1.848.27-.5413.648-.9613 1.134-1.26.494-.2986 1.054-.448 1.68-.448.905 0 1.614.2987 2.128.896.513.588.77 1.4.77 2.436zm-2.884-2.87c-.598 0-1.078.1867-1.442.56-.355.3734-.565.9007-.63 1.582h3.962c-.019-.6906-.192-1.218-.518-1.582-.327-.3733-.784-.56-1.372-.56z"/><path d="m123.755 78.8762h1.932v.896h-1.932v5.922h-1.134v-5.922h-1.33v-.896h1.33v-.224c0-.9053.224-1.5913.672-2.058.457-.4666 1.157-.728 2.1-.784l.56-.028.084.882-.644.042c-.569.0374-.985.2007-1.246.49-.261.28-.392.714-.392 1.302z"/><path d="m132.48 82.4602h-4.984c.038.7934.252 1.3954.644 1.806.392.4014.948.602 1.666.602.794 0 1.522-.2706 2.184-.812l.378.826c-.298.28-.681.504-1.148.672-.466.1587-.942.238-1.428.238-1.064 0-1.904-.3126-2.52-.938-.606-.6253-.91-1.4886-.91-2.59 0-.7.136-1.316.406-1.848.271-.5413.649-.9613 1.134-1.26.495-.2986 1.055-.448 1.68-.448.906 0 1.615.2987 2.128.896.514.588.77 1.4.77 2.436zm-2.884-2.87c-.597 0-1.078.1867-1.442.56-.354.3734-.564.9007-.63 1.582h3.962c-.018-.6906-.191-1.218-.518-1.582-.326-.3733-.784-.56-1.372-.56z"/><path d="m134.151 85.6942v-9.87h1.134v9.87z"/><path d="m140.401 84.8822c.205 0 .411-.014.616-.042l-.056.896c-.215.0374-.448.056-.7.056-.821 0-1.442-.2146-1.862-.644-.411-.4293-.616-1.0266-.616-1.792v-3.584h-1.33v-.896h1.33v-2.072h1.134v2.072h1.932v.896h-1.932v3.5c0 1.0734.495 1.61 1.484 1.61z"/><path d="m148.544 78.7082c.868 0 1.512.224 1.932.672.43.4387.644 1.1107.644 2.016v4.298h-1.106v-1.162c-.177.4014-.448.714-.812.938-.364.2147-.784.322-1.26.322-.438 0-.844-.0886-1.218-.266-.364-.1773-.653-.4246-.868-.742-.214-.3173-.322-.6673-.322-1.05 0-.5133.131-.91.392-1.19.262-.2893.691-.4946 1.288-.616.598-.1306 1.428-.196 2.492-.196h.308v-.462c0-.5693-.116-.98-.35-1.232-.233-.2613-.611-.392-1.134-.392-.784 0-1.563.2427-2.338.728l-.378-.826c.355-.252.78-.4526 1.274-.602.504-.1586.99-.238 1.456-.238zm-.448 6.188c.56 0 1.018-.1866 1.372-.56.364-.3826.546-.8726.546-1.47v-.406h-.252c-.821 0-1.446.0374-1.876.112-.429.0654-.737.182-.924.35-.177.1587-.266.3967-.266.714 0 .364.131.6674.392.91.271.2334.607.35 1.008.35z"/><path d="m155.506 85.7922c-1.148 0-2.058-.294-2.73-.882l.378-.84c.364.2894.733.4994 1.106.63.383.1214.812.182 1.288.182.504 0 .887-.084 1.148-.252.271-.1773.406-.4293.406-.756 0-.2706-.089-.4853-.266-.644-.177-.1586-.471-.2846-.882-.378l-1.148-.266c-.579-.1306-1.022-.3546-1.33-.672-.308-.3173-.462-.7093-.462-1.176 0-.6066.238-1.0966.714-1.47.476-.3733 1.111-.56 1.904-.56.476 0 .929.0794 1.358.238.429.1494.789.3687 1.078.658l-.378.826c-.625-.532-1.311-.798-2.058-.798-.476 0-.849.0934-1.12.28-.261.1774-.392.4294-.392.756 0 .2707.079.49.238.658.168.1587.434.28.798.364l1.162.28c.635.1494 1.106.378 1.414.686.308.2987.462.6907.462 1.176 0 .5974-.243 1.0734-.728 1.428-.476.3547-1.129.532-1.96.532z"/><path d="m163.532 85.6942v-6.818h1.134v6.818zm-.112-9.772h1.372v1.274h-1.372z"/><path d="m168.298 78.8762h1.932v.896h-1.932v5.922h-1.134v-5.922h-1.33v-.896h1.33v-.224c0-.9053.224-1.5913.672-2.058.457-.4666 1.157-.728 2.1-.784l.56-.028.084.882-.644.042c-.569.0374-.985.2007-1.246.49-.261.28-.392.714-.392 1.302z"/><path d="m15.0164 104.882c.2053 0 .4106-.014.616-.042l-.056.896c-.2147.038-.448.056-.7.056-.8214 0-1.442-.214-1.862-.644-.4107-.429-.616-1.026-.616-1.792v-3.5838h-1.33v-.896h1.33v-2.072h1.134v2.072h1.932v.896h-1.932v3.4998c0 1.074.4946 1.61 1.484 1.61z"/><path d="m20.2082 98.7082c1.6333 0 2.45.9007 2.45 2.7018v4.284h-1.134v-4.214c0-.634-.126-1.096-.378-1.386-.2427-.2891-.6347-.4338-1.176-.4338-.6254 0-1.1247.1914-1.498.5738-.3734.383-.56.901-.56 1.554v3.906h-1.134v-9.8698h1.134v4.144c.224-.4106.532-.7233.924-.938.4013-.2146.8586-.322 1.372-.322z"/><path d="m30.4472 102.46h-4.984c.0373.794.252 1.396.644 1.806.392.402.9473.602 1.666.602.7933 0 1.5213-.27 2.184-.812l.378.826c-.2987.28-.6813.504-1.148.672-.4667.159-.9427.238-1.428.238-1.064 0-1.904-.312-2.52-.938-.6067-.625-.91-1.488-.91-2.59 0-.7.1353-1.316.406-1.848.2707-.5411.6487-.9611 1.134-1.2598.4947-.2986 1.0547-.448 1.68-.448.9053 0 1.6147.2987 2.128.896.5133.5878.77 1.3998.77 2.4358zm-2.884-2.8698c-.5973 0-1.078.1867-1.442.5598-.3547.374-.5647.901-.63 1.582h3.962c-.0187-.69-.1913-1.218-.518-1.582-.3267-.3731-.784-.5598-1.372-.5598z"/><path d="m44.9814 98.8762h1.134l-2.534 6.8178h-1.092l-1.918-5.278-1.932 5.278h-1.078l-2.534-6.8178h1.176l1.932 5.4738 1.974-5.4738h.98l1.946 5.4738z"/><path d="m50.1615 98.7082c.868 0 1.512.224 1.932.672.4293.4387.644 1.1108.644 2.0158v4.298h-1.106v-1.162c-.1773.402-.448.714-.812.938-.364.215-.784.322-1.26.322-.4387 0-.8447-.088-1.218-.266-.364-.177-.6533-.424-.868-.742-.2147-.317-.322-.667-.322-1.05 0-.513.1307-.91.392-1.19.2613-.289.6907-.494 1.288-.616.5973-.13 1.428-.196 2.492-.196h.308v-.462c0-.569-.1167-.98-.35-1.232-.2333-.2611-.6113-.3918-1.134-.3918-.784 0-1.5633.2427-2.338.7278l-.378-.8258c.3547-.252.7793-.4526 1.274-.602.504-.1586.9893-.238 1.456-.238zm-.448 6.1878c.56 0 1.0173-.186 1.372-.56.364-.382.546-.872.546-1.47v-.406h-.252c-.8213 0-1.4467.038-1.876.112-.4293.066-.7373.182-.924.35-.1773.159-.266.397-.266.714 0 .364.1307.668.392.91.2707.234.6067.35 1.008.35z"/><path d="m59.6993 98.8902h1.134l-4.032 9.3238h-1.162l1.148-2.604-2.884-6.7198h1.204l2.282 5.5718z"/><path d="m68.6101 104.882c.2053 0 .4107-.014.616-.042l-.056.896c-.2147.038-.448.056-.7.056-.8213 0-1.442-.214-1.862-.644-.4107-.429-.616-1.026-.616-1.792v-3.5838h-1.33v-.896h1.33v-2.072h1.134v2.072h1.932v.896h-1.932v3.4998c0 1.074.4947 1.61 1.484 1.61z"/><path d="m73.1999 105.792c-.644 0-1.2133-.144-1.708-.434-.4853-.289-.8633-.7-1.134-1.232-.2613-.541-.392-1.166-.392-1.876 0-.709.1307-1.33.392-1.862.2707-.5411.6487-.9564 1.134-1.2458.4947-.2893 1.064-.434 1.708-.434s1.2134.1447 1.708.434c.4947.2894.8727.7047 1.134 1.2458.2707.532.406 1.153.406 1.862 0 .71-.1353 1.335-.406 1.876-.2613.532-.6393.943-1.134 1.232-.4946.29-1.064.434-1.708.434zm0-.938c.672 0 1.1854-.219 1.54-.658.364-.448.546-1.096.546-1.946 0-.83-.182-1.47-.546-1.918-.364-.4571-.8773-.6858-1.54-.6858-.6626 0-1.176.2287-1.54.6858-.364.448-.546 1.088-.546 1.918 0 .84.1774 1.484.532 1.932.364.448.882.672 1.554.672z"/><path d="m84.7429 104.882c.2053 0 .4107-.014.616-.042l-.056.896c-.2146.038-.448.056-.7.056-.8213 0-1.442-.214-1.862-.644-.4106-.429-.616-1.026-.616-1.792v-3.5838h-1.33v-.896h1.33v-2.072h1.134v2.072h1.932v.896h-1.932v3.4998c0 1.074.4947 1.61 1.484 1.61z"/><path d="m89.9347 98.7082c1.6334 0 2.45.9007 2.45 2.7018v4.284h-1.134v-4.214c0-.634-.126-1.096-.378-1.386-.2426-.2891-.6346-.4338-1.176-.4338-.6253 0-1.1246.1914-1.498.5738-.3733.383-.56.901-.56 1.554v3.906h-1.134v-9.8698h1.134v4.144c.224-.4106.532-.7233.924-.938.4014-.2146.8587-.322 1.372-.322z"/><path d="m100.174 102.46h-4.9842c.0373.794.252 1.396.644 1.806.392.402.9473.602 1.666.602.7933 0 1.5213-.27 2.184-.812l.3782.826c-.2989.28-.6816.504-1.1482.672-.4667.159-.9427.238-1.428.238-1.064 0-1.904-.312-2.52-.938-.6067-.625-.91-1.488-.91-2.59 0-.7.1353-1.316.406-1.848.2706-.5411.6486-.9611 1.134-1.2598.4946-.2986 1.0546-.448 1.68-.448.9053 0 1.6146.2987 2.128.896.5133.5878.7702 1.3998.7702 2.4358zm-2.8842-2.8698c-.5974 0-1.078.1867-1.442.5598-.3547.374-.5647.901-.63 1.582h3.962c-.0187-.69-.1914-1.218-.518-1.582-.3267-.3731-.784-.5598-1.372-.5598z"/><path d="m111.194 98.8762v6.8178h-1.106v-1.162c-.215.411-.518.724-.91.938-.383.215-.817.322-1.302.322-.812 0-1.423-.224-1.834-.672-.411-.457-.616-1.129-.616-2.016v-4.2278h1.134v4.1998c0 .607.121 1.055.364 1.344.243.28.625.42 1.148.42.597 0 1.078-.191 1.442-.574.364-.392.546-.905.546-1.54v-3.8498z"/><path d="m116.732 98.7082c1.633 0 2.45.9007 2.45 2.7018v4.284h-1.134v-4.214c0-.634-.126-1.096-.378-1.386-.243-.2891-.635-.4338-1.176-.4338-.626 0-1.125.1914-1.498.5738-.374.383-.56.901-.56 1.554v3.906h-1.134v-6.8178h1.12v1.12c.224-.42.536-.7373.938-.952.401-.224.858-.336 1.372-.336z"/><path d="m127.335 105.694h-1.47l-3.472-3.262v3.262h-1.134v-9.8698h1.134v6.1458l3.178-3.0798h1.442l-3.388 3.2618z"/><path d="m131.689 98.7082c1.633 0 2.45.9007 2.45 2.7018v4.284h-1.134v-4.214c0-.634-.126-1.096-.378-1.386-.243-.2891-.635-.4338-1.176-.4338-.626 0-1.125.1914-1.498.5738-.374.383-.56.901-.56 1.554v3.906h-1.134v-6.8178h1.12v1.12c.224-.42.536-.7373.938-.952.401-.224.858-.336 1.372-.336z"/><path d="m139.044 105.792c-.644 0-1.214-.144-1.708-.434-.486-.289-.864-.7-1.134-1.232-.262-.541-.392-1.166-.392-1.876 0-.709.13-1.33.392-1.862.27-.5411.648-.9564 1.134-1.2458.494-.2893 1.064-.434 1.708-.434s1.213.1447 1.708.434c.494.2894.872.7047 1.134 1.2458.27.532.406 1.153.406 1.862 0 .71-.136 1.335-.406 1.876-.262.532-.64.943-1.134 1.232-.495.29-1.064.434-1.708.434zm0-.938c.672 0 1.185-.219 1.54-.658.364-.448.546-1.096.546-1.946 0-.83-.182-1.47-.546-1.918-.364-.4571-.878-.6858-1.54-.6858-.663 0-1.176.2287-1.54.6858-.364.448-.546 1.088-.546 1.918 0 .84.177 1.484.532 1.932.364.448.882.672 1.554.672z"/><path d="m153.153 98.8762h1.134l-2.534 6.8178h-1.092l-1.918-5.278-1.932 5.278h-1.078l-2.534-6.8178h1.176l1.932 5.4738 1.974-5.4738h.98l1.946 5.4738z"/><path d="m159.114 98.7082c1.634 0 2.45.9007 2.45 2.7018v4.284h-1.134v-4.214c0-.634-.126-1.096-.378-1.386-.242-.2891-.634-.4338-1.176-.4338-.625 0-1.124.1914-1.498.5738-.373.383-.56.901-.56 1.554v3.906h-1.134v-6.8178h1.12v1.12c.224-.42.537-.7373.938-.952.402-.224.859-.336 1.372-.336z"/><path d="m15.4504 118.708c1.6333 0 2.45.901 2.45 2.702v4.284h-1.134v-4.214c0-.634-.126-1.096-.378-1.386-.2427-.289-.6347-.434-1.176-.434-.6254 0-1.1247.192-1.498.574-.3734.383-.56.901-.56 1.554v3.906h-1.134v-6.818h1.12v1.12c.224-.42.5366-.737.938-.952.4013-.224.8586-.336 1.372-.336z"/><path d="m22.8054 125.792c-.644 0-1.2133-.144-1.708-.434-.4853-.289-.8633-.7-1.134-1.232-.2613-.541-.392-1.166-.392-1.876 0-.709.1307-1.33.392-1.862.2707-.541.6487-.956 1.134-1.246.4947-.289 1.064-.434 1.708-.434s1.2133.145 1.708.434c.4947.29.8727.705 1.134 1.246.2707.532.406 1.153.406 1.862 0 .71-.1353 1.335-.406 1.876-.2613.532-.6393.943-1.134 1.232-.4947.29-1.064.434-1.708.434zm0-.938c.672 0 1.1853-.219 1.54-.658.364-.448.546-1.096.546-1.946 0-.83-.182-1.47-.546-1.918-.364-.457-.8773-.686-1.54-.686s-1.176.229-1.54.686c-.364.448-.546 1.088-.546 1.918 0 .84.1773 1.484.532 1.932.364.448.882.672 1.554.672z"/><path d="m33.483 118.876v6.818h-1.106v-1.162c-.2147.411-.518.724-.91.938-.3827.215-.8167.322-1.302.322-.812 0-1.4233-.224-1.834-.672-.4107-.457-.616-1.129-.616-2.016v-4.228h1.134v4.2c0 .607.1214 1.055.364 1.344.2427.28.6254.42 1.148.42.5974 0 1.078-.191 1.442-.574.364-.392.546-.905.546-1.54v-3.85z"/><path d="m39.4547 119.688-.742.07c-.7.066-1.2087.285-1.526.658-.308.374-.462.836-.462 1.386v3.892h-1.134v-6.818h1.106v1.19c.3826-.793 1.134-1.236 2.254-1.33l.406-.028z"/><path d="m40.5262 125.694v-6.818h1.134v6.818zm-.112-9.772h1.372v1.274h-1.372z"/><path d="m46.0901 125.792c-1.148 0-2.058-.294-2.73-.882l.378-.84c.364.29.7327.5 1.106.63.3827.122.812.182 1.288.182.504 0 .8867-.084 1.148-.252.2707-.177.406-.429.406-.756 0-.27-.0886-.485-.266-.644-.1773-.158-.4713-.284-.882-.378l-1.148-.266c-.5786-.13-1.022-.354-1.33-.672-.308-.317-.462-.709-.462-1.176 0-.606.238-1.096.714-1.47.476-.373 1.1107-.56 1.904-.56.476 0 .9287.08 1.358.238.4294.15.7887.369 1.078.658l-.378.826c-.6253-.532-1.3113-.798-2.058-.798-.476 0-.8493.094-1.12.28-.2613.178-.392.43-.392.756 0 .271.0794.49.238.658.168.159.434.28.798.364l1.162.28c.6347.15 1.106.378 1.414.686.308.299.462.691.462 1.176 0 .598-.2426 1.074-.728 1.428-.476.355-1.1293.532-1.96.532z"/><path d="m53.9367 118.708c1.6333 0 2.45.901 2.45 2.702v4.284h-1.134v-4.214c0-.634-.126-1.096-.378-1.386-.2427-.289-.6347-.434-1.176-.434-.6253 0-1.1247.192-1.498.574-.3733.383-.56.901-.56 1.554v3.906h-1.134v-9.87h1.134v4.144c.224-.41.532-.723.924-.938.4013-.214.8587-.322 1.372-.322z"/><path d="m66.0517 118.708c1.512 0 2.268.901 2.268 2.702v4.284h-1.134v-4.228c0-.625-.112-1.082-.336-1.372-.2146-.289-.5646-.434-1.05-.434-.5693 0-1.0173.192-1.344.574-.3266.383-.49.906-.49 1.568v3.892h-1.134v-4.228c0-.634-.112-1.092-.336-1.372-.224-.289-.5786-.434-1.064-.434-.5693 0-1.0173.192-1.344.574-.3266.383-.49.906-.49 1.568v3.892h-1.134v-6.818h1.12v1.078c.2054-.401.49-.709.854-.924.364-.214.784-.322 1.26-.322 1.0547 0 1.75.448 2.086 1.344.196-.42.4947-.746.896-.98.4014-.242.8587-.364 1.372-.364z"/><path d="m76.0976 122.46h-4.984c.0373.794.252 1.396.644 1.806.392.402.9473.602 1.666.602.7933 0 1.5213-.27 2.184-.812l.378.826c-.2987.28-.6813.504-1.148.672-.4667.159-.9427.238-1.428.238-1.064 0-1.904-.312-2.52-.938-.6067-.625-.91-1.488-.91-2.59 0-.7.1353-1.316.406-1.848.2707-.541.6487-.961 1.134-1.26.4947-.298 1.0547-.448 1.68-.448.9053 0 1.6147.299 2.128.896.5133.588.77 1.4.77 2.436zm-2.884-2.87c-.5973 0-1.078.187-1.442.56-.3547.374-.5647.901-.63 1.582h3.962c-.0187-.69-.1913-1.218-.518-1.582-.3267-.373-.784-.56-1.372-.56z"/><path d="m81.1984 118.708c1.6333 0 2.45.901 2.45 2.702v4.284h-1.134v-4.214c0-.634-.126-1.096-.378-1.386-.2427-.289-.6347-.434-1.176-.434-.6253 0-1.1247.192-1.498.574-.3733.383-.56.901-.56 1.554v3.906h-1.134v-6.818h1.12v1.12c.224-.42.5367-.737.938-.952.4013-.224.8587-.336 1.372-.336z"/><path d="m88.7214 124.882c.2054 0 .4107-.014.616-.042l-.056.896c-.2146.038-.448.056-.7.056-.8213 0-1.442-.214-1.862-.644-.4106-.429-.616-1.026-.616-1.792v-3.584h-1.33v-.896h1.33v-2.072h1.134v2.072h1.932v.896h-1.932v3.5c0 1.074.4947 1.61 1.484 1.61z"/><path d="m97.5226 118.708c1.6334 0 2.45.901 2.45 2.702v4.284h-1.134v-4.214c0-.634-.126-1.096-.378-1.386-.2426-.289-.6346-.434-1.176-.434-.6253 0-1.1246.192-1.498.574-.3733.383-.56.901-.56 1.554v3.906h-1.134v-9.87h1.134v4.144c.224-.41.532-.723.924-.938.4014-.214.8587-.322 1.372-.322z"/><path d="m107.762 122.46h-4.984c.037.794.252 1.396.644 1.806.392.402.947.602 1.666.602.793 0 1.521-.27 2.184-.812l.378.826c-.299.28-.682.504-1.148.672-.467.159-.943.238-1.428.238-1.064 0-1.904-.312-2.52-.938-.607-.625-.91-1.488-.91-2.59 0-.7.135-1.316.406-1.848.27-.541.648-.961 1.134-1.26.494-.298 1.054-.448 1.68-.448.905 0 1.614.299 2.128.896.513.588.77 1.4.77 2.436zm-2.884-2.87c-.598 0-1.078.187-1.442.56-.355.374-.565.901-.63 1.582h3.962c-.019-.69-.192-1.218-.518-1.582-.327-.373-.784-.56-1.372-.56z"/><path d="m113.042 125.694v-9.87h1.134v9.87z"/><path d="m119.124 125.792c-.644 0-1.214-.144-1.708-.434-.486-.289-.864-.7-1.134-1.232-.262-.541-.392-1.166-.392-1.876 0-.709.13-1.33.392-1.862.27-.541.648-.956 1.134-1.246.494-.289 1.064-.434 1.708-.434s1.213.145 1.708.434c.494.29.872.705 1.134 1.246.27.532.406 1.153.406 1.862 0 .71-.136 1.335-.406 1.876-.262.532-.64.943-1.134 1.232-.495.29-1.064.434-1.708.434zm0-.938c.672 0 1.185-.219 1.54-.658.364-.448.546-1.096.546-1.946 0-.83-.182-1.47-.546-1.918-.364-.457-.878-.686-1.54-.686-.663 0-1.176.229-1.54.686-.364.448-.546 1.088-.546 1.918 0 .84.177 1.484.532 1.932.364.448.882.672 1.554.672z"/><path d="m127.491 118.708c1.634 0 2.45.901 2.45 2.702v4.284h-1.134v-4.214c0-.634-.126-1.096-.378-1.386-.242-.289-.634-.434-1.176-.434-.625 0-1.124.192-1.498.574-.373.383-.56.901-.56 1.554v3.906h-1.134v-6.818h1.12v1.12c.224-.42.537-.737.938-.952.402-.224.859-.336 1.372-.336z"/><path d="m138.122 118.876v6.356c0 1.018-.261 1.783-.784 2.296-.522.523-1.297.784-2.324.784-1.194 0-2.198-.308-3.01-.924l.378-.84c.458.299.887.514 1.288.644.402.131.85.196 1.344.196.654 0 1.148-.177 1.484-.532.336-.345.504-.854.504-1.526v-1.204c-.196.439-.499.775-.91 1.008-.401.234-.877.35-1.428.35-.597 0-1.129-.14-1.596-.42-.457-.28-.816-.676-1.078-1.19-.252-.513-.378-1.106-.378-1.778s.126-1.264.378-1.778c.262-.513.621-.91 1.078-1.19.467-.28.999-.42 1.596-.42.542 0 1.013.117 1.414.35.402.234.705.565.91.994v-1.176zm-3.234 5.67c.654 0 1.167-.214 1.54-.644.374-.438.56-1.04.56-1.806 0-.756-.186-1.348-.56-1.778-.364-.438-.877-.658-1.54-.658-.662 0-1.185.22-1.568.658-.373.43-.56 1.022-.56 1.778 0 .766.187 1.368.56 1.806.383.43.906.644 1.568.644z"/><path d="m145.934 122.46h-4.984c.037.794.252 1.396.644 1.806.392.402.947.602 1.666.602.793 0 1.521-.27 2.184-.812l.378.826c-.299.28-.682.504-1.148.672-.467.159-.943.238-1.428.238-1.064 0-1.904-.312-2.52-.938-.607-.625-.91-1.488-.91-2.59 0-.7.135-1.316.406-1.848.27-.541.648-.961 1.134-1.26.494-.298 1.054-.448 1.68-.448.905 0 1.614.299 2.128.896.513.588.77 1.4.77 2.436zm-2.884-2.87c-.598 0-1.078.187-1.442.56-.355.374-.565.901-.63 1.582h3.962c-.019-.69-.192-1.218-.518-1.582-.327-.373-.784-.56-1.372-.56z"/><path d="m153.652 115.824v9.87h-1.134v-1.246c-.205.43-.508.761-.91.994-.392.234-.854.35-1.386.35-.597 0-1.124-.149-1.582-.448-.457-.298-.812-.714-1.064-1.246-.252-.541-.378-1.166-.378-1.876 0-.7.126-1.316.378-1.848s.607-.942 1.064-1.232c.458-.289.985-.434 1.582-.434.532 0 .994.117 1.386.35.402.234.705.565.91.994v-4.228zm-3.206 9.03c.663 0 1.172-.224 1.526-.672.364-.457.546-1.101.546-1.932 0-.83-.182-1.47-.546-1.918-.354-.448-.863-.672-1.526-.672-.662 0-1.18.224-1.554.672-.364.448-.546 1.078-.546 1.89 0 .831.182 1.48.546 1.946.374.458.892.686 1.554.686z"/><path d="m13.5324 138.876h1.932v.896h-1.932v5.922h-1.134v-5.922h-1.33v-.896h1.33v-.224c0-.905.224-1.591.672-2.058.4573-.466 1.1573-.728 2.1-.784l.56-.028.084.882-.644.042c-.5694.038-.9847.201-1.246.49-.2614.28-.392.714-.392 1.302z"/><path d="m19.3738 145.792c-.644 0-1.2134-.144-1.708-.434-.4854-.289-.8634-.7-1.134-1.232-.2614-.541-.392-1.166-.392-1.876 0-.709.1306-1.33.392-1.862.2706-.541.6486-.956 1.134-1.246.4946-.289 1.064-.434 1.708-.434s1.2133.145 1.708.434c.4946.29.8726.705 1.134 1.246.2706.532.406 1.153.406 1.862 0 .71-.1354 1.335-.406 1.876-.2614.532-.6394.943-1.134 1.232-.4947.29-1.064.434-1.708.434zm0-.938c.672 0 1.1853-.219 1.54-.658.364-.448.546-1.096.546-1.946 0-.83-.182-1.47-.546-1.918-.364-.457-.8774-.686-1.54-.686-.6627 0-1.176.229-1.54.686-.364.448-.546 1.088-.546 1.918 0 .84.1773 1.484.532 1.932.364.448.882.672 1.554.672z"/><path d="m28.1754 139.688-.742.07c-.7.066-1.2087.285-1.526.658-.308.374-.462.836-.462 1.386v3.892h-1.134v-6.818h1.106v1.19c.3826-.793 1.134-1.236 2.254-1.33l.406-.028z"/><path d="m42.1103 138.876h1.134l-2.534 6.818h-1.092l-1.918-5.278-1.932 5.278h-1.078l-2.534-6.818h1.176l1.932 5.474 1.974-5.474h.98l1.946 5.474z"/><path d="m50.2714 142.46h-4.984c.0374.794.252 1.396.644 1.806.392.402.9474.602 1.666.602.7934 0 1.5214-.27 2.184-.812l.378.826c-.2986.28-.6813.504-1.148.672-.4666.159-.9426.238-1.428.238-1.064 0-1.904-.312-2.52-.938-.6066-.625-.91-1.488-.91-2.59 0-.7.1354-1.316.406-1.848.2707-.541.6487-.961 1.134-1.26.4947-.298 1.0547-.448 1.68-.448.9054 0 1.6147.299 2.128.896.5134.588.77 1.4.77 2.436zm-2.884-2.87c-.5973 0-1.078.187-1.442.56-.3546.374-.5646.901-.63 1.582h3.962c-.0186-.69-.1913-1.218-.518-1.582-.3266-.373-.784-.56-1.372-.56z"/><path d="m55.8062 139.688-.742.07c-.7.066-1.2086.285-1.526.658-.308.374-.462.836-.462 1.386v3.892h-1.134v-6.818h1.106v1.19c.3827-.793 1.134-1.236 2.254-1.33l.406-.028z"/><path d="m62.4531 142.46h-4.984c.0373.794.252 1.396.644 1.806.392.402.9473.602 1.666.602.7933 0 1.5213-.27 2.184-.812l.378.826c-.2987.28-.6814.504-1.148.672-.4667.159-.9427.238-1.428.238-1.064 0-1.904-.312-2.52-.938-.6067-.625-.91-1.488-.91-2.59 0-.7.1353-1.316.406-1.848.2706-.541.6486-.961 1.134-1.26.4946-.298 1.0546-.448 1.68-.448.9053 0 1.6146.299 2.128.896.5133.588.77 1.4.77 2.436zm-2.884-2.87c-.5974 0-1.078.187-1.442.56-.3547.374-.5647.901-.63 1.582h3.962c-.0187-.69-.1914-1.218-.518-1.582-.3267-.373-.784-.56-1.372-.56z"/><path d="m70.6173 145.792c-.672 0-1.2554-.144-1.75-.434-.4947-.289-.8774-.695-1.1481-1.218-.2613-.532-.3919-1.152-.3919-1.862 0-.709.1353-1.33.4059-1.862.28-.541.6674-.961 1.1621-1.26.504-.298 1.092-.448 1.764-.448.4573 0 .9053.084 1.344.252.4386.159.7933.374 1.0639.644l-.3779.84c-.6441-.522-1.2974-.784-1.96-.784-.7 0-1.2461.229-1.638.686-.392.458-.588 1.102-.588 1.932 0 .822.196 1.456.588 1.904.3919.448.938.672 1.638.672.6626 0 1.3159-.261 1.96-.784l.3779.84c-.2893.271-.6533.486-1.0919.644-.4387.159-.8914.238-1.358.238z"/><path d="m77.2605 145.792c-.644 0-1.2134-.144-1.708-.434-.4854-.289-.8634-.7-1.134-1.232-.2614-.541-.392-1.166-.392-1.876 0-.709.1306-1.33.392-1.862.2706-.541.6486-.956 1.134-1.246.4946-.289 1.064-.434 1.708-.434s1.2133.145 1.708.434c.4946.29.8726.705 1.134 1.246.2706.532.406 1.153.406 1.862 0 .71-.1354 1.335-.406 1.876-.2614.532-.6394.943-1.134 1.232-.4947.29-1.064.434-1.708.434zm0-.938c.672 0 1.1853-.219 1.54-.658.364-.448.546-1.096.546-1.946 0-.83-.182-1.47-.546-1.918-.364-.457-.8774-.686-1.54-.686-.6627 0-1.176.229-1.54.686-.364.448-.546 1.088-.546 1.918 0 .84.1773 1.484.532 1.932.364.448.882.672 1.554.672z"/><path d="m89.7861 138.708c1.512 0 2.268.901 2.268 2.702v4.284h-1.134v-4.228c0-.625-.112-1.082-.336-1.372-.2147-.289-.5647-.434-1.05-.434-.5693 0-1.0173.192-1.344.574-.3267.383-.49.906-.49 1.568v3.892h-1.134v-4.228c0-.634-.112-1.092-.336-1.372-.224-.289-.5787-.434-1.064-.434-.5693 0-1.0173.192-1.344.574-.3267.383-.49.906-.49 1.568v3.892h-1.134v-6.818h1.12v1.078c.2053-.401.49-.709.854-.924.364-.214.784-.322 1.26-.322 1.0547 0 1.75.448 2.086 1.344.196-.42.4947-.746.896-.98.4013-.242.8587-.364 1.372-.364z"/><path d="m94.12 145.694v-6.818h1.134v6.818zm-.112-9.772h1.372v1.274h-1.372z"/><path d="m100.804 138.708c1.633 0 2.45.901 2.45 2.702v4.284h-1.134v-4.214c0-.634-.126-1.096-.378-1.386-.243-.289-.635-.434-1.176-.434-.6255 0-1.1248.192-1.4981.574-.3734.383-.56.901-.56 1.554v3.906h-1.134v-6.818h1.12v1.12c.224-.42.5366-.737.938-.952.4013-.224.8591-.336 1.3721-.336z"/><path d="m111.435 138.876v6.356c0 1.018-.261 1.783-.784 2.296-.523.523-1.297.784-2.324.784-1.195 0-2.198-.308-3.01-.924l.378-.84c.457.299.887.514 1.288.644.401.131.849.196 1.344.196.653 0 1.148-.177 1.484-.532.336-.345.504-.854.504-1.526v-1.204c-.196.439-.499.775-.91 1.008-.401.234-.877.35-1.428.35-.597 0-1.129-.14-1.596-.42-.457-.28-.817-.676-1.078-1.19-.252-.513-.378-1.106-.378-1.778s.126-1.264.378-1.778c.261-.513.621-.91 1.078-1.19.467-.28.999-.42 1.596-.42.541 0 1.013.117 1.414.35.401.234.705.565.91.994v-1.176zm-3.234 5.67c.653 0 1.167-.214 1.54-.644.373-.438.56-1.04.56-1.806 0-.756-.187-1.348-.56-1.778-.364-.438-.877-.658-1.54-.658s-1.185.22-1.568.658c-.373.43-.56 1.022-.56 1.778 0 .766.187 1.368.56 1.806.383.43.905.644 1.568.644z"/></g></svg>